SplineFontDB: 3.2
FontName: ssu5p
FullName: ssu5p
FamilyName: ssu5p
Weight: Regular
Copyright: 
Version: 1.000
ItalicAngle: 0
UnderlinePosition: -714
UnderlineWidth: 102
Ascent: 1638
Descent: 410
InvalidEm: 0
sfntRevision: 0x00010000
LayerCount: 2
Layer: 0 1 "Back" 1
Layer: 1 1 "Fore" 0
XUID: [1021 467 -1121320856 13690076]
StyleMap: 0x0040
FSType: 4
OS2Version: 4
OS2_WeightWidthSlopeOnly: 0
OS2_UseTypoMetrics: 0
CreationTime: 1542437498
ModificationTime: 1629352243
PfmFamily: 81
TTFWeight: 400
TTFWidth: 5
LineGap: 0
VLineGap: 0
Panose: 0 0 0 0 0 0 0 0 0 0
OS2TypoAscent: 1638
OS2TypoAOffset: 0
OS2TypoDescent: -410
OS2TypoDOffset: 0
OS2TypoLinegap: 0
OS2WinAscent: 1770
OS2WinAOffset: 0
OS2WinDescent: 357
OS2WinDOffset: 0
HheadAscent: 1770
HheadAOffset: 0
HheadDescent: -357
HheadDOffset: 0
OS2SubXSize: 1331
OS2SubYSize: 1432
OS2SubXOff: 0
OS2SubYOff: 287
OS2SupXSize: 1331
OS2SupYSize: 1432
OS2SupXOff: 0
OS2SupYOff: 981
OS2StrikeYSize: 100
OS2StrikeYPos: 528
OS2CapHeight: 700
OS2XHeight: 701
OS2Vendor: 'XXXX'
OS2CodePages: 00000003.00000000
OS2UnicodeRanges: a0000007.10000002.00000000.00000000
MarkAttachClasses: 1
DEI: 91125
TtTable: prep
PUSHW_1
 511
SCANCTRL
PUSHB_1
 1
SCANTYPE
SVTCA[y-axis]
MPPEM
PUSHB_1
 8
LT
IF
PUSHB_2
 1
 1
INSTCTRL
EIF
PUSHB_2
 70
 6
CALL
IF
POP
PUSHB_1
 16
EIF
MPPEM
PUSHB_1
 20
GT
IF
POP
PUSHB_1
 128
EIF
SCVTCI
PUSHB_1
 6
CALL
NOT
IF
SVTCA[y-axis]
PUSHB_1
 3
DUP
RCVT
PUSHB_1
 3
CALL
WCVTP
PUSHB_1
 4
DUP
RCVT
PUSHW_3
 3
 1063
 2
CALL
PUSHB_1
 3
CALL
WCVTP
SVTCA[x-axis]
PUSHB_1
 5
DUP
RCVT
PUSHB_1
 3
CALL
WCVTP
PUSHB_1
 6
DUP
RCVT
PUSHW_3
 5
 1063
 2
CALL
PUSHB_2
 3
 70
SROUND
CALL
WCVTP
EIF
PUSHB_1
 20
CALL
EndTTInstrs
TtTable: fpgm
PUSHB_1
 0
FDEF
PUSHB_1
 0
SZP0
MPPEM
PUSHB_1
 76
LT
IF
PUSHB_1
 74
SROUND
EIF
PUSHB_1
 0
SWAP
MIAP[rnd]
RTG
PUSHB_1
 6
CALL
IF
RTDG
EIF
MPPEM
PUSHB_1
 76
LT
IF
RDTG
EIF
DUP
MDRP[rp0,rnd,grey]
PUSHB_1
 1
SZP0
MDAP[no-rnd]
RTG
ENDF
PUSHB_1
 1
FDEF
DUP
MDRP[rp0,min,white]
PUSHB_1
 12
CALL
ENDF
PUSHB_1
 2
FDEF
MPPEM
GT

StartChar: exclam
Encoding: 33 33 5
Width: 1028
GlyphClass: 2
Flags: W
LayerCount: 2
Fore
SplineSet
431.192382812 969.342773438 m 132,-1,1
 406.243164062 994.819335938 406.243164062 994.819335938 406.114257812 1033.34667969 c 4,2,3
 406.243164062 1071.81933594 406.243164062 1071.81933594 438.907226562 1103.375 c 4,4,5
 471.243164062 1134.81933594 471.243164062 1134.81933594 518 1135 c 4,6,7
 564.243164062 1134.81933594 564.243164062 1134.81933594 590.33984375 1107.13964844 c 4,8,9
 616.243164062 1078.81933594 616.243164062 1078.81933594 616.3828125 1041.62988281 c 4,10,11
 616.243164062 1003.81933594 616.243164062 1003.81933594 584.552734375 973.861328125 c 4,12,13
 552.243164062 943.819335938 552.243164062 943.819335938 504.497070312 943.7421875 c 4,14,0
 456.243164062 943.819335938 456.243164062 943.819335938 431.192382812 969.342773438 c 132,-1,1
430.94921875 317.5234375 m 132,-1,16
 406 343 406 343 405.87109375 381.52734375 c 4,17,18
 406 420 406 420 438.6640625 451.555664062 c 4,19,20
 471 483 471 483 517.756835938 483.180664062 c 4,21,22
 564 483 564 483 590.096679688 455.3203125 c 4,23,24
 616 427 616 427 616.139648438 389.810546875 c 4,25,26
 616 352 616 352 584.309570312 322.041992188 c 4,27,28
 552 292 552 292 504.25390625 291.922851562 c 4,29,15
 456 292 456 292 430.94921875 317.5234375 c 132,-1,16
221 65 m 1,30,-1
 286 131 l 1,31,-1
 742 131 l 1,32,-1
 807 65 l 1,33,-1
 742 0 l 1,34,-1
 286 0 l 1,35,-1
 221 65 l 1,30,-1
775 163 m 1,36,-1
 775 619 l 1,37,-1
 840 684 l 1,38,-1
 905 619 l 1,39,-1
 905 163 l 1,40,-1
 840 98 l 1,41,-1
 775 163 l 1,36,-1
775 815 m 1,42,-1
 775 1271 l 1,43,-1
 840 1336 l 1,44,-1
 905 1271 l 1,45,-1
 905 815 l 1,46,-1
 840 750 l 1,47,-1
 775 815 l 1,42,-1
EndSplineSet
EndChar

StartChar: numbersign
Encoding: 35 35 6
Width: 1028
GlyphClass: 2
Flags: W
LayerCount: 2
Fore
SplineSet
431.192382812 1070.34277344 m 132,-1,1
 406.243164062 1095.81933594 406.243164062 1095.81933594 406.114257812 1134.34667969 c 4,2,3
 406.243164062 1172.81933594 406.243164062 1172.81933594 438.907226562 1204.375 c 4,4,5
 471.243164062 1235.81933594 471.243164062 1235.81933594 518 1236 c 4,6,7
 564.243164062 1235.81933594 564.243164062 1235.81933594 590.33984375 1208.13964844 c 4,8,9
 616.243164062 1179.81933594 616.243164062 1179.81933594 616.3828125 1142.62988281 c 4,10,11
 616.243164062 1104.81933594 616.243164062 1104.81933594 584.552734375 1074.86132812 c 4,12,13
 552.243164062 1044.81933594 552.243164062 1044.81933594 504.497070312 1044.7421875 c 4,14,0
 456.243164062 1044.81933594 456.243164062 1044.81933594 431.192382812 1070.34277344 c 132,-1,1
430.94921875 239.5234375 m 132,-1,16
 406 265 406 265 405.87109375 303.52734375 c 4,17,18
 406 342 406 342 438.6640625 373.555664062 c 4,19,20
 471 405 471 405 517.756835938 405.180664062 c 4,21,22
 564 405 564 405 590.096679688 377.3203125 c 4,23,24
 616 349 616 349 616.139648438 311.810546875 c 4,25,26
 616 274 616 274 584.309570312 244.041992188 c 4,27,28
 552 214 552 214 504.25390625 213.922851562 c 4,29,15
 456 214 456 214 430.94921875 239.5234375 c 132,-1,16
123 65 m 1,30,-1
 123 619 l 1,31,-1
 188 684 l 1,32,-1
 253 619 l 1,33,-1
 253 65 l 1,34,-1
 188 0 l 1,35,-1
 123 65 l 1,30,-1
123 814 m 1,36,-1
 123 1368 l 1,37,-1
 188 1433 l 1,38,-1
 253 1368 l 1,39,-1
 253 814 l 1,40,-1
 188 749 l 1,41,-1
 123 814 l 1,36,-1
221 717 m 1,42,-1
 286 782 l 1,43,-1
 742 782 l 1,44,-1
 807 717 l 1,45,-1
 742 652 l 1,46,-1
 286 652 l 1,47,-1
 221 717 l 1,42,-1
775 65 m 1,48,-1
 775 619 l 1,49,-1
 840 684 l 1,50,-1
 905 619 l 1,51,-1
 905 65 l 1,52,-1
 840 0 l 1,53,-1
 775 65 l 1,48,-1
775 814 m 1,54,-1
 775 1368 l 1,55,-1
 840 1433 l 1,56,-1
 905 1368 l 1,57,-1
 905 814 l 1,58,-1
 840 749 l 1,59,-1
 775 814 l 1,54,-1
EndSplineSet
EndChar

StartChar: dollar
Encoding: 36 36 7
Width: 1028
GlyphClass: 2
Flags: W
LayerCount: 2
Fore
SplineSet
318.192382812 979.342773438 m 132,-1,1
 293.243164062 1004.81933594 293.243164062 1004.81933594 293.114257812 1043.34667969 c 4,2,3
 293.243164062 1081.81933594 293.243164062 1081.81933594 325.907226562 1113.375 c 4,4,5
 358.243164062 1144.81933594 358.243164062 1144.81933594 405 1145 c 4,6,7
 451.243164062 1144.81933594 451.243164062 1144.81933594 477.33984375 1117.13964844 c 4,8,9
 503.243164062 1088.81933594 503.243164062 1088.81933594 503.3828125 1051.62988281 c 4,10,11
 503.243164062 1013.81933594 503.243164062 1013.81933594 471.552734375 983.861328125 c 4,12,13
 439.243164062 953.819335938 439.243164062 953.819335938 391.497070312 953.7421875 c 4,14,0
 343.243164062 953.819335938 343.243164062 953.819335938 318.192382812 979.342773438 c 132,-1,1
317.94921875 318.5234375 m 128,-1,16
 293 344 293 344 292.87109375 382.52734375 c 0,17,18
 293 421 293 421 325.6640625 452.555664062 c 0,19,20
 358 484 358 484 404.756835938 484.180664062 c 0,21,22
 451 484 451 484 477.096679688 456.3203125 c 0,23,24
 503 428 503 428 503.139648438 390.810546875 c 0,25,26
 503 353 503 353 471.309570312 323.041992188 c 0,27,28
 439 293 439 293 391.25390625 292.922851562 c 0,29,15
 343 293 343 293 317.94921875 318.5234375 c 128,-1,16
221 65 m 1,30,-1
 286 131 l 1,31,-1
 742 131 l 1,32,-1
 807 65 l 1,33,-1
 742 0 l 1,34,-1
 286 0 l 1,35,-1
 221 65 l 1,30,-1
221 717 m 1,36,-1
 286 782 l 1,37,-1
 742 782 l 1,38,-1
 807 717 l 1,39,-1
 742 652 l 1,40,-1
 286 652 l 1,41,-1
 221 717 l 1,36,-1
221 1369 m 1,42,-1
 286 1434 l 1,43,-1
 742 1434 l 1,44,-1
 807 1369 l 1,45,-1
 742 1304 l 1,46,-1
 286 1304 l 1,47,-1
 221 1369 l 1,42,-1
775 163 m 1,48,-1
 775 619 l 1,49,-1
 840 684 l 1,50,-1
 905 619 l 1,51,-1
 905 163 l 1,52,-1
 840 98 l 1,53,-1
 775 163 l 1,48,-1
EndSplineSet
EndChar

StartChar: percent
Encoding: 37 37 8
Width: 1028
GlyphClass: 2
Flags: W
LayerCount: 2
Fore
SplineSet
297.28515625 1078.96777344 m 132,-1,1
 272.3359375 1104.44433594 272.3359375 1104.44433594 272.20703125 1142.97167969 c 4,2,3
 272.3359375 1181.44433594 272.3359375 1181.44433594 305 1213 c 4,4,5
 337.3359375 1244.44433594 337.3359375 1244.44433594 384.092773438 1244.625 c 4,6,7
 430.3359375 1244.44433594 430.3359375 1244.44433594 456.432617188 1216.76464844 c 4,8,9
 482.3359375 1188.44433594 482.3359375 1188.44433594 482.475585938 1151.25488281 c 4,10,11
 482.3359375 1113.44433594 482.3359375 1113.44433594 450.645507812 1083.48632812 c 4,12,13
 418.3359375 1053.44433594 418.3359375 1053.44433594 370.58984375 1053.3671875 c 4,14,0
 322.3359375 1053.44433594 322.3359375 1053.44433594 297.28515625 1078.96777344 c 132,-1,1
539.192382812 288.342773438 m 0,15,16
 514 314 514 314 514.114257812 352.346679688 c 0,17,18
 514 391 514 391 546.907226562 422.375 c 0,19,20
 579 454 579 454 626 454 c 0,21,22
 672 454 672 454 698.33984375 426.139648438 c 0,23,24
 724 398 724 398 724.3828125 360.629882812 c 0,25,26
 724 323 724 323 692.552734375 292.861328125 c 0,27,28
 660 263 660 263 612.497070312 262.7421875 c 0,29,30
 564 263 564 263 539.192382812 288.342773438 c 0,15,16
123 163 m 1,31,-1
 123 619 l 1,32,-1
 188 684 l 1,33,-1
 253 619 l 1,34,-1
 253 163 l 1,35,-1
 188 98 l 1,36,-1
 123 163 l 1,31,-1
221 717 m 1,37,-1
 286 782 l 1,38,-1
 742 782 l 1,39,-1
 807 717 l 1,40,-1
 742 652 l 1,41,-1
 286 652 l 1,42,-1
 221 717 l 1,37,-1
775 815 m 1,43,-1
 775 1271 l 1,44,-1
 840 1336 l 1,45,-1
 905 1271 l 1,46,-1
 905 815 l 1,47,-1
 840 750 l 1,48,-1
 775 815 l 1,43,-1
EndSplineSet
EndChar

StartChar: ampersand
Encoding: 38 38 9
Width: 1028
GlyphClass: 2
Flags: W
LayerCount: 2
Fore
SplineSet
431.192382812 969.342773438 m 128,-1,1
 406.243164062 994.819335938 406.243164062 994.819335938 406.114257812 1033.34667969 c 0,2,3
 406.243164062 1071.81933594 406.243164062 1071.81933594 438.907226562 1103.375 c 0,4,5
 471.243164062 1134.81933594 471.243164062 1134.81933594 518 1135 c 0,6,7
 564.243164062 1134.81933594 564.243164062 1134.81933594 590.33984375 1107.13964844 c 0,8,9
 616.243164062 1078.81933594 616.243164062 1078.81933594 616.3828125 1041.62988281 c 0,10,11
 616.243164062 1003.81933594 616.243164062 1003.81933594 584.552734375 973.861328125 c 0,12,13
 552.243164062 943.819335938 552.243164062 943.819335938 504.497070312 943.7421875 c 0,14,0
 456.243164062 943.819335938 456.243164062 943.819335938 431.192382812 969.342773438 c 128,-1,1
430.94921875 234.5234375 m 132,-1,16
 406 260 406 260 405.87109375 298.52734375 c 4,17,18
 406 337 406 337 438.6640625 368.555664062 c 4,19,20
 471 400 471 400 517.756835938 400.180664062 c 4,21,22
 564 400 564 400 590.096679688 372.3203125 c 4,23,24
 616 344 616 344 616.139648438 306.810546875 c 4,25,26
 616 269 616 269 584.309570312 239.041992188 c 4,27,28
 552 209 552 209 504.25390625 208.922851562 c 4,29,15
 456 209 456 209 430.94921875 234.5234375 c 132,-1,16
123 65 m 1,30,-1
 123 619 l 1,31,-1
 188 684 l 1,32,-1
 253 619 l 1,33,-1
 253 65 l 1,34,-1
 188 0 l 1,35,-1
 123 65 l 1,30,-1
123 814 m 1,36,-1
 123 1271 l 1,37,-1
 188 1336 l 1,38,-1
 253 1271 l 1,39,-1
 253 814 l 1,40,-1
 188 749 l 1,41,-1
 123 814 l 1,36,-1
221 717 m 1,42,-1
 286 782 l 1,43,-1
 742 782 l 1,44,-1
 807 717 l 1,45,-1
 742 652 l 1,46,-1
 286 652 l 1,47,-1
 221 717 l 1,42,-1
221 1368 m 1,48,-1
 286 1433 l 1,49,-1
 742 1433 l 1,50,-1
 807 1368 l 1,51,-1
 742 1303 l 1,52,-1
 286 1303 l 1,53,-1
 221 1368 l 1,48,-1
775 65 m 1,54,-1
 775 619 l 1,55,-1
 840 684 l 1,56,-1
 905 619 l 1,57,-1
 905 65 l 1,58,-1
 840 0 l 1,59,-1
 775 65 l 1,54,-1
775 814 m 1,60,-1
 775 1271 l 1,61,-1
 840 1336 l 1,62,-1
 905 1271 l 1,63,-1
 905 814 l 1,64,-1
 840 749 l 1,65,-1
 775 814 l 1,60,-1
EndSplineSet
EndChar

StartChar: parenleft
Encoding: 40 40 10
Width: 778
GlyphClass: 2
Flags: W
LayerCount: 2
Fore
SplineSet
431.192382812 969.342773438 m 132,-1,1
 406.243164062 994.819335938 406.243164062 994.819335938 406.114257812 1033.34667969 c 4,2,3
 406.243164062 1071.81933594 406.243164062 1071.81933594 438.907226562 1103.375 c 4,4,5
 471.243164062 1134.81933594 471.243164062 1134.81933594 518 1135 c 4,6,7
 564.243164062 1134.81933594 564.243164062 1134.81933594 590.33984375 1107.13964844 c 4,8,9
 616.243164062 1078.81933594 616.243164062 1078.81933594 616.3828125 1041.62988281 c 4,10,11
 616.243164062 1003.81933594 616.243164062 1003.81933594 584.552734375 973.861328125 c 4,12,13
 552.243164062 943.819335938 552.243164062 943.819335938 504.497070312 943.7421875 c 4,14,0
 456.243164062 943.819335938 456.243164062 943.819335938 431.192382812 969.342773438 c 132,-1,1
430.94921875 317.5234375 m 132,-1,16
 406 343 406 343 405.87109375 381.52734375 c 4,17,18
 406 420 406 420 438.6640625 451.555664062 c 4,19,20
 471 483 471 483 517.756835938 483.180664062 c 4,21,22
 564 483 564 483 590.096679688 455.3203125 c 4,23,24
 616 427 616 427 616.139648438 389.810546875 c 4,25,26
 616 352 616 352 584.309570312 322.041992188 c 4,27,28
 552 292 552 292 504.25390625 291.922851562 c 4,29,15
 456 292 456 292 430.94921875 317.5234375 c 132,-1,16
123 163 m 1,30,-1
 123 619 l 1,31,-1
 188 684 l 1,32,-1
 253 619 l 1,33,-1
 253 163 l 1,34,-1
 188 98 l 1,35,-1
 123 163 l 1,30,-1
123 815 m 1,36,-1
 123 1271 l 1,37,-1
 188 1336 l 1,38,-1
 253 1271 l 1,39,-1
 253 815 l 1,40,-1
 188 749 l 1,41,-1
 123 815 l 1,36,-1
221 65 m 1,42,-1
 286 130 l 1,43,-1
 589 130 l 1,44,-1
 654 65 l 1,45,-1
 589 0 l 1,46,-1
 286 0 l 1,47,-1
 221 65 l 1,42,-1
221 1368 m 1,48,-1
 286 1434 l 1,49,-1
 590 1434 l 1,50,-1
 655 1368 l 1,51,-1
 590 1303 l 1,52,-1
 286 1303 l 1,53,-1
 221 1368 l 1,48,-1
EndSplineSet
EndChar

StartChar: parenright
Encoding: 41 41 11
Width: 1028
GlyphClass: 2
Flags: W
LayerCount: 2
Fore
SplineSet
315.192382812 937.342773438 m 132,-1,1
 290.243164062 962.819335938 290.243164062 962.819335938 290.114257812 1001.34667969 c 4,2,3
 290.243164062 1039.81933594 290.243164062 1039.81933594 322.907226562 1071.375 c 4,4,5
 355.243164062 1102.81933594 355.243164062 1102.81933594 402 1103 c 4,6,7
 448.243164062 1102.81933594 448.243164062 1102.81933594 474.33984375 1075.13964844 c 4,8,9
 500.243164062 1046.81933594 500.243164062 1046.81933594 500.3828125 1009.62988281 c 4,10,11
 500.243164062 971.819335938 500.243164062 971.819335938 468.552734375 941.861328125 c 4,12,13
 436.243164062 911.819335938 436.243164062 911.819335938 388.497070312 911.7421875 c 4,14,0
 340.243164062 911.819335938 340.243164062 911.819335938 315.192382812 937.342773438 c 132,-1,1
319.94921875 375.5234375 m 128,-1,16
 295 401 295 401 294.87109375 439.52734375 c 0,17,18
 295 478 295 478 327.6640625 509.555664062 c 0,19,20
 360 541 360 541 406.756835938 541.180664062 c 0,21,22
 453 541 453 541 479.096679688 513.3203125 c 0,23,24
 505 485 505 485 505.139648438 447.810546875 c 0,25,26
 505 410 505 410 473.309570312 380.041992188 c 0,27,28
 441 350 441 350 393.25390625 349.922851562 c 0,29,15
 345 350 345 350 319.94921875 375.5234375 c 128,-1,16
221 65 m 1,30,-1
 286 131 l 1,31,-1
 742 131 l 1,32,-1
 807 65 l 1,33,-1
 742 0 l 1,34,-1
 286 0 l 1,35,-1
 221 65 l 1,30,-1
221 1369 m 1,36,-1
 286 1434 l 1,37,-1
 742 1434 l 1,38,-1
 807 1369 l 1,39,-1
 742 1304 l 1,40,-1
 286 1304 l 1,41,-1
 221 1369 l 1,36,-1
775 163 m 1,42,-1
 775 619 l 1,43,-1
 840 684 l 1,44,-1
 905 619 l 1,45,-1
 905 163 l 1,46,-1
 840 98 l 1,47,-1
 775 163 l 1,42,-1
775 815 m 1,48,-1
 775 1271 l 1,49,-1
 840 1336 l 1,50,-1
 905 1271 l 1,51,-1
 905 815 l 1,52,-1
 840 750 l 1,53,-1
 775 815 l 1,48,-1
EndSplineSet
EndChar

StartChar: asterisk
Encoding: 42 42 12
Width: 1028
GlyphClass: 2
Flags: W
LayerCount: 2
Fore
SplineSet
438.6953125 884.600585938 m 128,-1,1
 413.74609375 910.077148438 413.74609375 910.077148438 413.6171875 948.604492188 c 0,2,3
 413.74609375 987.077148438 413.74609375 987.077148438 446.41015625 1018.6328125 c 0,4,5
 478.74609375 1050.07714844 478.74609375 1050.07714844 525.502929688 1050.2578125 c 0,6,7
 571.74609375 1050.07714844 571.74609375 1050.07714844 597.842773438 1022.39746094 c 0,8,9
 623.74609375 994.077148438 623.74609375 994.077148438 623.885742188 956.887695312 c 0,10,11
 623.74609375 919.077148438 623.74609375 919.077148438 592.055664062 889.119140625 c 0,12,13
 559.74609375 859.077148438 559.74609375 859.077148438 512 859 c 0,14,0
 463.74609375 859.077148438 463.74609375 859.077148438 438.6953125 884.600585938 c 128,-1,1
443.192382812 396.342773438 m 4,15,16
 418 422 418 422 418.114257812 460.346679688 c 4,17,18
 418 499 418 499 450.907226562 530.375 c 4,19,20
 483 562 483 562 530 562 c 4,21,22
 576 562 576 562 602.33984375 534.139648438 c 4,23,24
 628 506 628 506 628.3828125 468.629882812 c 4,25,26
 628 431 628 431 596.552734375 400.861328125 c 4,27,28
 564 371 564 371 516.497070312 370.7421875 c 4,29,30
 468 371 468 371 443.192382812 396.342773438 c 4,15,16
123 163 m 1,31,-1
 123 619 l 1,32,-1
 188 684 l 1,33,-1
 253 619 l 1,34,-1
 253 163 l 1,35,-1
 188 98 l 1,36,-1
 123 163 l 1,31,-1
123 815 m 1,37,-1
 123 1271 l 1,38,-1
 188 1336 l 1,39,-1
 253 1271 l 1,40,-1
 253 815 l 1,41,-1
 188 750 l 1,42,-1
 123 815 l 1,37,-1
221 1369 m 1,43,-1
 286 1434 l 1,44,-1
 742 1434 l 1,45,-1
 807 1369 l 1,46,-1
 742 1304 l 1,47,-1
 286 1304 l 1,48,-1
 221 1369 l 1,43,-1
775 163 m 1,49,-1
 775 619 l 1,50,-1
 840 684 l 1,51,-1
 905 619 l 1,52,-1
 905 163 l 1,53,-1
 840 98 l 1,54,-1
 775 163 l 1,49,-1
775 815 m 1,55,-1
 775 1271 l 1,56,-1
 840 1336 l 1,57,-1
 905 1271 l 1,58,-1
 905 815 l 1,59,-1
 840 750 l 1,60,-1
 775 815 l 1,55,-1
EndSplineSet
EndChar

StartChar: plus
Encoding: 43 43 13
Width: 1028
GlyphClass: 2
Flags: W
LayerCount: 2
Fore
SplineSet
431.192382812 969.342773438 m 132,-1,1
 406.243164062 994.819335938 406.243164062 994.819335938 406.114257812 1033.34667969 c 4,2,3
 406.243164062 1071.81933594 406.243164062 1071.81933594 438.907226562 1103.375 c 4,4,5
 471.243164062 1134.81933594 471.243164062 1134.81933594 518 1135 c 4,6,7
 564.243164062 1134.81933594 564.243164062 1134.81933594 590.33984375 1107.13964844 c 4,8,9
 616.243164062 1078.81933594 616.243164062 1078.81933594 616.3828125 1041.62988281 c 4,10,11
 616.243164062 1003.81933594 616.243164062 1003.81933594 584.552734375 973.861328125 c 4,12,13
 552.243164062 943.819335938 552.243164062 943.819335938 504.497070312 943.7421875 c 4,14,0
 456.243164062 943.819335938 456.243164062 943.819335938 431.192382812 969.342773438 c 132,-1,1
430.94921875 317.5234375 m 132,-1,16
 406 343 406 343 405.87109375 381.52734375 c 4,17,18
 406 420 406 420 438.6640625 451.555664062 c 4,19,20
 471 483 471 483 517.756835938 483.180664062 c 4,21,22
 564 483 564 483 590.096679688 455.3203125 c 4,23,24
 616 427 616 427 616.139648438 389.810546875 c 4,25,26
 616 352 616 352 584.309570312 322.041992188 c 4,27,28
 552 292 552 292 504.25390625 291.922851562 c 4,29,15
 456 292 456 292 430.94921875 317.5234375 c 132,-1,16
123 65 m 1,30,-1
 123 619 l 1,31,-1
 188 684 l 1,32,-1
 253 619 l 1,33,-1
 253 65 l 1,34,-1
 188 0 l 1,35,-1
 123 65 l 1,30,-1
123 815 m 1,36,-1
 123 1271 l 1,37,-1
 188 1336 l 1,38,-1
 253 1271 l 1,39,-1
 253 815 l 1,40,-1
 188 749 l 1,41,-1
 123 815 l 1,36,-1
221 717 m 1,42,-1
 286 782 l 1,43,-1
 742 782 l 1,44,-1
 807 717 l 1,45,-1
 742 652 l 1,46,-1
 286 652 l 1,47,-1
 221 717 l 1,42,-1
221 1368 m 1,48,-1
 286 1434 l 1,49,-1
 742 1434 l 1,50,-1
 807 1368 l 1,51,-1
 742 1303 l 1,52,-1
 286 1303 l 1,53,-1
 221 1368 l 1,48,-1
775 815 m 1,54,-1
 775 1271 l 1,55,-1
 840 1336 l 1,56,-1
 905 1271 l 1,57,-1
 905 815 l 1,58,-1
 840 749 l 1,59,-1
 775 815 l 1,54,-1
EndSplineSet
EndChar

StartChar: comma
Encoding: 44 44 14
Width: 1028
GlyphClass: 2
Flags: W
LayerCount: 2
Fore
SplineSet
221 65 m 1,0,-1
 286 131 l 1,1,-1
 742 131 l 1,2,-1
 807 65 l 1,3,-1
 742 0 l 1,4,-1
 286 0 l 1,5,-1
 221 65 l 1,0,-1
775 163 m 1,6,-1
 775 619 l 1,7,-1
 840 684 l 1,8,-1
 905 619 l 1,9,-1
 905 163 l 1,10,-1
 840 98 l 1,11,-1
 775 163 l 1,6,-1
EndSplineSet
EndChar

StartChar: hyphen
Encoding: 45 45 15
Width: 1028
GlyphClass: 2
Flags: W
LayerCount: 2
Fore
SplineSet
221 717 m 1,0,-1
 286 782 l 1,1,-1
 742 782 l 1,2,-1
 807 717 l 1,3,-1
 742 652 l 1,4,-1
 286 652 l 1,5,-1
 221 717 l 1,0,-1
EndSplineSet
EndChar

StartChar: period
Encoding: 46 46 16
Width: 1028
GlyphClass: 2
Flags: W
LayerCount: 2
Fore
SplineSet
123 163 m 1,0,-1
 123 619 l 1,1,-1
 188 684 l 1,2,-1
 253 619 l 1,3,-1
 253 163 l 1,4,-1
 188 98 l 1,5,-1
 123 163 l 1,0,-1
221 65 m 1,6,-1
 286 131 l 1,7,-1
 742 131 l 1,8,-1
 807 65 l 1,9,-1
 742 0 l 1,10,-1
 286 0 l 1,11,-1
 221 65 l 1,6,-1
221 717 m 1,12,-1
 286 782 l 1,13,-1
 742 782 l 1,14,-1
 807 717 l 1,15,-1
 742 652 l 1,16,-1
 286 652 l 1,17,-1
 221 717 l 1,12,-1
221 1369 m 1,18,-1
 286 1434 l 1,19,-1
 742 1434 l 1,20,-1
 807 1369 l 1,21,-1
 742 1304 l 1,22,-1
 286 1304 l 1,23,-1
 221 1369 l 1,18,-1
775 163 m 1,24,-1
 775 619 l 1,25,-1
 840 684 l 1,26,-1
 905 619 l 1,27,-1
 905 163 l 1,28,-1
 840 98 l 1,29,-1
 775 163 l 1,24,-1
EndSplineSet
EndChar

StartChar: slash
Encoding: 47 47 17
Width: 1028
GlyphClass: 2
Flags: W
LayerCount: 2
Fore
SplineSet
123 163 m 1,0,-1
 123 619 l 1,1,-1
 188 684 l 1,2,-1
 253 619 l 1,3,-1
 253 163 l 1,4,-1
 188 98 l 1,5,-1
 123 163 l 1,0,-1
221 717 m 1,6,-1
 286 782 l 1,7,-1
 742 782 l 1,8,-1
 807 717 l 1,9,-1
 742 652 l 1,10,-1
 286 652 l 1,11,-1
 221 717 l 1,6,-1
775 815 m 1,12,-1
 775 1271 l 1,13,-1
 840 1336 l 1,14,-1
 905 1271 l 1,15,-1
 905 815 l 1,16,-1
 840 750 l 1,17,-1
 775 815 l 1,12,-1
EndSplineSet
EndChar

StartChar: zero
Encoding: 48 48 18
Width: 1028
GlyphClass: 2
Flags: W
LayerCount: 2
Fore
SplineSet
123 163 m 1,0,-1
 123 619 l 1,1,-1
 188 684 l 1,2,-1
 253 619 l 1,3,-1
 253 163 l 1,4,-1
 188 98 l 1,5,-1
 123 163 l 1,0,-1
123 815 m 1,6,-1
 123 1271 l 1,7,-1
 188 1336 l 1,8,-1
 253 1271 l 1,9,-1
 253 815 l 1,10,-1
 188 750 l 1,11,-1
 123 815 l 1,6,-1
221 65 m 1,12,-1
 286 131 l 1,13,-1
 742 131 l 1,14,-1
 807 65 l 1,15,-1
 742 0 l 1,16,-1
 286 0 l 1,17,-1
 221 65 l 1,12,-1
221 1369 m 1,18,-1
 286 1434 l 1,19,-1
 742 1434 l 1,20,-1
 807 1369 l 1,21,-1
 742 1304 l 1,22,-1
 286 1304 l 1,23,-1
 221 1369 l 1,18,-1
775 163 m 1,24,-1
 775 619 l 1,25,-1
 840 684 l 1,26,-1
 905 619 l 1,27,-1
 905 163 l 1,28,-1
 840 98 l 1,29,-1
 775 163 l 1,24,-1
775 815 m 1,30,-1
 775 1271 l 1,31,-1
 840 1336 l 1,32,-1
 905 1271 l 1,33,-1
 905 815 l 1,34,-1
 840 750 l 1,35,-1
 775 815 l 1,30,-1
EndSplineSet
EndChar

StartChar: one
Encoding: 49 49 19
Width: 376
GlyphClass: 2
Flags: W
LayerCount: 2
Fore
SplineSet
123 65 m 1,0,-1
 123 627 l 1,1,-1
 188 693 l 1,2,-1
 253 627 l 1,3,-1
 253 65 l 1,4,-1
 188 0 l 1,5,-1
 123 65 l 1,0,-1
123 823 m 1,6,-1
 123 1370 l 1,7,-1
 188 1436 l 1,8,-1
 253 1370 l 1,9,-1
 253 823 l 1,10,-1
 188 758 l 1,11,-1
 123 823 l 1,6,-1
EndSplineSet
EndChar

StartChar: two
Encoding: 50 50 20
Width: 1028
GlyphClass: 2
Flags: W
LayerCount: 2
Fore
SplineSet
365.192382812 981.342773438 m 128,-1,1
 340.243164062 1006.81933594 340.243164062 1006.81933594 340.114257812 1045.34667969 c 0,2,3
 340.243164062 1083.81933594 340.243164062 1083.81933594 372.907226562 1115.375 c 0,4,5
 405.243164062 1146.81933594 405.243164062 1146.81933594 452 1147 c 0,6,7
 498.243164062 1146.81933594 498.243164062 1146.81933594 524.33984375 1119.13964844 c 0,8,9
 550.243164062 1090.81933594 550.243164062 1090.81933594 550.3828125 1053.62988281 c 0,10,11
 550.243164062 1015.81933594 550.243164062 1015.81933594 518.552734375 985.861328125 c 0,12,13
 486.243164062 955.819335938 486.243164062 955.819335938 438.497070312 955.7421875 c 0,14,0
 390.243164062 955.819335938 390.243164062 955.819335938 365.192382812 981.342773438 c 128,-1,1
521.192382812 321.342773438 m 4,15,16
 496 347 496 347 496.114257812 385.346679688 c 4,17,18
 496 424 496 424 528.907226562 455.375 c 4,19,20
 561 487 561 487 608 487 c 4,21,22
 654 487 654 487 680.33984375 459.139648438 c 4,23,24
 706 431 706 431 706.3828125 393.629882812 c 4,25,26
 706 356 706 356 674.552734375 325.861328125 c 4,27,28
 642 296 642 296 594.497070312 295.7421875 c 4,29,30
 546 296 546 296 521.192382812 321.342773438 c 4,15,16
123 163 m 1,31,-1
 123 619 l 1,32,-1
 188 684 l 1,33,-1
 253 619 l 1,34,-1
 253 163 l 1,35,-1
 188 98 l 1,36,-1
 123 163 l 1,31,-1
221 65 m 1,37,-1
 286 131 l 1,38,-1
 742 131 l 1,39,-1
 807 65 l 1,40,-1
 742 0 l 1,41,-1
 286 0 l 1,42,-1
 221 65 l 1,37,-1
221 717 m 1,43,-1
 286 782 l 1,44,-1
 742 782 l 1,45,-1
 807 717 l 1,46,-1
 742 652 l 1,47,-1
 286 652 l 1,48,-1
 221 717 l 1,43,-1
221 1369 m 1,49,-1
 286 1434 l 1,50,-1
 742 1434 l 1,51,-1
 807 1369 l 1,52,-1
 742 1304 l 1,53,-1
 286 1304 l 1,54,-1
 221 1369 l 1,49,-1
775 815 m 1,55,-1
 775 1271 l 1,56,-1
 840 1336 l 1,57,-1
 905 1271 l 1,58,-1
 905 815 l 1,59,-1
 840 750 l 1,60,-1
 775 815 l 1,55,-1
EndSplineSet
EndChar

StartChar: three
Encoding: 51 51 21
Width: 931
GlyphClass: 2
Flags: W
LayerCount: 2
Fore
SplineSet
123 65 m 1,0,-1
 188 131 l 1,1,-1
 644 131 l 1,2,-1
 709 65 l 1,3,-1
 644 0 l 1,4,-1
 188 0 l 1,5,-1
 123 65 l 1,0,-1
123 717 m 1,6,-1
 188 782 l 1,7,-1
 644 782 l 1,8,-1
 709 717 l 1,9,-1
 644 652 l 1,10,-1
 188 652 l 1,11,-1
 123 717 l 1,6,-1
123 1369 m 1,12,-1
 188 1434 l 1,13,-1
 644 1434 l 1,14,-1
 709 1369 l 1,15,-1
 644 1304 l 1,16,-1
 188 1304 l 1,17,-1
 123 1369 l 1,12,-1
677 163 m 1,18,-1
 677 619 l 1,19,-1
 742 684 l 1,20,-1
 807 619 l 1,21,-1
 807 163 l 1,22,-1
 742 98 l 1,23,-1
 677 163 l 1,18,-1
677 815 m 1,24,-1
 677 1271 l 1,25,-1
 742 1336 l 1,26,-1
 807 1271 l 1,27,-1
 807 815 l 1,28,-1
 742 750 l 1,29,-1
 677 815 l 1,24,-1
EndSplineSet
EndChar

StartChar: four
Encoding: 52 52 22
Width: 1028
GlyphClass: 2
Flags: W
LayerCount: 2
Fore
SplineSet
123 815 m 1,0,-1
 123 1370 l 1,1,-1
 188 1435 l 1,2,-1
 253 1370 l 1,3,-1
 253 815 l 1,4,-1
 188 750 l 1,5,-1
 123 815 l 1,0,-1
221 717 m 1,6,-1
 286 782 l 1,7,-1
 742 782 l 1,8,-1
 807 717 l 1,9,-1
 742 652 l 1,10,-1
 286 652 l 1,11,-1
 221 717 l 1,6,-1
775 64 m 1,12,-1
 775 619 l 1,13,-1
 840 684 l 1,14,-1
 905 619 l 1,15,-1
 905 64 l 1,16,-1
 840 -1 l 1,17,-1
 775 64 l 1,12,-1
775 815 m 1,18,-1
 775 1370 l 1,19,-1
 840 1435 l 1,20,-1
 905 1370 l 1,21,-1
 905 815 l 1,22,-1
 840 750 l 1,23,-1
 775 815 l 1,18,-1
EndSplineSet
EndChar

StartChar: five
Encoding: 53 53 23
Width: 1028
GlyphClass: 2
Flags: W
LayerCount: 2
Fore
SplineSet
518.192382812 987.342773438 m 128,-1,1
 493.243164062 1012.81933594 493.243164062 1012.81933594 493.114257812 1051.34667969 c 0,2,3
 493.243164062 1089.81933594 493.243164062 1089.81933594 525.907226562 1121.375 c 0,4,5
 558.243164062 1152.81933594 558.243164062 1152.81933594 605 1153 c 0,6,7
 651.243164062 1152.81933594 651.243164062 1152.81933594 677.33984375 1125.13964844 c 0,8,9
 703.243164062 1096.81933594 703.243164062 1096.81933594 703.3828125 1059.62988281 c 0,10,11
 703.243164062 1021.81933594 703.243164062 1021.81933594 671.552734375 991.861328125 c 0,12,13
 639.243164062 961.819335938 639.243164062 961.819335938 591.497070312 961.7421875 c 0,14,0
 543.243164062 961.819335938 543.243164062 961.819335938 518.192382812 987.342773438 c 128,-1,1
416.192382812 315.342773438 m 0,15,16
 391 341 391 341 391.114257812 379.346679688 c 0,17,18
 391 418 391 418 423.907226562 449.375 c 0,19,20
 456 481 456 481 503 481 c 0,21,22
 549 481 549 481 575.33984375 453.139648438 c 0,23,24
 601 425 601 425 601.3828125 387.629882812 c 0,25,26
 601 350 601 350 569.552734375 319.861328125 c 0,27,28
 537 290 537 290 489.497070312 289.7421875 c 0,29,30
 441 290 441 290 416.192382812 315.342773438 c 0,15,16
123 815 m 1,31,-1
 123 1271 l 1,32,-1
 188 1336 l 1,33,-1
 253 1271 l 1,34,-1
 253 815 l 1,35,-1
 188 750 l 1,36,-1
 123 815 l 1,31,-1
221 65 m 1,37,-1
 286 131 l 1,38,-1
 742 131 l 1,39,-1
 807 65 l 1,40,-1
 742 0 l 1,41,-1
 286 0 l 1,42,-1
 221 65 l 1,37,-1
221 717 m 1,43,-1
 286 782 l 1,44,-1
 742 782 l 1,45,-1
 807 717 l 1,46,-1
 742 652 l 1,47,-1
 286 652 l 1,48,-1
 221 717 l 1,43,-1
221 1369 m 1,49,-1
 286 1434 l 1,50,-1
 742 1434 l 1,51,-1
 807 1369 l 1,52,-1
 742 1304 l 1,53,-1
 286 1304 l 1,54,-1
 221 1369 l 1,49,-1
775 163 m 1,55,-1
 775 619 l 1,56,-1
 840 684 l 1,57,-1
 905 619 l 1,58,-1
 905 163 l 1,59,-1
 840 98 l 1,60,-1
 775 163 l 1,55,-1
EndSplineSet
EndChar

StartChar: six
Encoding: 54 54 24
Width: 1028
GlyphClass: 2
Flags: W
LayerCount: 2
Fore
SplineSet
123 163 m 1,0,-1
 123 619 l 1,1,-1
 188 684 l 1,2,-1
 253 619 l 1,3,-1
 253 163 l 1,4,-1
 188 98 l 1,5,-1
 123 163 l 1,0,-1
123 815 m 1,6,-1
 123 1271 l 1,7,-1
 188 1336 l 1,8,-1
 253 1271 l 1,9,-1
 253 815 l 1,10,-1
 188 750 l 1,11,-1
 123 815 l 1,6,-1
221 65 m 1,12,-1
 286 131 l 1,13,-1
 742 131 l 1,14,-1
 807 65 l 1,15,-1
 742 0 l 1,16,-1
 286 0 l 1,17,-1
 221 65 l 1,12,-1
221 717 m 1,18,-1
 286 782 l 1,19,-1
 742 782 l 1,20,-1
 807 717 l 1,21,-1
 742 652 l 1,22,-1
 286 652 l 1,23,-1
 221 717 l 1,18,-1
221 1369 m 1,24,-1
 286 1434 l 1,25,-1
 742 1434 l 1,26,-1
 807 1369 l 1,27,-1
 742 1304 l 1,28,-1
 286 1304 l 1,29,-1
 221 1369 l 1,24,-1
775 163 m 1,30,-1
 775 619 l 1,31,-1
 840 684 l 1,32,-1
 905 619 l 1,33,-1
 905 163 l 1,34,-1
 840 98 l 1,35,-1
 775 163 l 1,30,-1
EndSplineSet
EndChar

StartChar: seven
Encoding: 55 55 25
Width: 1028
GlyphClass: 2
Flags: W
LayerCount: 2
Fore
SplineSet
123 815 m 1,0,-1
 123 1271 l 1,1,-1
 188 1336 l 1,2,-1
 253 1271 l 1,3,-1
 253 815 l 1,4,-1
 188 750 l 1,5,-1
 123 815 l 1,0,-1
221 1369 m 1,6,-1
 286 1434 l 1,7,-1
 742 1434 l 1,8,-1
 807 1369 l 1,9,-1
 742 1304 l 1,10,-1
 286 1304 l 1,11,-1
 221 1369 l 1,6,-1
775 163 m 1,12,-1
 775 619 l 1,13,-1
 840 684 l 1,14,-1
 905 619 l 1,15,-1
 905 163 l 1,16,-1
 840 98 l 1,17,-1
 775 163 l 1,12,-1
775 815 m 1,18,-1
 775 1271 l 1,19,-1
 840 1336 l 1,20,-1
 905 1271 l 1,21,-1
 905 815 l 1,22,-1
 840 750 l 1,23,-1
 775 815 l 1,18,-1
EndSplineSet
EndChar

StartChar: eight
Encoding: 56 56 26
Width: 1028
GlyphClass: 2
Flags: W
LayerCount: 2
Fore
SplineSet
123 163 m 1,0,-1
 123 619 l 1,1,-1
 188 684 l 1,2,-1
 253 619 l 1,3,-1
 253 163 l 1,4,-1
 188 98 l 1,5,-1
 123 163 l 1,0,-1
123 815 m 1,6,-1
 123 1271 l 1,7,-1
 188 1336 l 1,8,-1
 253 1271 l 1,9,-1
 253 815 l 1,10,-1
 188 750 l 1,11,-1
 123 815 l 1,6,-1
221 65 m 1,12,-1
 286 131 l 1,13,-1
 742 131 l 1,14,-1
 807 65 l 1,15,-1
 742 0 l 1,16,-1
 286 0 l 1,17,-1
 221 65 l 1,12,-1
221 717 m 1,18,-1
 286 782 l 1,19,-1
 742 782 l 1,20,-1
 807 717 l 1,21,-1
 742 652 l 1,22,-1
 286 652 l 1,23,-1
 221 717 l 1,18,-1
221 1369 m 1,24,-1
 286 1434 l 1,25,-1
 742 1434 l 1,26,-1
 807 1369 l 1,27,-1
 742 1304 l 1,28,-1
 286 1304 l 1,29,-1
 221 1369 l 1,24,-1
775 163 m 1,30,-1
 775 619 l 1,31,-1
 840 684 l 1,32,-1
 905 619 l 1,33,-1
 905 163 l 1,34,-1
 840 98 l 1,35,-1
 775 163 l 1,30,-1
775 815 m 1,36,-1
 775 1271 l 1,37,-1
 840 1336 l 1,38,-1
 905 1271 l 1,39,-1
 905 815 l 1,40,-1
 840 750 l 1,41,-1
 775 815 l 1,36,-1
EndSplineSet
EndChar

StartChar: nine
Encoding: 57 57 27
Width: 1028
GlyphClass: 2
Flags: W
LayerCount: 2
Fore
SplineSet
431.192382812 978.342773438 m 128,-1,1
 406.243164062 1003.81933594 406.243164062 1003.81933594 406.114257812 1042.34667969 c 0,2,3
 406.243164062 1080.81933594 406.243164062 1080.81933594 438.907226562 1112.375 c 0,4,5
 471.243164062 1143.81933594 471.243164062 1143.81933594 518 1144 c 0,6,7
 564.243164062 1143.81933594 564.243164062 1143.81933594 590.33984375 1116.13964844 c 0,8,9
 616.243164062 1087.81933594 616.243164062 1087.81933594 616.3828125 1050.62988281 c 0,10,11
 616.243164062 1012.81933594 616.243164062 1012.81933594 584.552734375 982.861328125 c 0,12,13
 552.243164062 952.819335938 552.243164062 952.819335938 504.497070312 952.7421875 c 0,14,0
 456.243164062 952.819335938 456.243164062 952.819335938 431.192382812 978.342773438 c 128,-1,1
368.28515625 340.967773438 m 4,15,16
 343 366 343 366 343.20703125 404.971679688 c 4,17,18
 343 443 343 443 376 475 c 132,-1,19
 409 507 409 507 455.092773438 506.625 c 4,20,21
 503 506 503 506 527.432617188 478.764648438 c 4,22,23
 553 450 553 450 553.475585938 413.254882812 c 4,24,25
 553 375 553 375 521.645507812 345.486328125 c 4,26,27
 489 315 489 315 441.58984375 315.3671875 c 4,28,29
 393 315 393 315 368.28515625 340.967773438 c 4,15,16
123 815 m 1,30,-1
 123 1271 l 1,31,-1
 188 1336 l 1,32,-1
 253 1271 l 1,33,-1
 253 815 l 1,34,-1
 188 750 l 1,35,-1
 123 815 l 1,30,-1
221 65 m 1,36,-1
 286 131 l 1,37,-1
 742 131 l 1,38,-1
 807 65 l 1,39,-1
 742 0 l 1,40,-1
 286 0 l 1,41,-1
 221 65 l 1,36,-1
221 717 m 1,42,-1
 286 782 l 1,43,-1
 742 782 l 1,44,-1
 807 717 l 1,45,-1
 742 652 l 1,46,-1
 286 652 l 1,47,-1
 221 717 l 1,42,-1
221 1369 m 1,48,-1
 286 1434 l 1,49,-1
 742 1434 l 1,50,-1
 807 1369 l 1,51,-1
 742 1304 l 1,52,-1
 286 1304 l 1,53,-1
 221 1369 l 1,48,-1
775 163 m 1,54,-1
 775 619 l 1,55,-1
 840 684 l 1,56,-1
 905 619 l 1,57,-1
 905 163 l 1,58,-1
 840 98 l 1,59,-1
 775 163 l 1,54,-1
775 815 m 1,60,-1
 775 1271 l 1,61,-1
 840 1336 l 1,62,-1
 905 1271 l 1,63,-1
 905 815 l 1,64,-1
 840 750 l 1,65,-1
 775 815 l 1,60,-1
EndSplineSet
EndChar

StartChar: colon
Encoding: 58 58 28
Width: 1028
GlyphClass: 2
Flags: W
LayerCount: 2
Fore
SplineSet
431.192382812 912.342773438 m 132,-1,1
 406.243164062 937.819335938 406.243164062 937.819335938 406.114257812 976.346679688 c 4,2,3
 406.243164062 1014.81933594 406.243164062 1014.81933594 438.907226562 1046.375 c 4,4,5
 471.243164062 1077.81933594 471.243164062 1077.81933594 518 1078 c 4,6,7
 564.243164062 1077.81933594 564.243164062 1077.81933594 590.33984375 1050.13964844 c 4,8,9
 616.243164062 1021.81933594 616.243164062 1021.81933594 616.3828125 984.629882812 c 4,10,11
 616.243164062 946.819335938 616.243164062 946.819335938 584.552734375 916.861328125 c 4,12,13
 552.243164062 886.819335938 552.243164062 886.819335938 504.497070312 886.7421875 c 4,14,0
 456.243164062 886.819335938 456.243164062 886.819335938 431.192382812 912.342773438 c 132,-1,1
430.94921875 260.5234375 m 132,-1,16
 406 286 406 286 405.87109375 324.52734375 c 4,17,18
 406 363 406 363 438.6640625 394.555664062 c 4,19,20
 471 426 471 426 517.756835938 426.180664062 c 4,21,22
 564 426 564 426 590.096679688 398.3203125 c 4,23,24
 616 370 616 370 616.139648438 332.810546875 c 4,25,26
 616 295 616 295 584.309570312 265.041992188 c 4,27,28
 552 235 552 235 504.25390625 234.922851562 c 4,29,15
 456 235 456 235 430.94921875 260.5234375 c 132,-1,16
EndSplineSet
EndChar

StartChar: less
Encoding: 60 60 29
Width: 1028
GlyphClass: 2
Flags: W
LayerCount: 2
Fore
SplineSet
123 163 m 1,0,-1
 123 619 l 1,1,-1
 188 684 l 1,2,-1
 253 619 l 1,3,-1
 253 163 l 1,4,-1
 188 98 l 1,5,-1
 123 163 l 1,0,-1
221 65 m 1,6,-1
 286 131 l 1,7,-1
 742 131 l 1,8,-1
 807 65 l 1,9,-1
 742 0 l 1,10,-1
 286 0 l 1,11,-1
 221 65 l 1,6,-1
221 717 m 1,12,-1
 286 782 l 1,13,-1
 742 782 l 1,14,-1
 807 717 l 1,15,-1
 742 652 l 1,16,-1
 286 652 l 1,17,-1
 221 717 l 1,12,-1
EndSplineSet
EndChar

StartChar: equal
Encoding: 61 61 30
Width: 1028
GlyphClass: 2
Flags: W
LayerCount: 2
Fore
SplineSet
221 65 m 1,0,-1
 286 131 l 1,1,-1
 742 131 l 1,2,-1
 807 65 l 1,3,-1
 742 0 l 1,4,-1
 286 0 l 1,5,-1
 221 65 l 1,0,-1
221 717 m 1,6,-1
 286 782 l 1,7,-1
 742 782 l 1,8,-1
 807 717 l 1,9,-1
 742 652 l 1,10,-1
 286 652 l 1,11,-1
 221 717 l 1,6,-1
EndSplineSet
EndChar

StartChar: greater
Encoding: 62 62 31
Width: 1028
GlyphClass: 2
Flags: W
LayerCount: 2
Fore
SplineSet
123 815 m 1,0,-1
 123 1271 l 1,1,-1
 188 1336 l 1,2,-1
 253 1271 l 1,3,-1
 253 815 l 1,4,-1
 188 750 l 1,5,-1
 123 815 l 1,0,-1
221 717 m 1,6,-1
 286 782 l 1,7,-1
 742 782 l 1,8,-1
 807 717 l 1,9,-1
 742 652 l 1,10,-1
 286 652 l 1,11,-1
 221 717 l 1,6,-1
221 1369 m 1,12,-1
 286 1434 l 1,13,-1
 742 1434 l 1,14,-1
 807 1369 l 1,15,-1
 742 1304 l 1,16,-1
 286 1304 l 1,17,-1
 221 1369 l 1,12,-1
775 163 m 1,18,-1
 775 619 l 1,19,-1
 840 684 l 1,20,-1
 905 619 l 1,21,-1
 905 163 l 1,22,-1
 840 98 l 1,23,-1
 775 163 l 1,18,-1
775 815 m 1,24,-1
 775 1271 l 1,25,-1
 840 1336 l 1,26,-1
 905 1271 l 1,27,-1
 905 815 l 1,28,-1
 840 750 l 1,29,-1
 775 815 l 1,24,-1
EndSplineSet
EndChar

StartChar: question
Encoding: 63 63 32
Width: 1028
GlyphClass: 2
Flags: W
LayerCount: 2
Fore
SplineSet
123 163 m 1,0,-1
 123 619 l 1,1,-1
 188 684 l 1,2,-1
 253 619 l 1,3,-1
 253 163 l 1,4,-1
 188 98 l 1,5,-1
 123 163 l 1,0,-1
221 717 m 1,6,-1
 286 782 l 1,7,-1
 742 782 l 1,8,-1
 807 717 l 1,9,-1
 742 652 l 1,10,-1
 286 652 l 1,11,-1
 221 717 l 1,6,-1
221 1369 m 1,12,-1
 286 1434 l 1,13,-1
 742 1434 l 1,14,-1
 807 1369 l 1,15,-1
 742 1304 l 1,16,-1
 286 1304 l 1,17,-1
 221 1369 l 1,12,-1
775 815 m 1,18,-1
 775 1271 l 1,19,-1
 840 1336 l 1,20,-1
 905 1271 l 1,21,-1
 905 815 l 1,22,-1
 840 750 l 1,23,-1
 775 815 l 1,18,-1
EndSplineSet
EndChar

StartChar: at
Encoding: 64 64 33
Width: 1028
GlyphClass: 2
Flags: W
LayerCount: 2
Fore
SplineSet
377.192382812 987.342773438 m 128,-1,1
 352.243164062 1012.81933594 352.243164062 1012.81933594 352.114257812 1051.34667969 c 0,2,3
 352.243164062 1089.81933594 352.243164062 1089.81933594 384.907226562 1121.375 c 0,4,5
 417.243164062 1152.81933594 417.243164062 1152.81933594 464 1153 c 0,6,7
 510.243164062 1152.81933594 510.243164062 1152.81933594 536.33984375 1125.13964844 c 0,8,9
 562.243164062 1096.81933594 562.243164062 1096.81933594 562.3828125 1059.62988281 c 0,10,11
 562.243164062 1021.81933594 562.243164062 1021.81933594 530.552734375 991.861328125 c 0,12,13
 498.243164062 961.819335938 498.243164062 961.819335938 450.497070312 961.7421875 c 0,14,0
 402.243164062 961.819335938 402.243164062 961.819335938 377.192382812 987.342773438 c 128,-1,1
427.94921875 344.5234375 m 128,-1,16
 403 370 403 370 402.87109375 408.52734375 c 0,17,18
 403 447 403 447 435.6640625 478.555664062 c 0,19,20
 468 510 468 510 514.756835938 510.180664062 c 0,21,22
 561 510 561 510 587.096679688 482.3203125 c 0,23,24
 613 454 613 454 613.139648438 416.810546875 c 0,25,26
 613 379 613 379 581.309570312 349.041992188 c 0,27,28
 549 319 549 319 501.25390625 318.922851562 c 0,29,15
 453 319 453 319 427.94921875 344.5234375 c 128,-1,16
123 163 m 1,30,-1
 123 619 l 1,31,-1
 188 684 l 1,32,-1
 253 619 l 1,33,-1
 253 163 l 1,34,-1
 188 98 l 1,35,-1
 123 163 l 1,30,-1
221 65 m 1,36,-1
 286 131 l 1,37,-1
 742 131 l 1,38,-1
 807 65 l 1,39,-1
 742 0 l 1,40,-1
 286 0 l 1,41,-1
 221 65 l 1,36,-1
221 717 m 1,42,-1
 286 782 l 1,43,-1
 742 782 l 1,44,-1
 807 717 l 1,45,-1
 742 652 l 1,46,-1
 286 652 l 1,47,-1
 221 717 l 1,42,-1
221 1369 m 1,48,-1
 286 1434 l 1,49,-1
 742 1434 l 1,50,-1
 807 1369 l 1,51,-1
 742 1304 l 1,52,-1
 286 1304 l 1,53,-1
 221 1369 l 1,48,-1
775 163 m 1,54,-1
 775 619 l 1,55,-1
 840 684 l 1,56,-1
 905 619 l 1,57,-1
 905 163 l 1,58,-1
 840 98 l 1,59,-1
 775 163 l 1,54,-1
775 815 m 1,60,-1
 775 1271 l 1,61,-1
 840 1336 l 1,62,-1
 905 1271 l 1,63,-1
 905 815 l 1,64,-1
 840 750 l 1,65,-1
 775 815 l 1,60,-1
EndSplineSet
EndChar

StartChar: B
Encoding: 66 66 34
Width: 1028
GlyphClass: 2
Flags: W
LayerCount: 2
Fore
SplineSet
431.192382812 986.342773438 m 132,-1,1
 406.243164062 1011.81933594 406.243164062 1011.81933594 406.114257812 1050.34667969 c 4,2,3
 406.243164062 1088.81933594 406.243164062 1088.81933594 438.907226562 1120.375 c 4,4,5
 471.243164062 1151.81933594 471.243164062 1151.81933594 518 1152 c 4,6,7
 564.243164062 1151.81933594 564.243164062 1151.81933594 590.33984375 1124.13964844 c 4,8,9
 616.243164062 1095.81933594 616.243164062 1095.81933594 616.3828125 1058.62988281 c 4,10,11
 616.243164062 1020.81933594 616.243164062 1020.81933594 584.552734375 990.861328125 c 4,12,13
 552.243164062 960.819335938 552.243164062 960.819335938 504.497070312 960.7421875 c 4,14,0
 456.243164062 960.819335938 456.243164062 960.819335938 431.192382812 986.342773438 c 132,-1,1
430.94921875 334.5234375 m 132,-1,16
 406 360 406 360 405.87109375 398.52734375 c 4,17,18
 406 437 406 437 438.6640625 468.555664062 c 4,19,20
 471 500 471 500 517.756835938 500.180664062 c 4,21,22
 564 500 564 500 590.096679688 472.3203125 c 4,23,24
 616 444 616 444 616.139648438 406.810546875 c 4,25,26
 616 369 616 369 584.309570312 339.041992188 c 4,27,28
 552 309 552 309 504.25390625 308.922851562 c 4,29,15
 456 309 456 309 430.94921875 334.5234375 c 132,-1,16
123 163 m 1,30,-1
 123 619 l 1,31,-1
 188 684 l 1,32,-1
 253 619 l 1,33,-1
 253 163 l 1,34,-1
 188 98 l 1,35,-1
 123 163 l 1,30,-1
123 815 m 1,36,-1
 123 1271 l 1,37,-1
 188 1336 l 1,38,-1
 253 1271 l 1,39,-1
 253 815 l 1,40,-1
 188 750 l 1,41,-1
 123 815 l 1,36,-1
221 65 m 1,42,-1
 286 131 l 1,43,-1
 742 131 l 1,44,-1
 807 65 l 1,45,-1
 742 0 l 1,46,-1
 286 0 l 1,47,-1
 221 65 l 1,42,-1
221 717 m 1,48,-1
 286 782 l 1,49,-1
 742 782 l 1,50,-1
 807 717 l 1,51,-1
 742 652 l 1,52,-1
 286 652 l 1,53,-1
 221 717 l 1,48,-1
775 163 m 1,54,-1
 775 619 l 1,55,-1
 840 684 l 1,56,-1
 905 619 l 1,57,-1
 905 163 l 1,58,-1
 840 98 l 1,59,-1
 775 163 l 1,54,-1
EndSplineSet
EndChar

StartChar: C
Encoding: 67 67 35
Width: 1028
GlyphClass: 2
Flags: W
LayerCount: 2
Fore
SplineSet
123 815 m 1,0,-1
 123 1271 l 1,1,-1
 188 1336 l 1,2,-1
 253 1271 l 1,3,-1
 253 815 l 1,4,-1
 188 750 l 1,5,-1
 123 815 l 1,0,-1
221 65 m 1,6,-1
 286 131 l 1,7,-1
 742 131 l 1,8,-1
 807 65 l 1,9,-1
 742 0 l 1,10,-1
 286 0 l 1,11,-1
 221 65 l 1,6,-1
221 717 m 1,12,-1
 286 782 l 1,13,-1
 742 782 l 1,14,-1
 807 717 l 1,15,-1
 742 652 l 1,16,-1
 286 652 l 1,17,-1
 221 717 l 1,12,-1
221 1369 m 1,18,-1
 286 1434 l 1,19,-1
 742 1434 l 1,20,-1
 807 1369 l 1,21,-1
 742 1304 l 1,22,-1
 286 1304 l 1,23,-1
 221 1369 l 1,18,-1
EndSplineSet
EndChar

StartChar: D
Encoding: 68 68 36
Width: 1028
GlyphClass: 2
Flags: W
LayerCount: 2
Fore
SplineSet
371.192382812 1095.34277344 m 132,-1,1
 346.243164062 1120.81933594 346.243164062 1120.81933594 346.114257812 1159.34667969 c 4,2,3
 346.243164062 1197.81933594 346.243164062 1197.81933594 378.907226562 1229.375 c 4,4,5
 411.243164062 1260.81933594 411.243164062 1260.81933594 458 1261 c 4,6,7
 504.243164062 1260.81933594 504.243164062 1260.81933594 530.33984375 1233.13964844 c 4,8,9
 556.243164062 1204.81933594 556.243164062 1204.81933594 556.3828125 1167.62988281 c 4,10,11
 556.243164062 1129.81933594 556.243164062 1129.81933594 524.552734375 1099.86132812 c 4,12,13
 492.243164062 1069.81933594 492.243164062 1069.81933594 444.497070312 1069.7421875 c 4,14,0
 396.243164062 1069.81933594 396.243164062 1069.81933594 371.192382812 1095.34277344 c 132,-1,1
440.192382812 330.342773438 m 0,15,16
 415 356 415 356 415.114257812 394.346679688 c 0,17,18
 415 433 415 433 447.907226562 464.375 c 0,19,20
 480 496 480 496 527 496 c 0,21,22
 573 496 573 496 599.33984375 468.139648438 c 0,23,24
 625 440 625 440 625.3828125 402.629882812 c 0,25,26
 625 365 625 365 593.552734375 334.861328125 c 0,27,28
 561 305 561 305 513.497070312 304.7421875 c 0,29,30
 465 305 465 305 440.192382812 330.342773438 c 0,15,16
123 163 m 1,31,-1
 123 619 l 1,32,-1
 188 684 l 1,33,-1
 253 619 l 1,34,-1
 253 163 l 1,35,-1
 188 98 l 1,36,-1
 123 163 l 1,31,-1
221 65 m 1,37,-1
 286 131 l 1,38,-1
 742 131 l 1,39,-1
 807 65 l 1,40,-1
 742 0 l 1,41,-1
 286 0 l 1,42,-1
 221 65 l 1,37,-1
221 717 m 1,43,-1
 286 782 l 1,44,-1
 742 782 l 1,45,-1
 807 717 l 1,46,-1
 742 652 l 1,47,-1
 286 652 l 1,48,-1
 221 717 l 1,43,-1
775 163 m 1,49,-1
 775 619 l 1,50,-1
 840 684 l 1,51,-1
 905 619 l 1,52,-1
 905 163 l 1,53,-1
 840 98 l 1,54,-1
 775 163 l 1,49,-1
775 815 m 1,55,-1
 775 1271 l 1,56,-1
 840 1336 l 1,57,-1
 905 1271 l 1,58,-1
 905 815 l 1,59,-1
 840 750 l 1,60,-1
 775 815 l 1,55,-1
EndSplineSet
EndChar

StartChar: F
Encoding: 70 70 37
Width: 931
GlyphClass: 2
Flags: W
LayerCount: 2
Fore
SplineSet
123 65 m 1,0,-1
 123 619 l 1,1,-1
 188 685 l 1,2,-1
 253 619 l 1,3,-1
 253 65 l 1,4,-1
 188 0 l 1,5,-1
 123 65 l 1,0,-1
123 815 m 1,6,-1
 123 1271 l 1,7,-1
 188 1336 l 1,8,-1
 253 1271 l 1,9,-1
 253 815 l 1,10,-1
 188 750 l 1,11,-1
 123 815 l 1,6,-1
221 717 m 1,12,-1
 286 782 l 1,13,-1
 742 782 l 1,14,-1
 807 717 l 1,15,-1
 742 652 l 1,16,-1
 286 652 l 1,17,-1
 221 717 l 1,12,-1
221 1369 m 1,18,-1
 286 1434 l 1,19,-1
 742 1434 l 1,20,-1
 807 1369 l 1,21,-1
 742 1304 l 1,22,-1
 286 1304 l 1,23,-1
 221 1369 l 1,18,-1
EndSplineSet
EndChar

StartChar: G
Encoding: 71 71 38
Width: 1028
GlyphClass: 2
Flags: W
LayerCount: 2
Fore
SplineSet
221 65 m 1,0,-1
 286 131 l 1,1,-1
 742 131 l 1,2,-1
 807 65 l 1,3,-1
 742 0 l 1,4,-1
 286 0 l 1,5,-1
 221 65 l 1,0,-1
221 717 m 1,6,-1
 286 782 l 1,7,-1
 742 782 l 1,8,-1
 807 717 l 1,9,-1
 742 652 l 1,10,-1
 286 652 l 1,11,-1
 221 717 l 1,6,-1
221 1369 m 1,12,-1
 286 1434 l 1,13,-1
 742 1434 l 1,14,-1
 807 1369 l 1,15,-1
 742 1304 l 1,16,-1
 286 1304 l 1,17,-1
 221 1369 l 1,12,-1
775 815 m 1,18,-1
 775 1271 l 1,19,-1
 840 1336 l 1,20,-1
 905 1271 l 1,21,-1
 905 815 l 1,22,-1
 840 750 l 1,23,-1
 775 815 l 1,18,-1
EndSplineSet
EndChar

StartChar: H
Encoding: 72 72 39
Width: 1028
GlyphClass: 2
Flags: W
LayerCount: 2
Fore
SplineSet
123 65 m 1,0,-1
 123 619 l 1,1,-1
 188 684 l 1,2,-1
 253 619 l 1,3,-1
 253 65 l 1,4,-1
 188 0 l 1,5,-1
 123 65 l 1,0,-1
123 814 m 1,6,-1
 123 1368 l 1,7,-1
 188 1433 l 1,8,-1
 253 1368 l 1,9,-1
 253 814 l 1,10,-1
 188 749 l 1,11,-1
 123 814 l 1,6,-1
221 717 m 1,12,-1
 286 782 l 1,13,-1
 742 782 l 1,14,-1
 807 717 l 1,15,-1
 742 652 l 1,16,-1
 286 652 l 1,17,-1
 221 717 l 1,12,-1
775 65 m 1,18,-1
 775 619 l 1,19,-1
 840 684 l 1,20,-1
 905 619 l 1,21,-1
 905 65 l 1,22,-1
 840 0 l 1,23,-1
 775 65 l 1,18,-1
775 814 m 1,24,-1
 775 1368 l 1,25,-1
 840 1433 l 1,26,-1
 905 1368 l 1,27,-1
 905 814 l 1,28,-1
 840 749 l 1,29,-1
 775 814 l 1,24,-1
EndSplineSet
EndChar

StartChar: J
Encoding: 74 74 40
Width: 1028
GlyphClass: 2
Flags: W
LayerCount: 2
Fore
SplineSet
123 163 m 1,0,-1
 123 619 l 1,1,-1
 188 684 l 1,2,-1
 253 619 l 1,3,-1
 253 163 l 1,4,-1
 188 98 l 1,5,-1
 123 163 l 1,0,-1
221 65 m 1,6,-1
 286 131 l 1,7,-1
 742 131 l 1,8,-1
 807 65 l 1,9,-1
 742 0 l 1,10,-1
 286 0 l 1,11,-1
 221 65 l 1,6,-1
221 1369 m 1,12,-1
 286 1434 l 1,13,-1
 742 1434 l 1,14,-1
 807 1369 l 1,15,-1
 742 1304 l 1,16,-1
 286 1304 l 1,17,-1
 221 1369 l 1,12,-1
775 163 m 1,18,-1
 775 619 l 1,19,-1
 840 684 l 1,20,-1
 905 619 l 1,21,-1
 905 163 l 1,22,-1
 840 98 l 1,23,-1
 775 163 l 1,18,-1
775 815 m 1,24,-1
 775 1271 l 1,25,-1
 840 1336 l 1,26,-1
 905 1271 l 1,27,-1
 905 815 l 1,28,-1
 840 750 l 1,29,-1
 775 815 l 1,24,-1
EndSplineSet
EndChar

StartChar: K
Encoding: 75 75 41
Width: 1028
GlyphClass: 2
Flags: W
LayerCount: 2
Fore
SplineSet
431.192382812 912.342773438 m 132,-1,1
 406.243164062 937.819335938 406.243164062 937.819335938 406.114257812 976.346679688 c 4,2,3
 406.243164062 1014.81933594 406.243164062 1014.81933594 438.907226562 1046.375 c 4,4,5
 471.243164062 1077.81933594 471.243164062 1077.81933594 518 1078 c 4,6,7
 564.243164062 1077.81933594 564.243164062 1077.81933594 590.33984375 1050.13964844 c 4,8,9
 616.243164062 1021.81933594 616.243164062 1021.81933594 616.3828125 984.629882812 c 4,10,11
 616.243164062 946.819335938 616.243164062 946.819335938 584.552734375 916.861328125 c 4,12,13
 552.243164062 886.819335938 552.243164062 886.819335938 504.497070312 886.7421875 c 4,14,0
 456.243164062 886.819335938 456.243164062 886.819335938 431.192382812 912.342773438 c 132,-1,1
430.94921875 260.5234375 m 132,-1,16
 406 286 406 286 405.87109375 324.52734375 c 4,17,18
 406 363 406 363 438.6640625 394.555664062 c 4,19,20
 471 426 471 426 517.756835938 426.180664062 c 4,21,22
 564 426 564 426 590.096679688 398.3203125 c 4,23,24
 616 370 616 370 616.139648438 332.810546875 c 4,25,26
 616 295 616 295 584.309570312 265.041992188 c 4,27,28
 552 235 552 235 504.25390625 234.922851562 c 4,29,15
 456 235 456 235 430.94921875 260.5234375 c 132,-1,16
123 163 m 1,30,-1
 123 619 l 1,31,-1
 188 684 l 1,32,-1
 253 619 l 1,33,-1
 253 163 l 1,34,-1
 188 98 l 1,35,-1
 123 163 l 1,30,-1
123 815 m 1,36,-1
 123 1271 l 1,37,-1
 188 1336 l 1,38,-1
 253 1271 l 1,39,-1
 253 815 l 1,40,-1
 188 750 l 1,41,-1
 123 815 l 1,36,-1
221 717 m 1,42,-1
 286 782 l 1,43,-1
 742 782 l 1,44,-1
 807 717 l 1,45,-1
 742 652 l 1,46,-1
 286 652 l 1,47,-1
 221 717 l 1,42,-1
EndSplineSet
EndChar

StartChar: L
Encoding: 76 76 42
Width: 1028
GlyphClass: 2
Flags: W
LayerCount: 2
Fore
SplineSet
123 163 m 1,0,-1
 123 619 l 1,1,-1
 188 684 l 1,2,-1
 253 619 l 1,3,-1
 253 163 l 1,4,-1
 188 98 l 1,5,-1
 123 163 l 1,0,-1
123 815 m 1,6,-1
 123 1271 l 1,7,-1
 188 1336 l 1,8,-1
 253 1271 l 1,9,-1
 253 815 l 1,10,-1
 188 750 l 1,11,-1
 123 815 l 1,6,-1
221 65 m 1,12,-1
 286 131 l 1,13,-1
 742 131 l 1,14,-1
 807 65 l 1,15,-1
 742 0 l 1,16,-1
 286 0 l 1,17,-1
 221 65 l 1,12,-1
221 1369 m 1,18,-1
 286 1434 l 1,19,-1
 742 1434 l 1,20,-1
 807 1369 l 1,21,-1
 742 1304 l 1,22,-1
 286 1304 l 1,23,-1
 221 1369 l 1,18,-1
775 815 m 1,24,-1
 775 1271 l 1,25,-1
 840 1336 l 1,26,-1
 905 1271 l 1,27,-1
 905 815 l 1,28,-1
 840 750 l 1,29,-1
 775 815 l 1,24,-1
EndSplineSet
EndChar

StartChar: M
Encoding: 77 77 43
Width: 1028
GlyphClass: 2
Flags: W
LayerCount: 2
Fore
SplineSet
431.192382812 912.342773438 m 132,-1,1
 406.243164062 937.819335938 406.243164062 937.819335938 406.114257812 976.346679688 c 4,2,3
 406.243164062 1014.81933594 406.243164062 1014.81933594 438.907226562 1046.375 c 4,4,5
 471.243164062 1077.81933594 471.243164062 1077.81933594 518 1078 c 4,6,7
 564.243164062 1077.81933594 564.243164062 1077.81933594 590.33984375 1050.13964844 c 4,8,9
 616.243164062 1021.81933594 616.243164062 1021.81933594 616.3828125 984.629882812 c 4,10,11
 616.243164062 946.819335938 616.243164062 946.819335938 584.552734375 916.861328125 c 4,12,13
 552.243164062 886.819335938 552.243164062 886.819335938 504.497070312 886.7421875 c 4,14,0
 456.243164062 886.819335938 456.243164062 886.819335938 431.192382812 912.342773438 c 132,-1,1
430.94921875 260.5234375 m 132,-1,16
 406 286 406 286 405.87109375 324.52734375 c 4,17,18
 406 363 406 363 438.6640625 394.555664062 c 4,19,20
 471 426 471 426 517.756835938 426.180664062 c 4,21,22
 564 426 564 426 590.096679688 398.3203125 c 4,23,24
 616 370 616 370 616.139648438 332.810546875 c 4,25,26
 616 295 616 295 584.309570312 265.041992188 c 4,27,28
 552 235 552 235 504.25390625 234.922851562 c 4,29,15
 456 235 456 235 430.94921875 260.5234375 c 132,-1,16
123 815 m 1,30,-1
 123 1271 l 1,31,-1
 188 1336 l 1,32,-1
 253 1271 l 1,33,-1
 253 815 l 1,34,-1
 188 750 l 1,35,-1
 123 815 l 1,30,-1
221 1369 m 1,36,-1
 286 1434 l 1,37,-1
 742 1434 l 1,38,-1
 807 1369 l 1,39,-1
 742 1304 l 1,40,-1
 286 1304 l 1,41,-1
 221 1369 l 1,36,-1
775 815 m 1,42,-1
 775 1271 l 1,43,-1
 840 1336 l 1,44,-1
 905 1271 l 1,45,-1
 905 815 l 1,46,-1
 840 750 l 1,47,-1
 775 815 l 1,42,-1
EndSplineSet
EndChar

StartChar: N
Encoding: 78 78 44
Width: 1028
GlyphClass: 2
Flags: W
LayerCount: 2
Fore
SplineSet
123 815 m 1,0,-1
 123 1271 l 1,1,-1
 188 1336 l 1,2,-1
 253 1271 l 1,3,-1
 253 815 l 1,4,-1
 188 750 l 1,5,-1
 123 815 l 1,0,-1
221 717 m 1,6,-1
 286 782 l 1,7,-1
 742 782 l 1,8,-1
 807 717 l 1,9,-1
 742 652 l 1,10,-1
 286 652 l 1,11,-1
 221 717 l 1,6,-1
221 1369 m 1,12,-1
 286 1434 l 1,13,-1
 742 1434 l 1,14,-1
 807 1369 l 1,15,-1
 742 1304 l 1,16,-1
 286 1304 l 1,17,-1
 221 1369 l 1,12,-1
775 815 m 1,18,-1
 775 1271 l 1,19,-1
 840 1336 l 1,20,-1
 905 1271 l 1,21,-1
 905 815 l 1,22,-1
 840 750 l 1,23,-1
 775 815 l 1,18,-1
EndSplineSet
EndChar

StartChar: P
Encoding: 80 80 45
Width: 1028
GlyphClass: 2
Flags: W
LayerCount: 2
Fore
SplineSet
398.534179688 338.76171875 m 5,0,-1
 398.534179688 433.33203125 l 5,1,-1
 496.970703125 514.21484375 l 5,2,-1
 596.921875 433.33203125 l 5,3,-1
 596.921875 338.76171875 l 5,4,-1
 496.970703125 257.87890625 l 5,5,-1
 398.534179688 338.76171875 l 5,0,-1
420.534179688 1002.50097656 m 5,6,-1
 420.534179688 1097.07226562 l 5,7,-1
 518.970703125 1177.95507812 l 5,8,-1
 618.921875 1097.07226562 l 5,9,-1
 618.921875 1002.50097656 l 5,10,-1
 518.970703125 921.619140625 l 5,11,-1
 420.534179688 1002.50097656 l 5,6,-1
123 815 m 1,12,-1
 123 1271 l 1,13,-1
 188 1336 l 1,14,-1
 253 1271 l 1,15,-1
 253 815 l 1,16,-1
 188 750 l 1,17,-1
 123 815 l 1,12,-1
221 65 m 1,18,-1
 286 131 l 1,19,-1
 742 131 l 1,20,-1
 807 65 l 1,21,-1
 742 0 l 1,22,-1
 286 0 l 1,23,-1
 221 65 l 1,18,-1
221 1369 m 1,24,-1
 286 1434 l 1,25,-1
 742 1434 l 1,26,-1
 807 1369 l 1,27,-1
 742 1304 l 1,28,-1
 286 1304 l 1,29,-1
 221 1369 l 1,24,-1
775 815 m 1,30,-1
 775 1271 l 1,31,-1
 840 1336 l 1,32,-1
 905 1271 l 1,33,-1
 905 815 l 1,34,-1
 840 750 l 1,35,-1
 775 815 l 1,30,-1
EndSplineSet
EndChar

StartChar: Q
Encoding: 81 81 46
Width: 1028
GlyphClass: 2
Flags: W
LayerCount: 2
Fore
SplineSet
123 815 m 1,0,-1
 123 1271 l 1,1,-1
 188 1336 l 1,2,-1
 253 1271 l 1,3,-1
 253 815 l 1,4,-1
 188 750 l 1,5,-1
 123 815 l 1,0,-1
221 717 m 1,6,-1
 286 782 l 1,7,-1
 742 782 l 1,8,-1
 807 717 l 1,9,-1
 742 652 l 1,10,-1
 286 652 l 1,11,-1
 221 717 l 1,6,-1
221 1369 m 1,12,-1
 286 1434 l 1,13,-1
 742 1434 l 1,14,-1
 807 1369 l 1,15,-1
 742 1304 l 1,16,-1
 286 1304 l 1,17,-1
 221 1369 l 1,12,-1
775 163 m 1,18,-1
 775 619 l 1,19,-1
 840 684 l 1,20,-1
 905 619 l 1,21,-1
 905 163 l 1,22,-1
 840 98 l 1,23,-1
 775 163 l 1,18,-1
775 815 m 1,24,-1
 775 1271 l 1,25,-1
 840 1336 l 1,26,-1
 905 1271 l 1,27,-1
 905 815 l 1,28,-1
 840 750 l 1,29,-1
 775 815 l 1,24,-1
EndSplineSet
EndChar

StartChar: R
Encoding: 82 82 47
Width: 1028
GlyphClass: 2
Flags: W
LayerCount: 2
Fore
SplineSet
398.534179688 338.76171875 m 5,0,-1
 398.534179688 433.33203125 l 5,1,-1
 496.970703125 514.21484375 l 5,2,-1
 596.921875 433.33203125 l 5,3,-1
 596.921875 338.76171875 l 5,4,-1
 496.970703125 257.87890625 l 5,5,-1
 398.534179688 338.76171875 l 5,0,-1
420.534179688 1002.50097656 m 5,6,-1
 420.534179688 1097.07226562 l 5,7,-1
 518.970703125 1177.95507812 l 5,8,-1
 618.921875 1097.07226562 l 5,9,-1
 618.921875 1002.50097656 l 5,10,-1
 518.970703125 921.619140625 l 5,11,-1
 420.534179688 1002.50097656 l 5,6,-1
221 717 m 1,12,-1
 286 782 l 1,13,-1
 742 782 l 1,14,-1
 807 717 l 1,15,-1
 742 652 l 1,16,-1
 286 652 l 1,17,-1
 221 717 l 1,12,-1
EndSplineSet
EndChar

StartChar: S
Encoding: 83 83 48
Width: 1028
GlyphClass: 2
Flags: W
LayerCount: 2
Fore
SplineSet
123 815 m 1,0,-1
 123 1271 l 1,1,-1
 188 1336 l 1,2,-1
 253 1271 l 1,3,-1
 253 815 l 1,4,-1
 188 749 l 1,5,-1
 123 815 l 1,0,-1
221 65 m 1,6,-1
 286 130 l 1,7,-1
 742 130 l 1,8,-1
 807 65 l 1,9,-1
 742 0 l 1,10,-1
 286 0 l 1,11,-1
 221 65 l 1,6,-1
221 717 m 1,12,-1
 286 782 l 1,13,-1
 742 782 l 1,14,-1
 807 717 l 1,15,-1
 742 652 l 1,16,-1
 286 652 l 1,17,-1
 221 717 l 1,12,-1
221 1368 m 1,18,-1
 286 1434 l 1,19,-1
 742 1434 l 1,20,-1
 807 1368 l 1,21,-1
 742 1303 l 1,22,-1
 286 1303 l 1,23,-1
 221 1368 l 1,18,-1
775 163 m 1,24,-1
 775 619 l 1,25,-1
 840 684 l 1,26,-1
 905 619 l 1,27,-1
 905 163 l 1,28,-1
 840 98 l 1,29,-1
 775 163 l 1,24,-1
EndSplineSet
EndChar

StartChar: T
Encoding: 84 84 49
Width: 1028
GlyphClass: 2
Flags: W
LayerCount: 2
Fore
SplineSet
431.192382812 987.342773438 m 132,-1,1
 406.243164062 1012.81933594 406.243164062 1012.81933594 406.114257812 1051.34667969 c 4,2,3
 406.243164062 1089.81933594 406.243164062 1089.81933594 438.907226562 1121.375 c 4,4,5
 471.243164062 1152.81933594 471.243164062 1152.81933594 518 1153 c 4,6,7
 564.243164062 1152.81933594 564.243164062 1152.81933594 590.33984375 1125.13964844 c 4,8,9
 616.243164062 1096.81933594 616.243164062 1096.81933594 616.3828125 1059.62988281 c 4,10,11
 616.243164062 1021.81933594 616.243164062 1021.81933594 584.552734375 991.861328125 c 4,12,13
 552.243164062 961.819335938 552.243164062 961.819335938 504.497070312 961.7421875 c 4,14,0
 456.243164062 961.819335938 456.243164062 961.819335938 431.192382812 987.342773438 c 132,-1,1
437.192382812 330.342773438 m 4,15,16
 412 356 412 356 412.114257812 394.346679688 c 4,17,18
 412 433 412 433 444.907226562 464.375 c 4,19,20
 477 496 477 496 524 496 c 4,21,22
 570 496 570 496 596.33984375 468.139648438 c 4,23,24
 622 440 622 440 622.3828125 402.629882812 c 4,25,26
 622 365 622 365 590.552734375 334.861328125 c 4,27,28
 558 305 558 305 510.497070312 304.7421875 c 4,29,30
 462 305 462 305 437.192382812 330.342773438 c 4,15,16
123 163 m 1,31,-1
 123 619 l 1,32,-1
 188 684 l 1,33,-1
 253 619 l 1,34,-1
 253 163 l 1,35,-1
 188 98 l 1,36,-1
 123 163 l 1,31,-1
123 815 m 1,37,-1
 123 1271 l 1,38,-1
 188 1336 l 1,39,-1
 253 1271 l 1,40,-1
 253 815 l 1,41,-1
 188 750 l 1,42,-1
 123 815 l 1,37,-1
221 65 m 1,43,-1
 286 131 l 1,44,-1
 742 131 l 1,45,-1
 807 65 l 1,46,-1
 742 0 l 1,47,-1
 286 0 l 1,48,-1
 221 65 l 1,43,-1
221 717 m 1,49,-1
 286 782 l 1,50,-1
 742 782 l 1,51,-1
 807 717 l 1,52,-1
 742 652 l 1,53,-1
 286 652 l 1,54,-1
 221 717 l 1,49,-1
EndSplineSet
EndChar

StartChar: V
Encoding: 86 86 50
Width: 1028
GlyphClass: 2
Flags: W
LayerCount: 2
Fore
SplineSet
188 684 m 1025,0,-1
123 815 m 1,1,-1
 123 1271 l 1,2,-1
 188 1336 l 1,3,-1
 253 1271 l 1,4,-1
 253 815 l 1,5,-1
 188 750 l 1,6,-1
 123 815 l 1,1,-1
221 717 m 1,7,-1
 286 782 l 1,8,-1
 742 782 l 1,9,-1
 807 717 l 1,10,-1
 742 652 l 1,11,-1
 286 652 l 1,12,-1
 221 717 l 1,7,-1
775 815 m 1,13,-1
 775 1271 l 1,14,-1
 840 1336 l 1,15,-1
 905 1271 l 1,16,-1
 905 815 l 1,17,-1
 840 750 l 1,18,-1
 775 815 l 1,13,-1
EndSplineSet
EndChar

StartChar: W
Encoding: 87 87 51
Width: 1028
GlyphClass: 2
Flags: W
LayerCount: 2
Fore
SplineSet
123 163 m 1,0,-1
 123 619 l 1,1,-1
 188 684 l 1,2,-1
 253 619 l 1,3,-1
 253 163 l 1,4,-1
 188 98 l 1,5,-1
 123 163 l 1,0,-1
123 815 m 1,6,-1
 123 1271 l 1,7,-1
 188 1336 l 1,8,-1
 253 1271 l 1,9,-1
 253 815 l 1,10,-1
 188 750 l 1,11,-1
 123 815 l 1,6,-1
221 65 m 1,12,-1
 286 131 l 1,13,-1
 742 131 l 1,14,-1
 807 65 l 1,15,-1
 742 0 l 1,16,-1
 286 0 l 1,17,-1
 221 65 l 1,12,-1
221 717 m 1,18,-1
 286 782 l 1,19,-1
 742 782 l 1,20,-1
 807 717 l 1,21,-1
 742 652 l 1,22,-1
 286 652 l 1,23,-1
 221 717 l 1,18,-1
775 163 m 1,24,-1
 775 619 l 1,25,-1
 840 684 l 1,26,-1
 905 619 l 1,27,-1
 905 163 l 1,28,-1
 840 98 l 1,29,-1
 775 163 l 1,24,-1
775 815 m 1,30,-1
 775 1271 l 1,31,-1
 840 1336 l 1,32,-1
 905 1271 l 1,33,-1
 905 815 l 1,34,-1
 840 750 l 1,35,-1
 775 815 l 1,30,-1
EndSplineSet
EndChar

StartChar: X
Encoding: 88 88 52
Width: 1028
GlyphClass: 2
Flags: W
LayerCount: 2
Fore
SplineSet
123 163 m 1,0,-1
 123 619 l 1,1,-1
 188 684 l 1,2,-1
 253 619 l 1,3,-1
 253 163 l 1,4,-1
 188 98 l 1,5,-1
 123 163 l 1,0,-1
221 717 m 1,6,-1
 286 782 l 1,7,-1
 742 782 l 1,8,-1
 807 717 l 1,9,-1
 742 652 l 1,10,-1
 286 652 l 1,11,-1
 221 717 l 1,6,-1
221 1369 m 1,12,-1
 286 1434 l 1,13,-1
 742 1434 l 1,14,-1
 807 1369 l 1,15,-1
 742 1304 l 1,16,-1
 286 1304 l 1,17,-1
 221 1369 l 1,12,-1
775 163 m 1,18,-1
 775 619 l 1,19,-1
 840 684 l 1,20,-1
 905 619 l 1,21,-1
 905 163 l 1,22,-1
 840 98 l 1,23,-1
 775 163 l 1,18,-1
775 815 m 1,24,-1
 775 1271 l 1,25,-1
 840 1336 l 1,26,-1
 905 1271 l 1,27,-1
 905 815 l 1,28,-1
 840 750 l 1,29,-1
 775 815 l 1,24,-1
EndSplineSet
EndChar

StartChar: Y
Encoding: 89 89 53
Width: 1028
GlyphClass: 2
Flags: W
LayerCount: 2
Fore
SplineSet
431.192382812 987.342773438 m 132,-1,1
 406.243164062 1012.81933594 406.243164062 1012.81933594 406.114257812 1051.34667969 c 4,2,3
 406.243164062 1089.81933594 406.243164062 1089.81933594 438.907226562 1121.375 c 4,4,5
 471.243164062 1152.81933594 471.243164062 1152.81933594 518 1153 c 4,6,7
 564.243164062 1152.81933594 564.243164062 1152.81933594 590.33984375 1125.13964844 c 4,8,9
 616.243164062 1096.81933594 616.243164062 1096.81933594 616.3828125 1059.62988281 c 4,10,11
 616.243164062 1021.81933594 616.243164062 1021.81933594 584.552734375 991.861328125 c 4,12,13
 552.243164062 961.819335938 552.243164062 961.819335938 504.497070312 961.7421875 c 4,14,0
 456.243164062 961.819335938 456.243164062 961.819335938 431.192382812 987.342773438 c 132,-1,1
437.192382812 330.342773438 m 4,15,16
 412 356 412 356 412.114257812 394.346679688 c 4,17,18
 412 433 412 433 444.907226562 464.375 c 4,19,20
 477 496 477 496 524 496 c 4,21,22
 570 496 570 496 596.33984375 468.139648438 c 4,23,24
 622 440 622 440 622.3828125 402.629882812 c 4,25,26
 622 365 622 365 590.552734375 334.861328125 c 4,27,28
 558 305 558 305 510.497070312 304.7421875 c 4,29,30
 462 305 462 305 437.192382812 330.342773438 c 4,15,16
123 815 m 1,31,-1
 123 1369 l 1,32,-1
 188 1434 l 1,33,-1
 253 1369 l 1,34,-1
 253 815 l 1,35,-1
 188 749 l 1,36,-1
 123 815 l 1,31,-1
221 65 m 1,37,-1
 286 130 l 1,38,-1
 742 130 l 1,39,-1
 807 65 l 1,40,-1
 742 0 l 1,41,-1
 286 0 l 1,42,-1
 221 65 l 1,37,-1
221 717 m 1,43,-1
 286 782 l 1,44,-1
 742 782 l 1,45,-1
 807 717 l 1,46,-1
 742 652 l 1,47,-1
 286 652 l 1,48,-1
 221 717 l 1,43,-1
775 163 m 1,49,-1
 775 619 l 1,50,-1
 840 684 l 1,51,-1
 905 619 l 1,52,-1
 905 163 l 1,53,-1
 840 98 l 1,54,-1
 775 163 l 1,49,-1
775 815 m 1,55,-1
 775 1369 l 1,56,-1
 840 1434 l 1,57,-1
 905 1369 l 1,58,-1
 905 815 l 1,59,-1
 840 749 l 1,60,-1
 775 815 l 1,55,-1
EndSplineSet
EndChar

StartChar: Z
Encoding: 90 90 54
Width: 1028
GlyphClass: 2
Flags: W
LayerCount: 2
Fore
SplineSet
123 163 m 1,0,-1
 123 619 l 1,1,-1
 188 684 l 1,2,-1
 253 619 l 1,3,-1
 253 163 l 1,4,-1
 188 98 l 1,5,-1
 123 163 l 1,0,-1
123 815 m 1,6,-1
 123 1271 l 1,7,-1
 188 1336 l 1,8,-1
 253 1271 l 1,9,-1
 253 815 l 1,10,-1
 188 750 l 1,11,-1
 123 815 l 1,6,-1
221 717 m 1,12,-1
 286 782 l 1,13,-1
 742 782 l 1,14,-1
 807 717 l 1,15,-1
 742 652 l 1,16,-1
 286 652 l 1,17,-1
 221 717 l 1,12,-1
221 1369 m 1,18,-1
 286 1434 l 1,19,-1
 742 1434 l 1,20,-1
 807 1369 l 1,21,-1
 742 1304 l 1,22,-1
 286 1304 l 1,23,-1
 221 1369 l 1,18,-1
775 163 m 1,24,-1
 775 619 l 1,25,-1
 840 684 l 1,26,-1
 905 619 l 1,27,-1
 905 163 l 1,28,-1
 840 98 l 1,29,-1
 775 163 l 1,24,-1
EndSplineSet
EndChar

StartChar: bracketleft
Encoding: 91 91 55
Width: 1028
GlyphClass: 2
Flags: W
LayerCount: 2
Fore
SplineSet
123 815 m 1,0,-1
 123 1271 l 1,1,-1
 188 1336 l 1,2,-1
 253 1271 l 1,3,-1
 253 815 l 1,4,-1
 188 750 l 1,5,-1
 123 815 l 1,0,-1
221 717 m 1,6,-1
 286 782 l 1,7,-1
 742 782 l 1,8,-1
 807 717 l 1,9,-1
 742 652 l 1,10,-1
 286 652 l 1,11,-1
 221 717 l 1,6,-1
221 1369 m 1,12,-1
 286 1434 l 1,13,-1
 742 1434 l 1,14,-1
 807 1369 l 1,15,-1
 742 1304 l 1,16,-1
 286 1304 l 1,17,-1
 221 1369 l 1,12,-1
EndSplineSet
EndChar

StartChar: backslash
Encoding: 92 92 56
Width: 1028
GlyphClass: 2
Flags: W
LayerCount: 2
Fore
SplineSet
123 815 m 1,0,-1
 123 1271 l 1,1,-1
 188 1336 l 1,2,-1
 253 1271 l 1,3,-1
 253 815 l 1,4,-1
 188 750 l 1,5,-1
 123 815 l 1,0,-1
221 717 m 1,6,-1
 286 782 l 1,7,-1
 742 782 l 1,8,-1
 807 717 l 1,9,-1
 742 652 l 1,10,-1
 286 652 l 1,11,-1
 221 717 l 1,6,-1
775 163 m 1,12,-1
 775 619 l 1,13,-1
 840 684 l 1,14,-1
 905 619 l 1,15,-1
 905 163 l 1,16,-1
 840 98 l 1,17,-1
 775 163 l 1,12,-1
EndSplineSet
EndChar

StartChar: bracketright
Encoding: 93 93 57
Width: 1028
GlyphClass: 2
Flags: W
LayerCount: 2
Fore
SplineSet
221 717 m 1,0,-1
 286 782 l 1,1,-1
 742 782 l 1,2,-1
 807 717 l 1,3,-1
 742 652 l 1,4,-1
 286 652 l 1,5,-1
 221 717 l 1,0,-1
221 1369 m 1,6,-1
 286 1434 l 1,7,-1
 742 1434 l 1,8,-1
 807 1369 l 1,9,-1
 742 1304 l 1,10,-1
 286 1304 l 1,11,-1
 221 1369 l 1,6,-1
775 815 m 1,12,-1
 775 1271 l 1,13,-1
 840 1336 l 1,14,-1
 905 1271 l 1,15,-1
 905 815 l 1,16,-1
 840 750 l 1,17,-1
 775 815 l 1,12,-1
EndSplineSet
EndChar

StartChar: asciicircum
Encoding: 94 94 58
Width: 1028
GlyphClass: 2
Flags: W
LayerCount: 2
Fore
SplineSet
123 814 m 1,0,-1
 123 1271 l 1,1,-1
 188 1336 l 1,2,-1
 253 1271 l 1,3,-1
 253 814 l 1,4,-1
 188 749 l 1,5,-1
 123 814 l 1,0,-1
221 1368 m 1,6,-1
 286 1433 l 1,7,-1
 742 1433 l 1,8,-1
 807 1368 l 1,9,-1
 742 1303 l 1,10,-1
 286 1303 l 1,11,-1
 221 1368 l 1,6,-1
775 814 m 1,12,-1
 775 1271 l 1,13,-1
 840 1336 l 1,14,-1
 905 1271 l 1,15,-1
 905 814 l 1,16,-1
 840 749 l 1,17,-1
 775 814 l 1,12,-1
EndSplineSet
EndChar

StartChar: underscore
Encoding: 95 95 59
Width: 1028
GlyphClass: 2
Flags: W
LayerCount: 2
Fore
SplineSet
221 65 m 1,0,-1
 286 130 l 1,1,-1
 742 130 l 1,2,-1
 807 65 l 1,3,-1
 742 0 l 1,4,-1
 286 0 l 1,5,-1
 221 65 l 1,0,-1
EndSplineSet
EndChar

StartChar: b
Encoding: 98 98 60
Width: 1028
GlyphClass: 2
Flags: W
LayerCount: 2
Fore
SplineSet
123 163 m 1,0,-1
 123 619 l 1,1,-1
 188 684 l 1,2,-1
 253 619 l 1,3,-1
 253 163 l 1,4,-1
 188 98 l 1,5,-1
 123 163 l 1,0,-1
123 815 m 1,6,-1
 123 1271 l 1,7,-1
 188 1336 l 1,8,-1
 253 1271 l 1,9,-1
 253 815 l 1,10,-1
 188 750 l 1,11,-1
 123 815 l 1,6,-1
221 65 m 1,12,-1
 286 131 l 1,13,-1
 742 131 l 1,14,-1
 807 65 l 1,15,-1
 742 0 l 1,16,-1
 286 0 l 1,17,-1
 221 65 l 1,12,-1
221 717 m 1,18,-1
 286 782 l 1,19,-1
 742 782 l 1,20,-1
 807 717 l 1,21,-1
 742 652 l 1,22,-1
 286 652 l 1,23,-1
 221 717 l 1,18,-1
775 163 m 1,24,-1
 775 619 l 1,25,-1
 840 684 l 1,26,-1
 905 619 l 1,27,-1
 905 163 l 1,28,-1
 840 98 l 1,29,-1
 775 163 l 1,24,-1
EndSplineSet
EndChar

StartChar: c
Encoding: 99 99 61
Width: 931
GlyphClass: 2
Flags: W
LayerCount: 2
Fore
SplineSet
123 163 m 1,0,-1
 123 619 l 1,1,-1
 188 684 l 1,2,-1
 253 619 l 1,3,-1
 253 163 l 1,4,-1
 188 98 l 1,5,-1
 123 163 l 1,0,-1
123 815 m 1,6,-1
 123 1271 l 1,7,-1
 188 1336 l 1,8,-1
 253 1271 l 1,9,-1
 253 815 l 1,10,-1
 188 749 l 1,11,-1
 123 815 l 1,6,-1
221 65 m 1,12,-1
 286 130 l 1,13,-1
 742 130 l 1,14,-1
 807 65 l 1,15,-1
 742 0 l 1,16,-1
 286 0 l 1,17,-1
 221 65 l 1,12,-1
221 1368 m 1,18,-1
 286 1434 l 1,19,-1
 742 1434 l 1,20,-1
 807 1368 l 1,21,-1
 742 1303 l 1,22,-1
 286 1303 l 1,23,-1
 221 1368 l 1,18,-1
EndSplineSet
EndChar

StartChar: d
Encoding: 100 100 62
Width: 1028
GlyphClass: 2
Flags: W
LayerCount: 2
Fore
SplineSet
123 163 m 1,0,-1
 123 619 l 1,1,-1
 188 684 l 1,2,-1
 253 619 l 1,3,-1
 253 163 l 1,4,-1
 188 98 l 1,5,-1
 123 163 l 1,0,-1
221 65 m 1,6,-1
 286 131 l 1,7,-1
 742 131 l 1,8,-1
 807 65 l 1,9,-1
 742 0 l 1,10,-1
 286 0 l 1,11,-1
 221 65 l 1,6,-1
221 717 m 1,12,-1
 286 782 l 1,13,-1
 742 782 l 1,14,-1
 807 717 l 1,15,-1
 742 652 l 1,16,-1
 286 652 l 1,17,-1
 221 717 l 1,12,-1
775 163 m 1,18,-1
 775 619 l 1,19,-1
 840 684 l 1,20,-1
 905 619 l 1,21,-1
 905 163 l 1,22,-1
 840 98 l 1,23,-1
 775 163 l 1,18,-1
775 815 m 1,24,-1
 775 1271 l 1,25,-1
 840 1336 l 1,26,-1
 905 1271 l 1,27,-1
 905 815 l 1,28,-1
 840 750 l 1,29,-1
 775 815 l 1,24,-1
EndSplineSet
EndChar

StartChar: f
Encoding: 102 102 63
Width: 931
GlyphClass: 2
Flags: W
LayerCount: 2
Fore
SplineSet
398.534179688 338.76171875 m 5,0,-1
 398.534179688 433.33203125 l 5,1,-1
 496.970703125 514.21484375 l 5,2,-1
 596.921875 433.33203125 l 5,3,-1
 596.921875 338.76171875 l 5,4,-1
 496.970703125 257.87890625 l 5,5,-1
 398.534179688 338.76171875 l 5,0,-1
420.534179688 1002.50097656 m 5,6,-1
 420.534179688 1097.07226562 l 5,7,-1
 518.970703125 1177.95507812 l 5,8,-1
 618.921875 1097.07226562 l 5,9,-1
 618.921875 1002.50097656 l 5,10,-1
 518.970703125 921.619140625 l 5,11,-1
 420.534179688 1002.50097656 l 5,6,-1
123 65 m 1,12,-1
 123 619 l 1,13,-1
 188 685 l 1,14,-1
 253 619 l 1,15,-1
 253 65 l 1,16,-1
 188 0 l 1,17,-1
 123 65 l 1,12,-1
123 815 m 1,18,-1
 123 1271 l 1,19,-1
 188 1336 l 1,20,-1
 253 1271 l 1,21,-1
 253 815 l 1,22,-1
 188 750 l 1,23,-1
 123 815 l 1,18,-1
221 717 m 1,24,-1
 286 782 l 1,25,-1
 742 782 l 1,26,-1
 807 717 l 1,27,-1
 742 652 l 1,28,-1
 286 652 l 1,29,-1
 221 717 l 1,24,-1
221 1369 m 1,30,-1
 286 1434 l 1,31,-1
 742 1434 l 1,32,-1
 807 1369 l 1,33,-1
 742 1304 l 1,34,-1
 286 1304 l 1,35,-1
 221 1369 l 1,30,-1
EndSplineSet
EndChar

StartChar: g
Encoding: 103 103 64
Width: 1028
GlyphClass: 2
Flags: W
LayerCount: 2
Fore
SplineSet
123 163 m 1,0,-1
 123 619 l 1,1,-1
 188 684 l 1,2,-1
 253 619 l 1,3,-1
 253 163 l 1,4,-1
 188 98 l 1,5,-1
 123 163 l 1,0,-1
123 815 m 1,6,-1
 123 1271 l 1,7,-1
 188 1336 l 1,8,-1
 253 1271 l 1,9,-1
 253 815 l 1,10,-1
 188 749 l 1,11,-1
 123 815 l 1,6,-1
221 65 m 1,12,-1
 286 130 l 1,13,-1
 742 130 l 1,14,-1
 807 65 l 1,15,-1
 742 0 l 1,16,-1
 286 0 l 1,17,-1
 221 65 l 1,12,-1
221 1368 m 1,18,-1
 286 1434 l 1,19,-1
 742 1434 l 1,20,-1
 807 1368 l 1,21,-1
 742 1303 l 1,22,-1
 286 1303 l 1,23,-1
 221 1368 l 1,18,-1
775 163 m 1,24,-1
 775 619 l 1,25,-1
 840 684 l 1,26,-1
 905 619 l 1,27,-1
 905 163 l 1,28,-1
 840 98 l 1,29,-1
 775 163 l 1,24,-1
EndSplineSet
EndChar

StartChar: h
Encoding: 104 104 65
Width: 1028
GlyphClass: 2
Flags: W
LayerCount: 2
Fore
SplineSet
123 65 m 1,0,-1
 123 619 l 1,1,-1
 188 684 l 1,2,-1
 253 619 l 1,3,-1
 253 65 l 1,4,-1
 188 0 l 1,5,-1
 123 65 l 1,0,-1
123 814 m 1,6,-1
 123 1368 l 1,7,-1
 188 1433 l 1,8,-1
 253 1368 l 1,9,-1
 253 814 l 1,10,-1
 188 749 l 1,11,-1
 123 814 l 1,6,-1
221 717 m 1,12,-1
 286 782 l 1,13,-1
 742 782 l 1,14,-1
 807 717 l 1,15,-1
 742 652 l 1,16,-1
 286 652 l 1,17,-1
 221 717 l 1,12,-1
775 65 m 1,18,-1
 775 619 l 1,19,-1
 840 684 l 1,20,-1
 905 619 l 1,21,-1
 905 65 l 1,22,-1
 840 0 l 1,23,-1
 775 65 l 1,18,-1
EndSplineSet
EndChar

StartChar: j
Encoding: 106 106 66
Width: 1028
GlyphClass: 2
Flags: W
LayerCount: 2
Fore
SplineSet
123 163 m 1,0,-1
 123 619 l 1,1,-1
 188 684 l 1,2,-1
 253 619 l 1,3,-1
 253 163 l 1,4,-1
 188 98 l 1,5,-1
 123 163 l 1,0,-1
221 65 m 1,6,-1
 286 130 l 1,7,-1
 742 130 l 1,8,-1
 807 65 l 1,9,-1
 742 0 l 1,10,-1
 286 0 l 1,11,-1
 221 65 l 1,6,-1
775 163 m 1,12,-1
 775 619 l 1,13,-1
 840 684 l 1,14,-1
 905 619 l 1,15,-1
 905 163 l 1,16,-1
 840 98 l 1,17,-1
 775 163 l 1,12,-1
775 815 m 1,18,-1
 775 1368 l 1,19,-1
 840 1434 l 1,20,-1
 905 1368 l 1,21,-1
 905 815 l 1,22,-1
 840 749 l 1,23,-1
 775 815 l 1,18,-1
EndSplineSet
EndChar

StartChar: k
Encoding: 107 107 67
Width: 1028
GlyphClass: 2
Flags: W
LayerCount: 2
Fore
SplineSet
123 163 m 1,0,-1
 123 619 l 1,1,-1
 188 684 l 1,2,-1
 253 619 l 1,3,-1
 253 163 l 1,4,-1
 188 98 l 1,5,-1
 123 163 l 1,0,-1
123 815 m 1,6,-1
 123 1271 l 1,7,-1
 188 1336 l 1,8,-1
 253 1271 l 1,9,-1
 253 815 l 1,10,-1
 188 750 l 1,11,-1
 123 815 l 1,6,-1
221 717 m 1,12,-1
 286 782 l 1,13,-1
 742 782 l 1,14,-1
 807 717 l 1,15,-1
 742 652 l 1,16,-1
 286 652 l 1,17,-1
 221 717 l 1,12,-1
EndSplineSet
EndChar

StartChar: l
Encoding: 108 108 68
Width: 931
GlyphClass: 2
Flags: W
LayerCount: 2
Fore
SplineSet
123 163 m 1,0,-1
 123 619 l 1,1,-1
 188 684 l 1,2,-1
 253 619 l 1,3,-1
 253 163 l 1,4,-1
 188 98 l 1,5,-1
 123 163 l 1,0,-1
123 815 m 1,6,-1
 123 1368 l 1,7,-1
 188 1434 l 1,8,-1
 253 1368 l 1,9,-1
 253 815 l 1,10,-1
 188 749 l 1,11,-1
 123 815 l 1,6,-1
221 65 m 1,12,-1
 286 130 l 1,13,-1
 742 130 l 1,14,-1
 807 65 l 1,15,-1
 742 0 l 1,16,-1
 286 0 l 1,17,-1
 221 65 l 1,12,-1
EndSplineSet
EndChar

StartChar: m
Encoding: 109 109 69
Width: 1028
GlyphClass: 2
Flags: W
LayerCount: 2
Fore
SplineSet
123 65 m 1,0,-1
 123 619 l 1,1,-1
 188 684 l 1,2,-1
 253 619 l 1,3,-1
 253 65 l 1,4,-1
 188 0 l 1,5,-1
 123 65 l 1,0,-1
123 814 m 1,6,-1
 123 1271 l 1,7,-1
 188 1336 l 1,8,-1
 253 1271 l 1,9,-1
 253 814 l 1,10,-1
 188 749 l 1,11,-1
 123 814 l 1,6,-1
221 1368 m 1,12,-1
 286 1433 l 1,13,-1
 742 1433 l 1,14,-1
 807 1368 l 1,15,-1
 742 1303 l 1,16,-1
 286 1303 l 1,17,-1
 221 1368 l 1,12,-1
775 65 m 1,18,-1
 775 619 l 1,19,-1
 840 684 l 1,20,-1
 905 619 l 1,21,-1
 905 65 l 1,22,-1
 840 0 l 1,23,-1
 775 65 l 1,18,-1
775 814 m 1,24,-1
 775 1271 l 1,25,-1
 840 1336 l 1,26,-1
 905 1271 l 1,27,-1
 905 814 l 1,28,-1
 840 749 l 1,29,-1
 775 814 l 1,24,-1
EndSplineSet
EndChar

StartChar: n
Encoding: 110 110 70
Width: 1028
GlyphClass: 2
Flags: W
LayerCount: 2
Fore
SplineSet
123 163 m 1,0,-1
 123 619 l 1,1,-1
 188 684 l 1,2,-1
 253 619 l 1,3,-1
 253 163 l 1,4,-1
 188 98 l 1,5,-1
 123 163 l 1,0,-1
221 717 m 1,6,-1
 286 782 l 1,7,-1
 742 782 l 1,8,-1
 807 717 l 1,9,-1
 742 652 l 1,10,-1
 286 652 l 1,11,-1
 221 717 l 1,6,-1
775 163 m 1,12,-1
 775 619 l 1,13,-1
 840 684 l 1,14,-1
 905 619 l 1,15,-1
 905 163 l 1,16,-1
 840 98 l 1,17,-1
 775 163 l 1,12,-1
EndSplineSet
EndChar

StartChar: p
Encoding: 112 112 71
Width: 1028
GlyphClass: 2
Flags: W
LayerCount: 2
Fore
SplineSet
123 163 m 1,0,-1
 123 619 l 1,1,-1
 188 684 l 1,2,-1
 253 619 l 1,3,-1
 253 163 l 1,4,-1
 188 98 l 1,5,-1
 123 163 l 1,0,-1
123 815 m 1,6,-1
 123 1271 l 1,7,-1
 188 1336 l 1,8,-1
 253 1271 l 1,9,-1
 253 815 l 1,10,-1
 188 750 l 1,11,-1
 123 815 l 1,6,-1
221 717 m 1,12,-1
 286 782 l 1,13,-1
 742 782 l 1,14,-1
 807 717 l 1,15,-1
 742 652 l 1,16,-1
 286 652 l 1,17,-1
 221 717 l 1,12,-1
221 1369 m 1,18,-1
 286 1434 l 1,19,-1
 742 1434 l 1,20,-1
 807 1369 l 1,21,-1
 742 1304 l 1,22,-1
 286 1304 l 1,23,-1
 221 1369 l 1,18,-1
775 815 m 1,24,-1
 775 1271 l 1,25,-1
 840 1336 l 1,26,-1
 905 1271 l 1,27,-1
 905 815 l 1,28,-1
 840 750 l 1,29,-1
 775 815 l 1,24,-1
EndSplineSet
EndChar

StartChar: q
Encoding: 113 113 72
Width: 1028
GlyphClass: 2
Flags: W
LayerCount: 2
Fore
SplineSet
431.192382812 963.342773438 m 128,-1,1
 406.243164062 988.819335938 406.243164062 988.819335938 406.114257812 1027.34667969 c 0,2,3
 406.243164062 1065.81933594 406.243164062 1065.81933594 438.907226562 1097.375 c 0,4,5
 471.243164062 1128.81933594 471.243164062 1128.81933594 518 1129 c 0,6,7
 564.243164062 1128.81933594 564.243164062 1128.81933594 590.33984375 1101.13964844 c 0,8,9
 616.243164062 1072.81933594 616.243164062 1072.81933594 616.3828125 1035.62988281 c 0,10,11
 616.243164062 997.819335938 616.243164062 997.819335938 584.552734375 967.861328125 c 0,12,13
 552.243164062 937.819335938 552.243164062 937.819335938 504.497070312 937.7421875 c 0,14,0
 456.243164062 937.819335938 456.243164062 937.819335938 431.192382812 963.342773438 c 128,-1,1
381.94921875 311.5234375 m 132,-1,16
 357 337 357 337 356.87109375 375.52734375 c 4,17,18
 357 414 357 414 389.6640625 445.555664062 c 4,19,20
 422 477 422 477 468.756835938 477.180664062 c 4,21,22
 515 477 515 477 541.096679688 449.3203125 c 4,23,24
 567 421 567 421 567.139648438 383.810546875 c 4,25,26
 567 346 567 346 535.309570312 316.041992188 c 4,27,28
 503 286 503 286 455.25390625 285.922851562 c 4,29,15
 407 286 407 286 381.94921875 311.5234375 c 132,-1,16
123 815 m 1,30,-1
 123 1271 l 1,31,-1
 188 1336 l 1,32,-1
 253 1271 l 1,33,-1
 253 815 l 1,34,-1
 188 750 l 1,35,-1
 123 815 l 1,30,-1
221 717 m 1,36,-1
 286 782 l 1,37,-1
 742 782 l 1,38,-1
 807 717 l 1,39,-1
 742 652 l 1,40,-1
 286 652 l 1,41,-1
 221 717 l 1,36,-1
221 1369 m 1,42,-1
 286 1434 l 1,43,-1
 742 1434 l 1,44,-1
 807 1369 l 1,45,-1
 742 1304 l 1,46,-1
 286 1304 l 1,47,-1
 221 1369 l 1,42,-1
775 163 m 1,48,-1
 775 619 l 1,49,-1
 840 684 l 1,50,-1
 905 619 l 1,51,-1
 905 163 l 1,52,-1
 840 98 l 1,53,-1
 775 163 l 1,48,-1
775 815 m 1,54,-1
 775 1271 l 1,55,-1
 840 1336 l 1,56,-1
 905 1271 l 1,57,-1
 905 815 l 1,58,-1
 840 750 l 1,59,-1
 775 815 l 1,54,-1
EndSplineSet
EndChar

StartChar: r
Encoding: 114 114 73
Width: 1028
GlyphClass: 2
Flags: W
LayerCount: 2
Fore
SplineSet
123 163 m 1,0,-1
 123 619 l 1,1,-1
 188 684 l 1,2,-1
 253 619 l 1,3,-1
 253 163 l 1,4,-1
 188 98 l 1,5,-1
 123 163 l 1,0,-1
123 815 m 1,6,-1
 123 1271 l 1,7,-1
 188 1336 l 1,8,-1
 253 1271 l 1,9,-1
 253 815 l 1,10,-1
 188 750 l 1,11,-1
 123 815 l 1,6,-1
221 1369 m 1,12,-1
 286 1434 l 1,13,-1
 742 1434 l 1,14,-1
 807 1369 l 1,15,-1
 742 1304 l 1,16,-1
 286 1304 l 1,17,-1
 221 1369 l 1,12,-1
EndSplineSet
EndChar

StartChar: s
Encoding: 115 115 74
Width: 1028
GlyphClass: 2
Flags: W
LayerCount: 2
Fore
SplineSet
123 815 m 1,0,-1
 123 1271 l 1,1,-1
 188 1336 l 1,2,-1
 253 1271 l 1,3,-1
 253 815 l 1,4,-1
 188 749 l 1,5,-1
 123 815 l 1,0,-1
221 65 m 1,6,-1
 286 130 l 1,7,-1
 742 130 l 1,8,-1
 807 65 l 1,9,-1
 742 0 l 1,10,-1
 286 0 l 1,11,-1
 221 65 l 1,6,-1
221 717 m 1,12,-1
 286 782 l 1,13,-1
 742 782 l 1,14,-1
 807 717 l 1,15,-1
 742 652 l 1,16,-1
 286 652 l 1,17,-1
 221 717 l 1,12,-1
221 1368 m 1,18,-1
 286 1434 l 1,19,-1
 742 1434 l 1,20,-1
 807 1368 l 1,21,-1
 742 1303 l 1,22,-1
 286 1303 l 1,23,-1
 221 1368 l 1,18,-1
775 163 m 1,24,-1
 775 619 l 1,25,-1
 840 684 l 1,26,-1
 905 619 l 1,27,-1
 905 163 l 1,28,-1
 840 98 l 1,29,-1
 775 163 l 1,24,-1
EndSplineSet
EndChar

StartChar: t
Encoding: 116 116 75
Width: 1028
GlyphClass: 2
Flags: W
LayerCount: 2
Fore
SplineSet
123 163 m 1,0,-1
 123 619 l 1,1,-1
 188 684 l 1,2,-1
 253 619 l 1,3,-1
 253 163 l 1,4,-1
 188 98 l 1,5,-1
 123 163 l 1,0,-1
123 815 m 1,6,-1
 123 1271 l 1,7,-1
 188 1336 l 1,8,-1
 253 1271 l 1,9,-1
 253 815 l 1,10,-1
 188 750 l 1,11,-1
 123 815 l 1,6,-1
221 65 m 1,12,-1
 286 131 l 1,13,-1
 742 131 l 1,14,-1
 807 65 l 1,15,-1
 742 0 l 1,16,-1
 286 0 l 1,17,-1
 221 65 l 1,12,-1
221 717 m 1,18,-1
 286 782 l 1,19,-1
 742 782 l 1,20,-1
 807 717 l 1,21,-1
 742 652 l 1,22,-1
 286 652 l 1,23,-1
 221 717 l 1,18,-1
EndSplineSet
EndChar

StartChar: v
Encoding: 118 118 76
Width: 1028
GlyphClass: 2
Flags: W
LayerCount: 2
Fore
SplineSet
123 163 m 1,0,-1
 123 619 l 1,1,-1
 188 684 l 1,2,-1
 253 619 l 1,3,-1
 253 163 l 1,4,-1
 188 98 l 1,5,-1
 123 163 l 1,0,-1
123 815 m 1,6,-1
 123 1368 l 1,7,-1
 188 1434 l 1,8,-1
 253 1368 l 1,9,-1
 253 815 l 1,10,-1
 188 749 l 1,11,-1
 123 815 l 1,6,-1
221 65 m 1,12,-1
 286 130 l 1,13,-1
 742 130 l 1,14,-1
 807 65 l 1,15,-1
 742 0 l 1,16,-1
 286 0 l 1,17,-1
 221 65 l 1,12,-1
775 163 m 1,18,-1
 775 619 l 1,19,-1
 840 684 l 1,20,-1
 905 619 l 1,21,-1
 905 163 l 1,22,-1
 840 98 l 1,23,-1
 775 163 l 1,18,-1
775 815 m 1,24,-1
 775 1368 l 1,25,-1
 840 1434 l 1,26,-1
 905 1368 l 1,27,-1
 905 815 l 1,28,-1
 840 749 l 1,29,-1
 775 815 l 1,24,-1
EndSplineSet
EndChar

StartChar: w
Encoding: 119 119 77
Width: 1028
GlyphClass: 2
Flags: W
LayerCount: 2
Fore
SplineSet
398.534179688 338.76171875 m 5,0,-1
 398.534179688 433.33203125 l 5,1,-1
 496.970703125 514.21484375 l 5,2,-1
 596.921875 433.33203125 l 5,3,-1
 596.921875 338.76171875 l 5,4,-1
 496.970703125 257.87890625 l 5,5,-1
 398.534179688 338.76171875 l 5,0,-1
420.534179688 1002.50097656 m 5,6,-1
 420.534179688 1097.07226562 l 5,7,-1
 518.970703125 1177.95507812 l 5,8,-1
 618.921875 1097.07226562 l 5,9,-1
 618.921875 1002.50097656 l 5,10,-1
 518.970703125 921.619140625 l 5,11,-1
 420.534179688 1002.50097656 l 5,6,-1
123 163 m 1,12,-1
 123 619 l 1,13,-1
 188 684 l 1,14,-1
 253 619 l 1,15,-1
 253 163 l 1,16,-1
 188 98 l 1,17,-1
 123 163 l 1,12,-1
123 815 m 1,18,-1
 123 1368 l 1,19,-1
 188 1434 l 1,20,-1
 253 1368 l 1,21,-1
 253 815 l 1,22,-1
 188 749 l 1,23,-1
 123 815 l 1,18,-1
221 65 m 1,24,-1
 286 130 l 1,25,-1
 742 130 l 1,26,-1
 807 65 l 1,27,-1
 742 0 l 1,28,-1
 286 0 l 1,29,-1
 221 65 l 1,24,-1
775 163 m 1,30,-1
 775 619 l 1,31,-1
 840 684 l 1,32,-1
 905 619 l 1,33,-1
 905 163 l 1,34,-1
 840 98 l 1,35,-1
 775 163 l 1,30,-1
775 815 m 1,36,-1
 775 1368 l 1,37,-1
 840 1434 l 1,38,-1
 905 1368 l 1,39,-1
 905 815 l 1,40,-1
 840 749 l 1,41,-1
 775 815 l 1,36,-1
EndSplineSet
EndChar

StartChar: x
Encoding: 120 120 78
Width: 1028
GlyphClass: 2
Flags: W
LayerCount: 2
Fore
SplineSet
398.534179688 338.76171875 m 5,0,-1
 398.534179688 433.33203125 l 5,1,-1
 496.970703125 514.21484375 l 5,2,-1
 596.921875 433.33203125 l 5,3,-1
 596.921875 338.76171875 l 5,4,-1
 496.970703125 257.87890625 l 5,5,-1
 398.534179688 338.76171875 l 5,0,-1
420.534179688 1002.50097656 m 5,6,-1
 420.534179688 1097.07226562 l 5,7,-1
 518.970703125 1177.95507812 l 5,8,-1
 618.921875 1097.07226562 l 5,9,-1
 618.921875 1002.50097656 l 5,10,-1
 518.970703125 921.619140625 l 5,11,-1
 420.534179688 1002.50097656 l 5,6,-1
123 163 m 1,12,-1
 123 619 l 1,13,-1
 188 684 l 1,14,-1
 253 619 l 1,15,-1
 253 163 l 1,16,-1
 188 98 l 1,17,-1
 123 163 l 1,12,-1
123 815 m 1,18,-1
 123 1271 l 1,19,-1
 188 1336 l 1,20,-1
 253 1271 l 1,21,-1
 253 815 l 1,22,-1
 188 750 l 1,23,-1
 123 815 l 1,18,-1
221 717 m 1,24,-1
 286 782 l 1,25,-1
 742 782 l 1,26,-1
 807 717 l 1,27,-1
 742 652 l 1,28,-1
 286 652 l 1,29,-1
 221 717 l 1,24,-1
EndSplineSet
EndChar

StartChar: z
Encoding: 122 122 79
Width: 1028
GlyphClass: 2
Flags: W
LayerCount: 2
Fore
SplineSet
123 163 m 1,0,-1
 123 619 l 1,1,-1
 188 684 l 1,2,-1
 253 619 l 1,3,-1
 253 163 l 1,4,-1
 188 98 l 1,5,-1
 123 163 l 1,0,-1
221 65 m 1,6,-1
 286 131 l 1,7,-1
 742 131 l 1,8,-1
 807 65 l 1,9,-1
 742 0 l 1,10,-1
 286 0 l 1,11,-1
 221 65 l 1,6,-1
221 717 m 1,12,-1
 286 782 l 1,13,-1
 742 782 l 1,14,-1
 807 717 l 1,15,-1
 742 652 l 1,16,-1
 286 652 l 1,17,-1
 221 717 l 1,12,-1
221 1369 m 1,18,-1
 286 1434 l 1,19,-1
 742 1434 l 1,20,-1
 807 1369 l 1,21,-1
 742 1304 l 1,22,-1
 286 1304 l 1,23,-1
 221 1369 l 1,18,-1
775 815 m 1,24,-1
 775 1271 l 1,25,-1
 840 1336 l 1,26,-1
 905 1271 l 1,27,-1
 905 815 l 1,28,-1
 840 750 l 1,29,-1
 775 815 l 1,24,-1
EndSplineSet
EndChar

StartChar: braceleft
Encoding: 123 123 80
Width: 1028
GlyphClass: 2
Flags: W
LayerCount: 2
Fore
SplineSet
398.534179688 338.76171875 m 5,0,-1
 398.534179688 433.33203125 l 5,1,-1
 496.970703125 514.21484375 l 5,2,-1
 596.921875 433.33203125 l 5,3,-1
 596.921875 338.76171875 l 5,4,-1
 496.970703125 257.87890625 l 5,5,-1
 398.534179688 338.76171875 l 5,0,-1
420.534179688 1002.50097656 m 5,6,-1
 420.534179688 1097.07226562 l 5,7,-1
 518.970703125 1177.95507812 l 5,8,-1
 618.921875 1097.07226562 l 5,9,-1
 618.921875 1002.50097656 l 5,10,-1
 518.970703125 921.619140625 l 5,11,-1
 420.534179688 1002.50097656 l 5,6,-1
123 815 m 1,12,-1
 123 1271 l 1,13,-1
 188 1336 l 1,14,-1
 253 1271 l 1,15,-1
 253 815 l 1,16,-1
 188 750 l 1,17,-1
 123 815 l 1,12,-1
221 65 m 1,18,-1
 286 131 l 1,19,-1
 742 131 l 1,20,-1
 807 65 l 1,21,-1
 742 0 l 1,22,-1
 286 0 l 1,23,-1
 221 65 l 1,18,-1
221 717 m 1,24,-1
 286 782 l 1,25,-1
 742 782 l 1,26,-1
 807 717 l 1,27,-1
 742 652 l 1,28,-1
 286 652 l 1,29,-1
 221 717 l 1,24,-1
221 1369 m 1,30,-1
 286 1434 l 1,31,-1
 742 1434 l 1,32,-1
 807 1369 l 1,33,-1
 742 1304 l 1,34,-1
 286 1304 l 1,35,-1
 221 1369 l 1,30,-1
EndSplineSet
EndChar

StartChar: bar
Encoding: 124 124 81
Width: 1028
GlyphClass: 2
Flags: W
LayerCount: 2
Fore
SplineSet
398.534179688 338.76171875 m 5,0,-1
 398.534179688 433.33203125 l 5,1,-1
 496.970703125 514.21484375 l 5,2,-1
 596.921875 433.33203125 l 5,3,-1
 596.921875 338.76171875 l 5,4,-1
 496.970703125 257.87890625 l 5,5,-1
 398.534179688 338.76171875 l 5,0,-1
420.534179688 1002.50097656 m 5,6,-1
 420.534179688 1097.07226562 l 5,7,-1
 518.970703125 1177.95507812 l 5,8,-1
 618.921875 1097.07226562 l 5,9,-1
 618.921875 1002.50097656 l 5,10,-1
 518.970703125 921.619140625 l 5,11,-1
 420.534179688 1002.50097656 l 5,6,-1
123 163 m 1,12,-1
 123 619 l 1,13,-1
 188 684 l 1,14,-1
 253 619 l 1,15,-1
 253 163 l 1,16,-1
 188 98 l 1,17,-1
 123 163 l 1,12,-1
775 163 m 1,18,-1
 775 619 l 1,19,-1
 840 684 l 1,20,-1
 905 619 l 1,21,-1
 905 163 l 1,22,-1
 840 98 l 1,23,-1
 775 163 l 1,18,-1
EndSplineSet
EndChar

StartChar: braceright
Encoding: 125 125 82
Width: 1028
GlyphClass: 2
Flags: W
LayerCount: 2
Fore
SplineSet
398.534179688 338.76171875 m 5,0,-1
 398.534179688 433.33203125 l 5,1,-1
 496.970703125 514.21484375 l 5,2,-1
 596.921875 433.33203125 l 5,3,-1
 596.921875 338.76171875 l 5,4,-1
 496.970703125 257.87890625 l 5,5,-1
 398.534179688 338.76171875 l 5,0,-1
420.534179688 1002.50097656 m 5,6,-1
 420.534179688 1097.07226562 l 5,7,-1
 518.970703125 1177.95507812 l 5,8,-1
 618.921875 1097.07226562 l 5,9,-1
 618.921875 1002.50097656 l 5,10,-1
 518.970703125 921.619140625 l 5,11,-1
 420.534179688 1002.50097656 l 5,6,-1
221 65 m 1,12,-1
 286 131 l 1,13,-1
 742 131 l 1,14,-1
 807 65 l 1,15,-1
 742 0 l 1,16,-1
 286 0 l 1,17,-1
 221 65 l 1,12,-1
221 717 m 1,18,-1
 286 782 l 1,19,-1
 742 782 l 1,20,-1
 807 717 l 1,21,-1
 742 652 l 1,22,-1
 286 652 l 1,23,-1
 221 717 l 1,18,-1
221 1369 m 1,24,-1
 286 1434 l 1,25,-1
 742 1434 l 1,26,-1
 807 1369 l 1,27,-1
 742 1304 l 1,28,-1
 286 1304 l 1,29,-1
 221 1369 l 1,24,-1
775 815 m 1,30,-1
 775 1271 l 1,31,-1
 840 1336 l 1,32,-1
 905 1271 l 1,33,-1
 905 815 l 1,34,-1
 840 750 l 1,35,-1
 775 815 l 1,30,-1
EndSplineSet
EndChar

StartChar: uni0087
Encoding: 135 135 84
Width: 1028
Flags: W
LayerCount: 2
Fore
SplineSet
123 815 m 1,0,-1
 123 1271 l 1,1,-1
 188 1336 l 1,2,-1
 253 1271 l 1,3,-1
 253 815 l 1,4,-1
 188 750 l 1,5,-1
 123 815 l 1,0,-1
221 1369 m 1,6,-1
 286 1434 l 1,7,-1
 742 1434 l 1,8,-1
 807 1369 l 1,9,-1
 742 1304 l 1,10,-1
 286 1304 l 1,11,-1
 221 1369 l 1,6,-1
775 163 m 1,12,-1
 775 619 l 1,13,-1
 840 684 l 1,14,-1
 905 619 l 1,15,-1
 905 163 l 1,16,-1
 840 98 l 1,17,-1
 775 163 l 1,12,-1
775 815 m 1,18,-1
 775 1271 l 1,19,-1
 840 1336 l 1,20,-1
 905 1271 l 1,21,-1
 905 815 l 1,22,-1
 840 750 l 1,23,-1
 775 815 l 1,18,-1
EndSplineSet
EndChar

StartChar: uni0088
Encoding: 136 136 85
Width: 1028
Flags: W
LayerCount: 2
Fore
SplineSet
123 163 m 1,0,-1
 123 619 l 1,1,-1
 188 684 l 1,2,-1
 253 619 l 1,3,-1
 253 163 l 1,4,-1
 188 98 l 1,5,-1
 123 163 l 1,0,-1
123 815 m 1,6,-1
 123 1271 l 1,7,-1
 188 1336 l 1,8,-1
 253 1271 l 1,9,-1
 253 815 l 1,10,-1
 188 750 l 1,11,-1
 123 815 l 1,6,-1
221 65 m 1,12,-1
 286 131 l 1,13,-1
 742 131 l 1,14,-1
 807 65 l 1,15,-1
 742 0 l 1,16,-1
 286 0 l 1,17,-1
 221 65 l 1,12,-1
221 717 m 1,18,-1
 286 782 l 1,19,-1
 742 782 l 1,20,-1
 807 717 l 1,21,-1
 742 652 l 1,22,-1
 286 652 l 1,23,-1
 221 717 l 1,18,-1
221 1369 m 1,24,-1
 286 1434 l 1,25,-1
 742 1434 l 1,26,-1
 807 1369 l 1,27,-1
 742 1304 l 1,28,-1
 286 1304 l 1,29,-1
 221 1369 l 1,24,-1
775 163 m 1,30,-1
 775 619 l 1,31,-1
 840 684 l 1,32,-1
 905 619 l 1,33,-1
 905 163 l 1,34,-1
 840 98 l 1,35,-1
 775 163 l 1,30,-1
775 815 m 1,36,-1
 775 1271 l 1,37,-1
 840 1336 l 1,38,-1
 905 1271 l 1,39,-1
 905 815 l 1,40,-1
 840 750 l 1,41,-1
 775 815 l 1,36,-1
EndSplineSet
EndChar

StartChar: semicolon
Encoding: 59 59 86
Width: 1028
Flags: W
LayerCount: 2
Fore
SplineSet
389.28515625 917.967773438 m 132,-1,1
 364.3359375 943.444335938 364.3359375 943.444335938 364.20703125 981.971679688 c 4,2,3
 364.3359375 1020.44433594 364.3359375 1020.44433594 397 1052 c 4,4,5
 429.3359375 1083.44433594 429.3359375 1083.44433594 476.092773438 1083.625 c 4,6,7
 522.3359375 1083.44433594 522.3359375 1083.44433594 548.432617188 1055.76464844 c 4,8,9
 574.3359375 1027.44433594 574.3359375 1027.44433594 574.475585938 990.254882812 c 4,10,11
 574.3359375 952.444335938 574.3359375 952.444335938 542.645507812 922.486328125 c 4,12,13
 510.3359375 892.444335938 510.3359375 892.444335938 462.58984375 892.3671875 c 4,14,0
 414.3359375 892.444335938 414.3359375 892.444335938 389.28515625 917.967773438 c 132,-1,1
382.192382812 373.342773438 m 0,15,16
 357 399 357 399 357.114257812 437.346679688 c 0,17,18
 357 476 357 476 389.907226562 507.375 c 0,19,20
 422 539 422 539 469 539 c 0,21,22
 515 539 515 539 541.33984375 511.139648438 c 0,23,24
 567 483 567 483 567.3828125 445.629882812 c 0,25,26
 567 408 567 408 535.552734375 377.861328125 c 0,27,28
 503 348 503 348 455.497070312 347.7421875 c 0,29,30
 407 348 407 348 382.192382812 373.342773438 c 0,15,16
221 65 m 1,31,-1
 286 131 l 1,32,-1
 742 131 l 1,33,-1
 807 65 l 1,34,-1
 742 0 l 1,35,-1
 286 0 l 1,36,-1
 221 65 l 1,31,-1
775 163 m 1,37,-1
 775 619 l 1,38,-1
 840 684 l 1,39,-1
 905 619 l 1,40,-1
 905 163 l 1,41,-1
 840 98 l 1,42,-1
 775 163 l 1,37,-1
EndSplineSet
EndChar

StartChar: grave
Encoding: 96 96 87
Width: 1028
Flags: W
LayerCount: 2
Fore
SplineSet
221 1369 m 1,0,-1
 286 1434 l 1,1,-1
 742 1434 l 1,2,-1
 807 1369 l 1,3,-1
 742 1304 l 1,4,-1
 286 1304 l 1,5,-1
 221 1369 l 1,0,-1
775 815 m 1,6,-1
 775 1271 l 1,7,-1
 840 1336 l 1,8,-1
 905 1271 l 1,9,-1
 905 815 l 1,10,-1
 840 750 l 1,11,-1
 775 815 l 1,6,-1
EndSplineSet
EndChar

StartChar: quotesingle
Encoding: 39 39 88
Width: 1028
Flags: W
LayerCount: 2
Fore
SplineSet
123 815 m 1,0,-1
 123 1271 l 1,1,-1
 188 1336 l 1,2,-1
 253 1271 l 1,3,-1
 253 815 l 1,4,-1
 188 750 l 1,5,-1
 123 815 l 1,0,-1
221 1369 m 1,6,-1
 286 1434 l 1,7,-1
 742 1434 l 1,8,-1
 807 1369 l 1,9,-1
 742 1304 l 1,10,-1
 286 1304 l 1,11,-1
 221 1369 l 1,6,-1
EndSplineSet
EndChar

StartChar: asciitilde
Encoding: 126 126 89
Width: 1028
Flags: W
LayerCount: 2
Fore
SplineSet
221 1369 m 1,0,-1
 286 1434 l 1,1,-1
 742 1434 l 1,2,-1
 807 1369 l 1,3,-1
 742 1304 l 1,4,-1
 286 1304 l 1,5,-1
 221 1369 l 1,0,-1
EndSplineSet
EndChar

StartChar: uni008A
Encoding: 138 138 90
Width: 1028
Flags: W
LayerCount: 2
Fore
SplineSet
123 163 m 1,0,-1
 123 619 l 1,1,-1
 188 684 l 1,2,-1
 253 619 l 1,3,-1
 253 163 l 1,4,-1
 188 98 l 1,5,-1
 123 163 l 1,0,-1
123 815 m 1,6,-1
 123 1271 l 1,7,-1
 188 1336 l 1,8,-1
 253 1271 l 1,9,-1
 253 815 l 1,10,-1
 188 750 l 1,11,-1
 123 815 l 1,6,-1
221 65 m 1,12,-1
 286 131 l 1,13,-1
 742 131 l 1,14,-1
 807 65 l 1,15,-1
 742 0 l 1,16,-1
 286 0 l 1,17,-1
 221 65 l 1,12,-1
221 1369 m 1,18,-1
 286 1434 l 1,19,-1
 742 1434 l 1,20,-1
 807 1369 l 1,21,-1
 742 1304 l 1,22,-1
 286 1304 l 1,23,-1
 221 1369 l 1,18,-1
775 815 m 1,24,-1
 775 1271 l 1,25,-1
 840 1336 l 1,26,-1
 905 1271 l 1,27,-1
 905 815 l 1,28,-1
 840 750 l 1,29,-1
 775 815 l 1,24,-1
EndSplineSet
EndChar

StartChar: uni0080
Encoding: 128 128 107
Width: 1028
Flags: W
LayerCount: 2
Fore
SplineSet
123 163 m 1,0,-1
 123 619 l 1,1,-1
 188 684 l 1,2,-1
 253 619 l 1,3,-1
 253 163 l 1,4,-1
 188 98 l 1,5,-1
 123 163 l 1,0,-1
123 815 m 1,6,-1
 123 1271 l 1,7,-1
 188 1336 l 1,8,-1
 253 1271 l 1,9,-1
 253 815 l 1,10,-1
 188 750 l 1,11,-1
 123 815 l 1,6,-1
221 65 m 1,12,-1
 286 131 l 1,13,-1
 742 131 l 1,14,-1
 807 65 l 1,15,-1
 742 0 l 1,16,-1
 286 0 l 1,17,-1
 221 65 l 1,12,-1
221 1369 m 1,18,-1
 286 1434 l 1,19,-1
 742 1434 l 1,20,-1
 807 1369 l 1,21,-1
 742 1304 l 1,22,-1
 286 1304 l 1,23,-1
 221 1369 l 1,18,-1
775 163 m 1,24,-1
 775 619 l 1,25,-1
 840 684 l 1,26,-1
 905 619 l 1,27,-1
 905 163 l 1,28,-1
 840 98 l 1,29,-1
 775 163 l 1,24,-1
775 815 m 1,30,-1
 775 1271 l 1,31,-1
 840 1336 l 1,32,-1
 905 1271 l 1,33,-1
 905 815 l 1,34,-1
 840 750 l 1,35,-1
 775 815 l 1,30,-1
EndSplineSet
EndChar

StartChar: uni0081
Encoding: 129 129 108
Width: 376
Flags: W
LayerCount: 2
Fore
SplineSet
123 65 m 1,0,-1
 123 627 l 1,1,-1
 188 693 l 1,2,-1
 253 627 l 1,3,-1
 253 65 l 1,4,-1
 188 0 l 1,5,-1
 123 65 l 1,0,-1
123 823 m 1,6,-1
 123 1370 l 1,7,-1
 188 1436 l 1,8,-1
 253 1370 l 1,9,-1
 253 823 l 1,10,-1
 188 758 l 1,11,-1
 123 823 l 1,6,-1
EndSplineSet
EndChar

StartChar: uni0082
Encoding: 130 130 109
Width: 1028
Flags: W
LayerCount: 2
Fore
SplineSet
265.192382812 988.342773438 m 132,-1,1
 240.243164062 1013.81933594 240.243164062 1013.81933594 240.114257812 1052.34667969 c 4,2,3
 240.243164062 1090.81933594 240.243164062 1090.81933594 272.907226562 1122.375 c 4,4,5
 305.243164062 1153.81933594 305.243164062 1153.81933594 352 1154 c 4,6,7
 398.243164062 1153.81933594 398.243164062 1153.81933594 424.33984375 1126.13964844 c 4,8,9
 450.243164062 1097.81933594 450.243164062 1097.81933594 450.3828125 1060.62988281 c 4,10,11
 450.243164062 1022.81933594 450.243164062 1022.81933594 418.552734375 992.861328125 c 4,12,13
 386.243164062 962.819335938 386.243164062 962.819335938 338.497070312 962.7421875 c 4,14,0
 290.243164062 962.819335938 290.243164062 962.819335938 265.192382812 988.342773438 c 132,-1,1
605.809570312 327.712890625 m 4,15,16
 581 353 581 353 580.731445312 391.716796875 c 4,17,18
 581 430 581 430 613.524414062 461.745117188 c 4,19,20
 646 493 646 493 692.6171875 493.370117188 c 4,21,22
 739 493 739 493 764.95703125 465.509765625 c 4,23,24
 791 437 791 437 791 400 c 4,25,26
 791 362 791 362 759.169921875 332.231445312 c 4,27,28
 727 302 727 302 679.114257812 302.112304688 c 4,29,30
 631 302 631 302 605.809570312 327.712890625 c 4,15,16
123 163 m 1,31,-1
 123 619 l 1,32,-1
 188 684 l 1,33,-1
 253 619 l 1,34,-1
 253 163 l 1,35,-1
 188 98 l 1,36,-1
 123 163 l 1,31,-1
221 65 m 1,37,-1
 286 131 l 1,38,-1
 742 131 l 1,39,-1
 807 65 l 1,40,-1
 742 0 l 1,41,-1
 286 0 l 1,42,-1
 221 65 l 1,37,-1
221 717 m 1,43,-1
 286 782 l 1,44,-1
 742 782 l 1,45,-1
 807 717 l 1,46,-1
 742 652 l 1,47,-1
 286 652 l 1,48,-1
 221 717 l 1,43,-1
221 1369 m 1,49,-1
 286 1434 l 1,50,-1
 742 1434 l 1,51,-1
 807 1369 l 1,52,-1
 742 1304 l 1,53,-1
 286 1304 l 1,54,-1
 221 1369 l 1,49,-1
775 815 m 1,55,-1
 775 1271 l 1,56,-1
 840 1336 l 1,57,-1
 905 1271 l 1,58,-1
 905 815 l 1,59,-1
 840 750 l 1,60,-1
 775 815 l 1,55,-1
EndSplineSet
EndChar

StartChar: uni0083
Encoding: 131 131 110
Width: 931
Flags: W
LayerCount: 2
Fore
SplineSet
123 65 m 1,0,-1
 188 131 l 1,1,-1
 644 131 l 1,2,-1
 709 65 l 1,3,-1
 644 0 l 1,4,-1
 188 0 l 1,5,-1
 123 65 l 1,0,-1
123 717 m 1,6,-1
 188 782 l 1,7,-1
 644 782 l 1,8,-1
 709 717 l 1,9,-1
 644 652 l 1,10,-1
 188 652 l 1,11,-1
 123 717 l 1,6,-1
123 1369 m 1,12,-1
 188 1434 l 1,13,-1
 644 1434 l 1,14,-1
 709 1369 l 1,15,-1
 644 1304 l 1,16,-1
 188 1304 l 1,17,-1
 123 1369 l 1,12,-1
677 163 m 1,18,-1
 677 619 l 1,19,-1
 742 684 l 1,20,-1
 807 619 l 1,21,-1
 807 163 l 1,22,-1
 742 98 l 1,23,-1
 677 163 l 1,18,-1
677 815 m 1,24,-1
 677 1271 l 1,25,-1
 742 1336 l 1,26,-1
 807 1271 l 1,27,-1
 807 815 l 1,28,-1
 742 750 l 1,29,-1
 677 815 l 1,24,-1
EndSplineSet
EndChar

StartChar: uni0084
Encoding: 132 132 111
Width: 1028
Flags: W
LayerCount: 2
Fore
SplineSet
123 815 m 1,0,-1
 123 1370 l 1,1,-1
 188 1435 l 1,2,-1
 253 1370 l 1,3,-1
 253 815 l 1,4,-1
 188 750 l 1,5,-1
 123 815 l 1,0,-1
221 717 m 1,6,-1
 286 782 l 1,7,-1
 742 782 l 1,8,-1
 807 717 l 1,9,-1
 742 652 l 1,10,-1
 286 652 l 1,11,-1
 221 717 l 1,6,-1
775 64 m 1,12,-1
 775 619 l 1,13,-1
 840 684 l 1,14,-1
 905 619 l 1,15,-1
 905 64 l 1,16,-1
 840 -1 l 1,17,-1
 775 64 l 1,12,-1
775 815 m 1,18,-1
 775 1370 l 1,19,-1
 840 1435 l 1,20,-1
 905 1370 l 1,21,-1
 905 815 l 1,22,-1
 840 750 l 1,23,-1
 775 815 l 1,18,-1
EndSplineSet
EndChar

StartChar: uni0085
Encoding: 133 133 112
Width: 1028
Flags: W
LayerCount: 2
Fore
SplineSet
572.192382812 981.342773438 m 132,-1,1
 547.243164062 1006.81933594 547.243164062 1006.81933594 547.114257812 1045.34667969 c 4,2,3
 547.243164062 1083.81933594 547.243164062 1083.81933594 579.907226562 1115.375 c 4,4,5
 612.243164062 1146.81933594 612.243164062 1146.81933594 659 1147 c 4,6,7
 705.243164062 1146.81933594 705.243164062 1146.81933594 731.33984375 1119.13964844 c 4,8,9
 757.243164062 1090.81933594 757.243164062 1090.81933594 757.3828125 1053.62988281 c 4,10,11
 757.243164062 1015.81933594 757.243164062 1015.81933594 725.552734375 985.861328125 c 4,12,13
 693.243164062 955.819335938 693.243164062 955.819335938 645.497070312 955.7421875 c 4,14,0
 597.243164062 955.819335938 597.243164062 955.819335938 572.192382812 981.342773438 c 132,-1,1
333.94921875 318.5234375 m 128,-1,16
 309 344 309 344 308.87109375 382.52734375 c 0,17,18
 309 421 309 421 341.6640625 452.555664062 c 0,19,20
 374 484 374 484 420.756835938 484.180664062 c 0,21,22
 467 484 467 484 493.096679688 456.3203125 c 0,23,24
 519 428 519 428 519.139648438 390.810546875 c 0,25,26
 519 353 519 353 487.309570312 323.041992188 c 0,27,28
 455 293 455 293 407.25390625 292.922851562 c 0,29,15
 359 293 359 293 333.94921875 318.5234375 c 128,-1,16
123 815 m 1,30,-1
 123 1271 l 1,31,-1
 188 1336 l 1,32,-1
 253 1271 l 1,33,-1
 253 815 l 1,34,-1
 188 750 l 1,35,-1
 123 815 l 1,30,-1
221 65 m 1,36,-1
 286 131 l 1,37,-1
 742 131 l 1,38,-1
 807 65 l 1,39,-1
 742 0 l 1,40,-1
 286 0 l 1,41,-1
 221 65 l 1,36,-1
221 717 m 1,42,-1
 286 782 l 1,43,-1
 742 782 l 1,44,-1
 807 717 l 1,45,-1
 742 652 l 1,46,-1
 286 652 l 1,47,-1
 221 717 l 1,42,-1
221 1369 m 1,48,-1
 286 1434 l 1,49,-1
 742 1434 l 1,50,-1
 807 1369 l 1,51,-1
 742 1304 l 1,52,-1
 286 1304 l 1,53,-1
 221 1369 l 1,48,-1
775 163 m 1,54,-1
 775 619 l 1,55,-1
 840 684 l 1,56,-1
 905 619 l 1,57,-1
 905 163 l 1,58,-1
 840 98 l 1,59,-1
 775 163 l 1,54,-1
EndSplineSet
EndChar

StartChar: uni0086
Encoding: 134 134 113
Width: 1028
Flags: W
LayerCount: 2
Fore
SplineSet
123 163 m 1,0,-1
 123 619 l 1,1,-1
 188 684 l 1,2,-1
 253 619 l 1,3,-1
 253 163 l 1,4,-1
 188 98 l 1,5,-1
 123 163 l 1,0,-1
123 815 m 1,6,-1
 123 1271 l 1,7,-1
 188 1336 l 1,8,-1
 253 1271 l 1,9,-1
 253 815 l 1,10,-1
 188 750 l 1,11,-1
 123 815 l 1,6,-1
221 65 m 1,12,-1
 286 131 l 1,13,-1
 742 131 l 1,14,-1
 807 65 l 1,15,-1
 742 0 l 1,16,-1
 286 0 l 1,17,-1
 221 65 l 1,12,-1
221 717 m 1,18,-1
 286 782 l 1,19,-1
 742 782 l 1,20,-1
 807 717 l 1,21,-1
 742 652 l 1,22,-1
 286 652 l 1,23,-1
 221 717 l 1,18,-1
221 1369 m 1,24,-1
 286 1434 l 1,25,-1
 742 1434 l 1,26,-1
 807 1369 l 1,27,-1
 742 1304 l 1,28,-1
 286 1304 l 1,29,-1
 221 1369 l 1,24,-1
775 163 m 1,30,-1
 775 619 l 1,31,-1
 840 684 l 1,32,-1
 905 619 l 1,33,-1
 905 163 l 1,34,-1
 840 98 l 1,35,-1
 775 163 l 1,30,-1
EndSplineSet
EndChar

StartChar: uni0089
Encoding: 137 137 114
Width: 1028
Flags: W
LayerCount: 2
Fore
SplineSet
431.192382812 978.342773438 m 128,-1,1
 406.243164062 1003.81933594 406.243164062 1003.81933594 406.114257812 1042.34667969 c 0,2,3
 406.243164062 1080.81933594 406.243164062 1080.81933594 438.907226562 1112.375 c 0,4,5
 471.243164062 1143.81933594 471.243164062 1143.81933594 518 1144 c 0,6,7
 564.243164062 1143.81933594 564.243164062 1143.81933594 590.33984375 1116.13964844 c 0,8,9
 616.243164062 1087.81933594 616.243164062 1087.81933594 616.3828125 1050.62988281 c 0,10,11
 616.243164062 1012.81933594 616.243164062 1012.81933594 584.552734375 982.861328125 c 0,12,13
 552.243164062 952.819335938 552.243164062 952.819335938 504.497070312 952.7421875 c 0,14,0
 456.243164062 952.819335938 456.243164062 952.819335938 431.192382812 978.342773438 c 128,-1,1
368.28515625 340.967773438 m 4,15,16
 343 366 343 366 343.20703125 404.971679688 c 4,17,18
 343 443 343 443 376 475 c 132,-1,19
 409 507 409 507 455.092773438 506.625 c 4,20,21
 503 506 503 506 527.432617188 478.764648438 c 4,22,23
 553 450 553 450 553.475585938 413.254882812 c 4,24,25
 553 375 553 375 521.645507812 345.486328125 c 4,26,27
 489 315 489 315 441.58984375 315.3671875 c 4,28,29
 393 315 393 315 368.28515625 340.967773438 c 4,15,16
123 815 m 1,30,-1
 123 1271 l 1,31,-1
 188 1336 l 1,32,-1
 253 1271 l 1,33,-1
 253 815 l 1,34,-1
 188 750 l 1,35,-1
 123 815 l 1,30,-1
221 65 m 1,36,-1
 286 131 l 1,37,-1
 742 131 l 1,38,-1
 807 65 l 1,39,-1
 742 0 l 1,40,-1
 286 0 l 1,41,-1
 221 65 l 1,36,-1
221 717 m 1,42,-1
 286 782 l 1,43,-1
 742 782 l 1,44,-1
 807 717 l 1,45,-1
 742 652 l 1,46,-1
 286 652 l 1,47,-1
 221 717 l 1,42,-1
221 1369 m 1,48,-1
 286 1434 l 1,49,-1
 742 1434 l 1,50,-1
 807 1369 l 1,51,-1
 742 1304 l 1,52,-1
 286 1304 l 1,53,-1
 221 1369 l 1,48,-1
775 163 m 1,54,-1
 775 619 l 1,55,-1
 840 684 l 1,56,-1
 905 619 l 1,57,-1
 905 163 l 1,58,-1
 840 98 l 1,59,-1
 775 163 l 1,54,-1
775 815 m 1,60,-1
 775 1271 l 1,61,-1
 840 1336 l 1,62,-1
 905 1271 l 1,63,-1
 905 815 l 1,64,-1
 840 750 l 1,65,-1
 775 815 l 1,60,-1
EndSplineSet
EndChar

StartChar: uni008B
Encoding: 139 139 115
Width: 1028
Flags: W
LayerCount: 2
Fore
SplineSet
123 163 m 1,0,-1
 123 619 l 1,1,-1
 188 684 l 1,2,-1
 253 619 l 1,3,-1
 253 163 l 1,4,-1
 188 98 l 1,5,-1
 123 163 l 1,0,-1
221 65 m 1,6,-1
 286 131 l 1,7,-1
 742 131 l 1,8,-1
 807 65 l 1,9,-1
 742 0 l 1,10,-1
 286 0 l 1,11,-1
 221 65 l 1,6,-1
221 1369 m 1,12,-1
 286 1434 l 1,13,-1
 742 1434 l 1,14,-1
 807 1369 l 1,15,-1
 742 1304 l 1,16,-1
 286 1304 l 1,17,-1
 221 1369 l 1,12,-1
775 163 m 1,18,-1
 775 619 l 1,19,-1
 840 684 l 1,20,-1
 905 619 l 1,21,-1
 905 163 l 1,22,-1
 840 98 l 1,23,-1
 775 163 l 1,18,-1
775 815 m 1,24,-1
 775 1271 l 1,25,-1
 840 1336 l 1,26,-1
 905 1271 l 1,27,-1
 905 815 l 1,28,-1
 840 750 l 1,29,-1
 775 815 l 1,24,-1
EndSplineSet
EndChar

StartChar: uni008C
Encoding: 140 140 116
Width: 1028
Flags: W
LayerCount: 2
Fore
SplineSet
123 815 m 1,0,-1
 123 1271 l 1,1,-1
 188 1336 l 1,2,-1
 253 1271 l 1,3,-1
 253 815 l 1,4,-1
 188 750 l 1,5,-1
 123 815 l 1,0,-1
221 717 m 1,6,-1
 286 782 l 1,7,-1
 742 782 l 1,8,-1
 807 717 l 1,9,-1
 742 652 l 1,10,-1
 286 652 l 1,11,-1
 221 717 l 1,6,-1
221 1369 m 1,12,-1
 286 1434 l 1,13,-1
 742 1434 l 1,14,-1
 807 1369 l 1,15,-1
 742 1304 l 1,16,-1
 286 1304 l 1,17,-1
 221 1369 l 1,12,-1
775 163 m 1,18,-1
 775 619 l 1,19,-1
 840 684 l 1,20,-1
 905 619 l 1,21,-1
 905 163 l 1,22,-1
 840 98 l 1,23,-1
 775 163 l 1,18,-1
775 815 m 1,24,-1
 775 1271 l 1,25,-1
 840 1336 l 1,26,-1
 905 1271 l 1,27,-1
 905 815 l 1,28,-1
 840 750 l 1,29,-1
 775 815 l 1,24,-1
EndSplineSet
EndChar

StartChar: uni008D
Encoding: 141 141 117
Width: 1028
Flags: W
LayerCount: 2
Fore
SplineSet
123 163 m 1,0,-1
 123 619 l 1,1,-1
 188 684 l 1,2,-1
 253 619 l 1,3,-1
 253 163 l 1,4,-1
 188 98 l 1,5,-1
 123 163 l 1,0,-1
123 815 m 1,6,-1
 123 1271 l 1,7,-1
 188 1336 l 1,8,-1
 253 1271 l 1,9,-1
 253 815 l 1,10,-1
 188 750 l 1,11,-1
 123 815 l 1,6,-1
221 65 m 1,12,-1
 286 131 l 1,13,-1
 742 131 l 1,14,-1
 807 65 l 1,15,-1
 742 0 l 1,16,-1
 286 0 l 1,17,-1
 221 65 l 1,12,-1
221 717 m 1,18,-1
 286 782 l 1,19,-1
 742 782 l 1,20,-1
 807 717 l 1,21,-1
 742 652 l 1,22,-1
 286 652 l 1,23,-1
 221 717 l 1,18,-1
775 163 m 1,24,-1
 775 619 l 1,25,-1
 840 684 l 1,26,-1
 905 619 l 1,27,-1
 905 163 l 1,28,-1
 840 98 l 1,29,-1
 775 163 l 1,24,-1
775 815 m 1,30,-1
 775 1271 l 1,31,-1
 840 1336 l 1,32,-1
 905 1271 l 1,33,-1
 905 815 l 1,34,-1
 840 750 l 1,35,-1
 775 815 l 1,30,-1
EndSplineSet
EndChar

StartChar: uni008E
Encoding: 142 142 118
Width: 1028
Flags: W
LayerCount: 2
Fore
SplineSet
123 163 m 1,0,-1
 123 619 l 1,1,-1
 188 684 l 1,2,-1
 253 619 l 1,3,-1
 253 163 l 1,4,-1
 188 98 l 1,5,-1
 123 163 l 1,0,-1
221 717 m 1,6,-1
 286 782 l 1,7,-1
 742 782 l 1,8,-1
 807 717 l 1,9,-1
 742 652 l 1,10,-1
 286 652 l 1,11,-1
 221 717 l 1,6,-1
221 1369 m 1,12,-1
 286 1434 l 1,13,-1
 742 1434 l 1,14,-1
 807 1369 l 1,15,-1
 742 1304 l 1,16,-1
 286 1304 l 1,17,-1
 221 1369 l 1,12,-1
775 163 m 1,18,-1
 775 619 l 1,19,-1
 840 684 l 1,20,-1
 905 619 l 1,21,-1
 905 163 l 1,22,-1
 840 98 l 1,23,-1
 775 163 l 1,18,-1
775 815 m 1,24,-1
 775 1271 l 1,25,-1
 840 1336 l 1,26,-1
 905 1271 l 1,27,-1
 905 815 l 1,28,-1
 840 750 l 1,29,-1
 775 815 l 1,24,-1
EndSplineSet
EndChar

StartChar: uni008F
Encoding: 143 143 119
Width: 931
Flags: W
LayerCount: 2
Fore
SplineSet
123 65 m 1,0,-1
 123 619 l 1,1,-1
 188 685 l 1,2,-1
 253 619 l 1,3,-1
 253 65 l 1,4,-1
 188 0 l 1,5,-1
 123 65 l 1,0,-1
123 815 m 1,6,-1
 123 1271 l 1,7,-1
 188 1336 l 1,8,-1
 253 1271 l 1,9,-1
 253 815 l 1,10,-1
 188 750 l 1,11,-1
 123 815 l 1,6,-1
221 717 m 1,12,-1
 286 782 l 1,13,-1
 742 782 l 1,14,-1
 807 717 l 1,15,-1
 742 652 l 1,16,-1
 286 652 l 1,17,-1
 221 717 l 1,12,-1
221 1369 m 1,18,-1
 286 1434 l 1,19,-1
 742 1434 l 1,20,-1
 807 1369 l 1,21,-1
 742 1304 l 1,22,-1
 286 1304 l 1,23,-1
 221 1369 l 1,18,-1
EndSplineSet
EndChar

StartChar: a
Encoding: 97 97 120
Width: 1028
Flags: W
LayerCount: 2
Fore
SplineSet
123 163 m 1,0,-1
 123 619 l 1,1,-1
 188 684 l 1,2,-1
 253 619 l 1,3,-1
 253 163 l 1,4,-1
 188 98 l 1,5,-1
 123 163 l 1,0,-1
221 65 m 1,6,-1
 286 131 l 1,7,-1
 742 131 l 1,8,-1
 807 65 l 1,9,-1
 742 0 l 1,10,-1
 286 0 l 1,11,-1
 221 65 l 1,6,-1
221 717 m 1,12,-1
 286 782 l 1,13,-1
 742 782 l 1,14,-1
 807 717 l 1,15,-1
 742 652 l 1,16,-1
 286 652 l 1,17,-1
 221 717 l 1,12,-1
221 1369 m 1,18,-1
 286 1434 l 1,19,-1
 742 1434 l 1,20,-1
 807 1369 l 1,21,-1
 742 1304 l 1,22,-1
 286 1304 l 1,23,-1
 221 1369 l 1,18,-1
775 163 m 1,24,-1
 775 619 l 1,25,-1
 840 684 l 1,26,-1
 905 619 l 1,27,-1
 905 163 l 1,28,-1
 840 98 l 1,29,-1
 775 163 l 1,24,-1
775 815 m 1,30,-1
 775 1271 l 1,31,-1
 840 1336 l 1,32,-1
 905 1271 l 1,33,-1
 905 815 l 1,34,-1
 840 750 l 1,35,-1
 775 815 l 1,30,-1
EndSplineSet
EndChar

StartChar: e
Encoding: 101 101 121
Width: 1028
Flags: W
LayerCount: 2
Fore
SplineSet
123 163 m 1,0,-1
 123 619 l 1,1,-1
 188 684 l 1,2,-1
 253 619 l 1,3,-1
 253 163 l 1,4,-1
 188 98 l 1,5,-1
 123 163 l 1,0,-1
123 815 m 1,6,-1
 123 1271 l 1,7,-1
 188 1336 l 1,8,-1
 253 1271 l 1,9,-1
 253 815 l 1,10,-1
 188 750 l 1,11,-1
 123 815 l 1,6,-1
221 65 m 1,12,-1
 286 131 l 1,13,-1
 742 131 l 1,14,-1
 807 65 l 1,15,-1
 742 0 l 1,16,-1
 286 0 l 1,17,-1
 221 65 l 1,12,-1
221 717 m 1,18,-1
 286 782 l 1,19,-1
 742 782 l 1,20,-1
 807 717 l 1,21,-1
 742 652 l 1,22,-1
 286 652 l 1,23,-1
 221 717 l 1,18,-1
221 1369 m 1,24,-1
 286 1434 l 1,25,-1
 742 1434 l 1,26,-1
 807 1369 l 1,27,-1
 742 1304 l 1,28,-1
 286 1304 l 1,29,-1
 221 1369 l 1,24,-1
775 815 m 1,30,-1
 775 1271 l 1,31,-1
 840 1336 l 1,32,-1
 905 1271 l 1,33,-1
 905 815 l 1,34,-1
 840 750 l 1,35,-1
 775 815 l 1,30,-1
EndSplineSet
EndChar

StartChar: i
Encoding: 105 105 122
Width: 1028
Flags: W
LayerCount: 2
Fore
SplineSet
123 815 m 1,0,-1
 123 1271 l 1,1,-1
 188 1336 l 1,2,-1
 253 1271 l 1,3,-1
 253 815 l 1,4,-1
 188 750 l 1,5,-1
 123 815 l 1,0,-1
221 65 m 1,6,-1
 286 131 l 1,7,-1
 742 131 l 1,8,-1
 807 65 l 1,9,-1
 742 0 l 1,10,-1
 286 0 l 1,11,-1
 221 65 l 1,6,-1
221 717 m 1,12,-1
 286 782 l 1,13,-1
 742 782 l 1,14,-1
 807 717 l 1,15,-1
 742 652 l 1,16,-1
 286 652 l 1,17,-1
 221 717 l 1,12,-1
221 1369 m 1,18,-1
 286 1434 l 1,19,-1
 742 1434 l 1,20,-1
 807 1369 l 1,21,-1
 742 1304 l 1,22,-1
 286 1304 l 1,23,-1
 221 1369 l 1,18,-1
775 163 m 1,24,-1
 775 619 l 1,25,-1
 840 684 l 1,26,-1
 905 619 l 1,27,-1
 905 163 l 1,28,-1
 840 98 l 1,29,-1
 775 163 l 1,24,-1
775 815 m 1,30,-1
 775 1271 l 1,31,-1
 840 1336 l 1,32,-1
 905 1271 l 1,33,-1
 905 815 l 1,34,-1
 840 750 l 1,35,-1
 775 815 l 1,30,-1
EndSplineSet
EndChar

StartChar: o
Encoding: 111 111 123
Width: 1028
Flags: W
LayerCount: 2
Fore
SplineSet
123 163 m 1,0,-1
 123 619 l 1,1,-1
 188 684 l 1,2,-1
 253 619 l 1,3,-1
 253 163 l 1,4,-1
 188 98 l 1,5,-1
 123 163 l 1,0,-1
221 65 m 1,6,-1
 286 131 l 1,7,-1
 742 131 l 1,8,-1
 807 65 l 1,9,-1
 742 0 l 1,10,-1
 286 0 l 1,11,-1
 221 65 l 1,6,-1
221 717 m 1,12,-1
 286 782 l 1,13,-1
 742 782 l 1,14,-1
 807 717 l 1,15,-1
 742 652 l 1,16,-1
 286 652 l 1,17,-1
 221 717 l 1,12,-1
775 163 m 1,18,-1
 775 619 l 1,19,-1
 840 684 l 1,20,-1
 905 619 l 1,21,-1
 905 163 l 1,22,-1
 840 98 l 1,23,-1
 775 163 l 1,18,-1
EndSplineSet
EndChar

StartChar: U
Encoding: 85 85 124
Width: 1028
Flags: W
LayerCount: 2
Fore
SplineSet
123 163 m 1,0,-1
 123 619 l 1,1,-1
 188 684 l 1,2,-1
 253 619 l 1,3,-1
 253 163 l 1,4,-1
 188 98 l 1,5,-1
 123 163 l 1,0,-1
123 815 m 1,6,-1
 123 1368 l 1,7,-1
 188 1434 l 1,8,-1
 253 1368 l 1,9,-1
 253 815 l 1,10,-1
 188 749 l 1,11,-1
 123 815 l 1,6,-1
221 65 m 1,12,-1
 286 130 l 1,13,-1
 742 130 l 1,14,-1
 807 65 l 1,15,-1
 742 0 l 1,16,-1
 286 0 l 1,17,-1
 221 65 l 1,12,-1
775 163 m 1,18,-1
 775 619 l 1,19,-1
 840 684 l 1,20,-1
 905 619 l 1,21,-1
 905 163 l 1,22,-1
 840 98 l 1,23,-1
 775 163 l 1,18,-1
775 815 m 1,24,-1
 775 1368 l 1,25,-1
 840 1434 l 1,26,-1
 905 1368 l 1,27,-1
 905 815 l 1,28,-1
 840 749 l 1,29,-1
 775 815 l 1,24,-1
EndSplineSet
EndChar

StartChar: u
Encoding: 117 117 125
Width: 1028
Flags: W
LayerCount: 2
Fore
SplineSet
123 163 m 1,0,-1
 123 619 l 1,1,-1
 188 684 l 1,2,-1
 253 619 l 1,3,-1
 253 163 l 1,4,-1
 188 98 l 1,5,-1
 123 163 l 1,0,-1
221 65 m 1,6,-1
 286 130 l 1,7,-1
 742 130 l 1,8,-1
 807 65 l 1,9,-1
 742 0 l 1,10,-1
 286 0 l 1,11,-1
 221 65 l 1,6,-1
775 163 m 1,12,-1
 775 619 l 1,13,-1
 840 684 l 1,14,-1
 905 619 l 1,15,-1
 905 163 l 1,16,-1
 840 98 l 1,17,-1
 775 163 l 1,12,-1
EndSplineSet
EndChar

StartChar: y
Encoding: 121 121 126
Width: 1028
Flags: W
LayerCount: 2
Fore
SplineSet
123 815 m 1,0,-1
 123 1369 l 1,1,-1
 188 1434 l 1,2,-1
 253 1369 l 1,3,-1
 253 815 l 1,4,-1
 188 749 l 1,5,-1
 123 815 l 1,0,-1
221 65 m 1,6,-1
 286 130 l 1,7,-1
 742 130 l 1,8,-1
 807 65 l 1,9,-1
 742 0 l 1,10,-1
 286 0 l 1,11,-1
 221 65 l 1,6,-1
221 717 m 1,12,-1
 286 782 l 1,13,-1
 742 782 l 1,14,-1
 807 717 l 1,15,-1
 742 652 l 1,16,-1
 286 652 l 1,17,-1
 221 717 l 1,12,-1
775 163 m 1,18,-1
 775 619 l 1,19,-1
 840 684 l 1,20,-1
 905 619 l 1,21,-1
 905 163 l 1,22,-1
 840 98 l 1,23,-1
 775 163 l 1,18,-1
775 815 m 1,24,-1
 775 1369 l 1,25,-1
 840 1434 l 1,26,-1
 905 1369 l 1,27,-1
 905 815 l 1,28,-1
 840 749 l 1,29,-1
 775 815 l 1,24,-1
EndSplineSet
EndChar

StartChar: quotedbl
Encoding: 34 34 127
Width: 1028
Flags: W
LayerCount: 2
Fore
SplineSet
123 815 m 1,0,-1
 123 1271 l 1,1,-1
 188 1336 l 1,2,-1
 253 1271 l 1,3,-1
 253 815 l 1,4,-1
 188 750 l 1,5,-1
 123 815 l 1,0,-1
775 815 m 1,6,-1
 775 1271 l 1,7,-1
 840 1336 l 1,8,-1
 905 1271 l 1,9,-1
 905 815 l 1,10,-1
 840 750 l 1,11,-1
 775 815 l 1,6,-1
EndSplineSet
EndChar

StartChar: A
Encoding: 65 65 128
Width: 1028
Flags: W
LayerCount: 2
Fore
SplineSet
123 65 m 1,0,-1
 123 619 l 1,1,-1
 188 684 l 1,2,-1
 253 619 l 1,3,-1
 253 65 l 1,4,-1
 188 0 l 1,5,-1
 123 65 l 1,0,-1
123 814 m 1,6,-1
 123 1271 l 1,7,-1
 188 1336 l 1,8,-1
 253 1271 l 1,9,-1
 253 814 l 1,10,-1
 188 749 l 1,11,-1
 123 814 l 1,6,-1
221 717 m 1,12,-1
 286 782 l 1,13,-1
 742 782 l 1,14,-1
 807 717 l 1,15,-1
 742 652 l 1,16,-1
 286 652 l 1,17,-1
 221 717 l 1,12,-1
221 1368 m 1,18,-1
 286 1433 l 1,19,-1
 742 1433 l 1,20,-1
 807 1368 l 1,21,-1
 742 1303 l 1,22,-1
 286 1303 l 1,23,-1
 221 1368 l 1,18,-1
775 65 m 1,24,-1
 775 619 l 1,25,-1
 840 684 l 1,26,-1
 905 619 l 1,27,-1
 905 65 l 1,28,-1
 840 0 l 1,29,-1
 775 65 l 1,24,-1
775 814 m 1,30,-1
 775 1271 l 1,31,-1
 840 1336 l 1,32,-1
 905 1271 l 1,33,-1
 905 814 l 1,34,-1
 840 749 l 1,35,-1
 775 814 l 1,30,-1
EndSplineSet
EndChar

StartChar: E
Encoding: 69 69 129
Width: 931
Flags: W
LayerCount: 2
Fore
SplineSet
221 65 m 1,0,-1
 286 130 l 1,1,-1
 742 130 l 1,2,-1
 807 65 l 1,3,-1
 742 0 l 1,4,-1
 286 0 l 1,5,-1
 221 65 l 1,0,-1
221 717 m 1,6,-1
 286 782 l 1,7,-1
 742 782 l 1,8,-1
 807 717 l 1,9,-1
 742 652 l 1,10,-1
 286 652 l 1,11,-1
 221 717 l 1,6,-1
221 1368 m 1,12,-1
 286 1434 l 1,13,-1
 742 1434 l 1,14,-1
 807 1368 l 1,15,-1
 742 1303 l 1,16,-1
 286 1303 l 1,17,-1
 221 1368 l 1,12,-1
EndSplineSet
EndChar

StartChar: I
Encoding: 73 73 130
Width: 931
Flags: W
LayerCount: 2
Fore
SplineSet
123 163 m 1,0,-1
 123 619 l 1,1,-1
 188 684 l 1,2,-1
 253 619 l 1,3,-1
 253 163 l 1,4,-1
 188 98 l 1,5,-1
 123 163 l 1,0,-1
123 815 m 1,6,-1
 123 1271 l 1,7,-1
 188 1336 l 1,8,-1
 253 1271 l 1,9,-1
 253 815 l 1,10,-1
 188 749 l 1,11,-1
 123 815 l 1,6,-1
221 65 m 1,12,-1
 286 130 l 1,13,-1
 742 130 l 1,14,-1
 807 65 l 1,15,-1
 742 0 l 1,16,-1
 286 0 l 1,17,-1
 221 65 l 1,12,-1
221 717 m 1,18,-1
 286 782 l 1,19,-1
 742 782 l 1,20,-1
 807 717 l 1,21,-1
 742 652 l 1,22,-1
 286 652 l 1,23,-1
 221 717 l 1,18,-1
221 1368 m 1,24,-1
 286 1434 l 1,25,-1
 742 1434 l 1,26,-1
 807 1368 l 1,27,-1
 742 1303 l 1,28,-1
 286 1303 l 1,29,-1
 221 1368 l 1,24,-1
EndSplineSet
EndChar

StartChar: O
Encoding: 79 79 131
Width: 1028
Flags: W
LayerCount: 2
Fore
SplineSet
431.192382812 920.342773438 m 132,-1,1
 406.243164062 945.819335938 406.243164062 945.819335938 406.114257812 984.346679688 c 4,2,3
 406.243164062 1022.81933594 406.243164062 1022.81933594 438.907226562 1054.375 c 4,4,5
 471.243164062 1085.81933594 471.243164062 1085.81933594 518 1086 c 4,6,7
 564.243164062 1085.81933594 564.243164062 1085.81933594 590.33984375 1058.13964844 c 4,8,9
 616.243164062 1029.81933594 616.243164062 1029.81933594 616.3828125 992.629882812 c 4,10,11
 616.243164062 954.819335938 616.243164062 954.819335938 584.552734375 924.861328125 c 4,12,13
 552.243164062 894.819335938 552.243164062 894.819335938 504.497070312 894.7421875 c 4,14,0
 456.243164062 894.819335938 456.243164062 894.819335938 431.192382812 920.342773438 c 132,-1,1
430.94921875 386.5234375 m 132,-1,16
 406 412 406 412 405.87109375 450.52734375 c 4,17,18
 406 489 406 489 438.6640625 520.555664062 c 4,19,20
 471 552 471 552 517.756835938 552.180664062 c 4,21,22
 564 552 564 552 590.096679688 524.3203125 c 4,23,24
 616 496 616 496 616.139648438 458.810546875 c 4,25,26
 616 421 616 421 584.309570312 391.041992188 c 4,27,28
 552 361 552 361 504.25390625 360.922851562 c 4,29,15
 456 361 456 361 430.94921875 386.5234375 c 132,-1,16
123 163 m 1,30,-1
 123 619 l 1,31,-1
 188 684 l 1,32,-1
 253 619 l 1,33,-1
 253 163 l 1,34,-1
 188 98 l 1,35,-1
 123 163 l 1,30,-1
123 815 m 1,36,-1
 123 1271 l 1,37,-1
 188 1336 l 1,38,-1
 253 1271 l 1,39,-1
 253 815 l 1,40,-1
 188 750 l 1,41,-1
 123 815 l 1,36,-1
221 65 m 1,42,-1
 286 131 l 1,43,-1
 742 131 l 1,44,-1
 807 65 l 1,45,-1
 742 0 l 1,46,-1
 286 0 l 1,47,-1
 221 65 l 1,42,-1
221 1369 m 1,48,-1
 286 1434 l 1,49,-1
 742 1434 l 1,50,-1
 807 1369 l 1,51,-1
 742 1304 l 1,52,-1
 286 1304 l 1,53,-1
 221 1369 l 1,48,-1
775 163 m 1,54,-1
 775 619 l 1,55,-1
 840 684 l 1,56,-1
 905 619 l 1,57,-1
 905 163 l 1,58,-1
 840 98 l 1,59,-1
 775 163 l 1,54,-1
775 815 m 1,60,-1
 775 1271 l 1,61,-1
 840 1336 l 1,62,-1
 905 1271 l 1,63,-1
 905 815 l 1,64,-1
 840 750 l 1,65,-1
 775 815 l 1,60,-1
EndSplineSet
EndChar

StartChar: uni0401
Encoding: 1025 1025 132
Width: 1028
Flags: W
LayerCount: 2
Fore
SplineSet
221 65 m 1,0,-1
 286 131 l 1,1,-1
 742 131 l 1,2,-1
 807 65 l 1,3,-1
 742 0 l 1,4,-1
 286 0 l 1,5,-1
 221 65 l 1,0,-1
EndSplineSet
EndChar

StartChar: uni0402
Encoding: 1026 1026 133
Width: 1028
Flags: W
LayerCount: 2
Fore
SplineSet
775 163 m 1,0,-1
 775 619 l 1,1,-1
 840 684 l 1,2,-1
 905 619 l 1,3,-1
 905 163 l 1,4,-1
 840 98 l 1,5,-1
 775 163 l 1,0,-1
EndSplineSet
EndChar

StartChar: uni0403
Encoding: 1027 1027 134
Width: 1028
Flags: W
LayerCount: 2
Fore
SplineSet
221 65 m 1,0,-1
 286 131 l 1,1,-1
 742 131 l 1,2,-1
 807 65 l 1,3,-1
 742 0 l 1,4,-1
 286 0 l 1,5,-1
 221 65 l 1,0,-1
775 163 m 1,6,-1
 775 619 l 1,7,-1
 840 684 l 1,8,-1
 905 619 l 1,9,-1
 905 163 l 1,10,-1
 840 98 l 1,11,-1
 775 163 l 1,6,-1
EndSplineSet
EndChar

StartChar: uni0404
Encoding: 1028 1028 135
Width: 1028
Flags: W
LayerCount: 2
Fore
SplineSet
775 815 m 1,0,-1
 775 1271 l 1,1,-1
 840 1336 l 1,2,-1
 905 1271 l 1,3,-1
 905 815 l 1,4,-1
 840 750 l 1,5,-1
 775 815 l 1,0,-1
EndSplineSet
EndChar

StartChar: uni0405
Encoding: 1029 1029 136
Width: 1028
Flags: W
LayerCount: 2
Fore
SplineSet
221 65 m 1,0,-1
 286 131 l 1,1,-1
 742 131 l 1,2,-1
 807 65 l 1,3,-1
 742 0 l 1,4,-1
 286 0 l 1,5,-1
 221 65 l 1,0,-1
775 815 m 1,6,-1
 775 1271 l 1,7,-1
 840 1336 l 1,8,-1
 905 1271 l 1,9,-1
 905 815 l 1,10,-1
 840 750 l 1,11,-1
 775 815 l 1,6,-1
EndSplineSet
EndChar

StartChar: uni0406
Encoding: 1030 1030 137
Width: 1028
Flags: W
LayerCount: 2
Fore
SplineSet
775 163 m 1,0,-1
 775 619 l 1,1,-1
 840 684 l 1,2,-1
 905 619 l 1,3,-1
 905 163 l 1,4,-1
 840 98 l 1,5,-1
 775 163 l 1,0,-1
775 815 m 1,6,-1
 775 1271 l 1,7,-1
 840 1336 l 1,8,-1
 905 1271 l 1,9,-1
 905 815 l 1,10,-1
 840 750 l 1,11,-1
 775 815 l 1,6,-1
EndSplineSet
EndChar

StartChar: uni0407
Encoding: 1031 1031 138
Width: 1028
Flags: W
LayerCount: 2
Fore
SplineSet
221 65 m 1,0,-1
 286 131 l 1,1,-1
 742 131 l 1,2,-1
 807 65 l 1,3,-1
 742 0 l 1,4,-1
 286 0 l 1,5,-1
 221 65 l 1,0,-1
775 163 m 1,6,-1
 775 619 l 1,7,-1
 840 684 l 1,8,-1
 905 619 l 1,9,-1
 905 163 l 1,10,-1
 840 98 l 1,11,-1
 775 163 l 1,6,-1
775 815 m 1,12,-1
 775 1271 l 1,13,-1
 840 1336 l 1,14,-1
 905 1271 l 1,15,-1
 905 815 l 1,16,-1
 840 750 l 1,17,-1
 775 815 l 1,12,-1
EndSplineSet
EndChar

StartChar: uni0408
Encoding: 1032 1032 139
Width: 1028
Flags: W
LayerCount: 2
Fore
SplineSet
221 1369 m 1,0,-1
 286 1434 l 1,1,-1
 742 1434 l 1,2,-1
 807 1369 l 1,3,-1
 742 1304 l 1,4,-1
 286 1304 l 1,5,-1
 221 1369 l 1,0,-1
EndSplineSet
EndChar

StartChar: uni0409
Encoding: 1033 1033 140
Width: 1028
Flags: W
LayerCount: 2
Fore
SplineSet
221 65 m 1,0,-1
 286 131 l 1,1,-1
 742 131 l 1,2,-1
 807 65 l 1,3,-1
 742 0 l 1,4,-1
 286 0 l 1,5,-1
 221 65 l 1,0,-1
221 1369 m 1,6,-1
 286 1434 l 1,7,-1
 742 1434 l 1,8,-1
 807 1369 l 1,9,-1
 742 1304 l 1,10,-1
 286 1304 l 1,11,-1
 221 1369 l 1,6,-1
EndSplineSet
EndChar

StartChar: uni040A
Encoding: 1034 1034 141
Width: 1028
Flags: W
LayerCount: 2
Fore
SplineSet
221 1369 m 1,0,-1
 286 1434 l 1,1,-1
 742 1434 l 1,2,-1
 807 1369 l 1,3,-1
 742 1304 l 1,4,-1
 286 1304 l 1,5,-1
 221 1369 l 1,0,-1
775 163 m 1,6,-1
 775 619 l 1,7,-1
 840 684 l 1,8,-1
 905 619 l 1,9,-1
 905 163 l 1,10,-1
 840 98 l 1,11,-1
 775 163 l 1,6,-1
EndSplineSet
EndChar

StartChar: uni040B
Encoding: 1035 1035 142
Width: 1028
Flags: W
LayerCount: 2
Fore
SplineSet
221 65 m 1,0,-1
 286 131 l 1,1,-1
 742 131 l 1,2,-1
 807 65 l 1,3,-1
 742 0 l 1,4,-1
 286 0 l 1,5,-1
 221 65 l 1,0,-1
221 1369 m 1,6,-1
 286 1434 l 1,7,-1
 742 1434 l 1,8,-1
 807 1369 l 1,9,-1
 742 1304 l 1,10,-1
 286 1304 l 1,11,-1
 221 1369 l 1,6,-1
775 163 m 1,12,-1
 775 619 l 1,13,-1
 840 684 l 1,14,-1
 905 619 l 1,15,-1
 905 163 l 1,16,-1
 840 98 l 1,17,-1
 775 163 l 1,12,-1
EndSplineSet
EndChar

StartChar: uni040C
Encoding: 1036 1036 143
Width: 1028
Flags: W
LayerCount: 2
Fore
SplineSet
221 1369 m 1,0,-1
 286 1434 l 1,1,-1
 742 1434 l 1,2,-1
 807 1369 l 1,3,-1
 742 1304 l 1,4,-1
 286 1304 l 1,5,-1
 221 1369 l 1,0,-1
775 815 m 1,6,-1
 775 1271 l 1,7,-1
 840 1336 l 1,8,-1
 905 1271 l 1,9,-1
 905 815 l 1,10,-1
 840 750 l 1,11,-1
 775 815 l 1,6,-1
EndSplineSet
EndChar

StartChar: uni040D
Encoding: 1037 1037 144
Width: 1028
Flags: W
LayerCount: 2
Fore
SplineSet
221 65 m 1,0,-1
 286 131 l 1,1,-1
 742 131 l 1,2,-1
 807 65 l 1,3,-1
 742 0 l 1,4,-1
 286 0 l 1,5,-1
 221 65 l 1,0,-1
221 1369 m 1,6,-1
 286 1434 l 1,7,-1
 742 1434 l 1,8,-1
 807 1369 l 1,9,-1
 742 1304 l 1,10,-1
 286 1304 l 1,11,-1
 221 1369 l 1,6,-1
775 815 m 1,12,-1
 775 1271 l 1,13,-1
 840 1336 l 1,14,-1
 905 1271 l 1,15,-1
 905 815 l 1,16,-1
 840 750 l 1,17,-1
 775 815 l 1,12,-1
EndSplineSet
EndChar

StartChar: uni040E
Encoding: 1038 1038 145
Width: 1028
Flags: W
LayerCount: 2
Fore
SplineSet
221 1369 m 1,0,-1
 286 1434 l 1,1,-1
 742 1434 l 1,2,-1
 807 1369 l 1,3,-1
 742 1304 l 1,4,-1
 286 1304 l 1,5,-1
 221 1369 l 1,0,-1
775 163 m 1,6,-1
 775 619 l 1,7,-1
 840 684 l 1,8,-1
 905 619 l 1,9,-1
 905 163 l 1,10,-1
 840 98 l 1,11,-1
 775 163 l 1,6,-1
775 815 m 1,12,-1
 775 1271 l 1,13,-1
 840 1336 l 1,14,-1
 905 1271 l 1,15,-1
 905 815 l 1,16,-1
 840 750 l 1,17,-1
 775 815 l 1,12,-1
EndSplineSet
EndChar

StartChar: uni040F
Encoding: 1039 1039 146
Width: 1028
Flags: W
LayerCount: 2
Fore
SplineSet
221 65 m 1,0,-1
 286 131 l 1,1,-1
 742 131 l 1,2,-1
 807 65 l 1,3,-1
 742 0 l 1,4,-1
 286 0 l 1,5,-1
 221 65 l 1,0,-1
221 1369 m 1,6,-1
 286 1434 l 1,7,-1
 742 1434 l 1,8,-1
 807 1369 l 1,9,-1
 742 1304 l 1,10,-1
 286 1304 l 1,11,-1
 221 1369 l 1,6,-1
775 163 m 1,12,-1
 775 619 l 1,13,-1
 840 684 l 1,14,-1
 905 619 l 1,15,-1
 905 163 l 1,16,-1
 840 98 l 1,17,-1
 775 163 l 1,12,-1
775 815 m 1,18,-1
 775 1271 l 1,19,-1
 840 1336 l 1,20,-1
 905 1271 l 1,21,-1
 905 815 l 1,22,-1
 840 750 l 1,23,-1
 775 815 l 1,18,-1
EndSplineSet
EndChar

StartChar: uni0410
Encoding: 1040 1040 147
Width: 1028
Flags: W
LayerCount: 2
Fore
SplineSet
123 815 m 1,0,-1
 123 1271 l 1,1,-1
 188 1336 l 1,2,-1
 253 1271 l 1,3,-1
 253 815 l 1,4,-1
 188 750 l 1,5,-1
 123 815 l 1,0,-1
EndSplineSet
EndChar

StartChar: uni0411
Encoding: 1041 1041 148
Width: 1028
Flags: W
LayerCount: 2
Fore
SplineSet
123 815 m 1,0,-1
 123 1271 l 1,1,-1
 188 1336 l 1,2,-1
 253 1271 l 1,3,-1
 253 815 l 1,4,-1
 188 750 l 1,5,-1
 123 815 l 1,0,-1
221 65 m 1,6,-1
 286 131 l 1,7,-1
 742 131 l 1,8,-1
 807 65 l 1,9,-1
 742 0 l 1,10,-1
 286 0 l 1,11,-1
 221 65 l 1,6,-1
EndSplineSet
EndChar

StartChar: uni0412
Encoding: 1042 1042 149
Width: 1028
Flags: W
LayerCount: 2
Fore
SplineSet
123 815 m 1,0,-1
 123 1271 l 1,1,-1
 188 1336 l 1,2,-1
 253 1271 l 1,3,-1
 253 815 l 1,4,-1
 188 750 l 1,5,-1
 123 815 l 1,0,-1
775 163 m 1,6,-1
 775 619 l 1,7,-1
 840 684 l 1,8,-1
 905 619 l 1,9,-1
 905 163 l 1,10,-1
 840 98 l 1,11,-1
 775 163 l 1,6,-1
EndSplineSet
EndChar

StartChar: uni0413
Encoding: 1043 1043 150
Width: 1028
Flags: W
LayerCount: 2
Fore
SplineSet
123 815 m 1,0,-1
 123 1271 l 1,1,-1
 188 1336 l 1,2,-1
 253 1271 l 1,3,-1
 253 815 l 1,4,-1
 188 750 l 1,5,-1
 123 815 l 1,0,-1
221 65 m 1,6,-1
 286 131 l 1,7,-1
 742 131 l 1,8,-1
 807 65 l 1,9,-1
 742 0 l 1,10,-1
 286 0 l 1,11,-1
 221 65 l 1,6,-1
775 163 m 1,12,-1
 775 619 l 1,13,-1
 840 684 l 1,14,-1
 905 619 l 1,15,-1
 905 163 l 1,16,-1
 840 98 l 1,17,-1
 775 163 l 1,12,-1
EndSplineSet
EndChar

StartChar: uni0414
Encoding: 1044 1044 151
Width: 1028
Flags: W
LayerCount: 2
Fore
SplineSet
123 815 m 1,0,-1
 123 1271 l 1,1,-1
 188 1336 l 1,2,-1
 253 1271 l 1,3,-1
 253 815 l 1,4,-1
 188 750 l 1,5,-1
 123 815 l 1,0,-1
775 815 m 1,6,-1
 775 1271 l 1,7,-1
 840 1336 l 1,8,-1
 905 1271 l 1,9,-1
 905 815 l 1,10,-1
 840 750 l 1,11,-1
 775 815 l 1,6,-1
EndSplineSet
EndChar

StartChar: uni0415
Encoding: 1045 1045 152
Width: 1028
Flags: W
LayerCount: 2
Fore
SplineSet
123 815 m 1,0,-1
 123 1271 l 1,1,-1
 188 1336 l 1,2,-1
 253 1271 l 1,3,-1
 253 815 l 1,4,-1
 188 750 l 1,5,-1
 123 815 l 1,0,-1
221 65 m 1,6,-1
 286 131 l 1,7,-1
 742 131 l 1,8,-1
 807 65 l 1,9,-1
 742 0 l 1,10,-1
 286 0 l 1,11,-1
 221 65 l 1,6,-1
775 815 m 1,12,-1
 775 1271 l 1,13,-1
 840 1336 l 1,14,-1
 905 1271 l 1,15,-1
 905 815 l 1,16,-1
 840 750 l 1,17,-1
 775 815 l 1,12,-1
EndSplineSet
EndChar

StartChar: uni0416
Encoding: 1046 1046 153
Width: 1028
Flags: W
LayerCount: 2
Fore
SplineSet
123 815 m 1,0,-1
 123 1271 l 1,1,-1
 188 1336 l 1,2,-1
 253 1271 l 1,3,-1
 253 815 l 1,4,-1
 188 750 l 1,5,-1
 123 815 l 1,0,-1
775 163 m 1,6,-1
 775 619 l 1,7,-1
 840 684 l 1,8,-1
 905 619 l 1,9,-1
 905 163 l 1,10,-1
 840 98 l 1,11,-1
 775 163 l 1,6,-1
775 815 m 1,12,-1
 775 1271 l 1,13,-1
 840 1336 l 1,14,-1
 905 1271 l 1,15,-1
 905 815 l 1,16,-1
 840 750 l 1,17,-1
 775 815 l 1,12,-1
EndSplineSet
EndChar

StartChar: uni0417
Encoding: 1047 1047 154
Width: 1028
Flags: W
LayerCount: 2
Fore
SplineSet
123 815 m 1,0,-1
 123 1271 l 1,1,-1
 188 1336 l 1,2,-1
 253 1271 l 1,3,-1
 253 815 l 1,4,-1
 188 750 l 1,5,-1
 123 815 l 1,0,-1
221 65 m 1,6,-1
 286 131 l 1,7,-1
 742 131 l 1,8,-1
 807 65 l 1,9,-1
 742 0 l 1,10,-1
 286 0 l 1,11,-1
 221 65 l 1,6,-1
775 163 m 1,12,-1
 775 619 l 1,13,-1
 840 684 l 1,14,-1
 905 619 l 1,15,-1
 905 163 l 1,16,-1
 840 98 l 1,17,-1
 775 163 l 1,12,-1
775 815 m 1,18,-1
 775 1271 l 1,19,-1
 840 1336 l 1,20,-1
 905 1271 l 1,21,-1
 905 815 l 1,22,-1
 840 750 l 1,23,-1
 775 815 l 1,18,-1
EndSplineSet
EndChar

StartChar: uni0418
Encoding: 1048 1048 155
Width: 1028
Flags: W
LayerCount: 2
Fore
SplineSet
123 815 m 1,0,-1
 123 1271 l 1,1,-1
 188 1336 l 1,2,-1
 253 1271 l 1,3,-1
 253 815 l 1,4,-1
 188 750 l 1,5,-1
 123 815 l 1,0,-1
221 1369 m 1,6,-1
 286 1434 l 1,7,-1
 742 1434 l 1,8,-1
 807 1369 l 1,9,-1
 742 1304 l 1,10,-1
 286 1304 l 1,11,-1
 221 1369 l 1,6,-1
EndSplineSet
EndChar

StartChar: uni0419
Encoding: 1049 1049 156
Width: 1028
Flags: W
LayerCount: 2
Fore
SplineSet
123 815 m 1,0,-1
 123 1271 l 1,1,-1
 188 1336 l 1,2,-1
 253 1271 l 1,3,-1
 253 815 l 1,4,-1
 188 750 l 1,5,-1
 123 815 l 1,0,-1
221 65 m 1,6,-1
 286 131 l 1,7,-1
 742 131 l 1,8,-1
 807 65 l 1,9,-1
 742 0 l 1,10,-1
 286 0 l 1,11,-1
 221 65 l 1,6,-1
221 1369 m 1,12,-1
 286 1434 l 1,13,-1
 742 1434 l 1,14,-1
 807 1369 l 1,15,-1
 742 1304 l 1,16,-1
 286 1304 l 1,17,-1
 221 1369 l 1,12,-1
EndSplineSet
EndChar

StartChar: uni041A
Encoding: 1050 1050 157
Width: 1028
Flags: W
LayerCount: 2
Fore
SplineSet
123 815 m 1,0,-1
 123 1271 l 1,1,-1
 188 1336 l 1,2,-1
 253 1271 l 1,3,-1
 253 815 l 1,4,-1
 188 750 l 1,5,-1
 123 815 l 1,0,-1
221 1369 m 1,6,-1
 286 1434 l 1,7,-1
 742 1434 l 1,8,-1
 807 1369 l 1,9,-1
 742 1304 l 1,10,-1
 286 1304 l 1,11,-1
 221 1369 l 1,6,-1
775 163 m 1,12,-1
 775 619 l 1,13,-1
 840 684 l 1,14,-1
 905 619 l 1,15,-1
 905 163 l 1,16,-1
 840 98 l 1,17,-1
 775 163 l 1,12,-1
EndSplineSet
EndChar

StartChar: uni041B
Encoding: 1051 1051 158
Width: 1028
Flags: W
LayerCount: 2
Fore
SplineSet
123 815 m 1,0,-1
 123 1271 l 1,1,-1
 188 1336 l 1,2,-1
 253 1271 l 1,3,-1
 253 815 l 1,4,-1
 188 750 l 1,5,-1
 123 815 l 1,0,-1
221 65 m 1,6,-1
 286 131 l 1,7,-1
 742 131 l 1,8,-1
 807 65 l 1,9,-1
 742 0 l 1,10,-1
 286 0 l 1,11,-1
 221 65 l 1,6,-1
221 1369 m 1,12,-1
 286 1434 l 1,13,-1
 742 1434 l 1,14,-1
 807 1369 l 1,15,-1
 742 1304 l 1,16,-1
 286 1304 l 1,17,-1
 221 1369 l 1,12,-1
775 163 m 1,18,-1
 775 619 l 1,19,-1
 840 684 l 1,20,-1
 905 619 l 1,21,-1
 905 163 l 1,22,-1
 840 98 l 1,23,-1
 775 163 l 1,18,-1
EndSplineSet
EndChar

StartChar: uni041C
Encoding: 1052 1052 159
Width: 1028
Flags: W
LayerCount: 2
Fore
SplineSet
123 815 m 1,0,-1
 123 1271 l 1,1,-1
 188 1336 l 1,2,-1
 253 1271 l 1,3,-1
 253 815 l 1,4,-1
 188 750 l 1,5,-1
 123 815 l 1,0,-1
221 1369 m 1,6,-1
 286 1434 l 1,7,-1
 742 1434 l 1,8,-1
 807 1369 l 1,9,-1
 742 1304 l 1,10,-1
 286 1304 l 1,11,-1
 221 1369 l 1,6,-1
775 815 m 1,12,-1
 775 1271 l 1,13,-1
 840 1336 l 1,14,-1
 905 1271 l 1,15,-1
 905 815 l 1,16,-1
 840 750 l 1,17,-1
 775 815 l 1,12,-1
EndSplineSet
EndChar

StartChar: uni041D
Encoding: 1053 1053 160
Width: 1028
Flags: W
LayerCount: 2
Fore
SplineSet
123 815 m 1,0,-1
 123 1271 l 1,1,-1
 188 1336 l 1,2,-1
 253 1271 l 1,3,-1
 253 815 l 1,4,-1
 188 750 l 1,5,-1
 123 815 l 1,0,-1
221 65 m 1,6,-1
 286 131 l 1,7,-1
 742 131 l 1,8,-1
 807 65 l 1,9,-1
 742 0 l 1,10,-1
 286 0 l 1,11,-1
 221 65 l 1,6,-1
221 1369 m 1,12,-1
 286 1434 l 1,13,-1
 742 1434 l 1,14,-1
 807 1369 l 1,15,-1
 742 1304 l 1,16,-1
 286 1304 l 1,17,-1
 221 1369 l 1,12,-1
775 815 m 1,18,-1
 775 1271 l 1,19,-1
 840 1336 l 1,20,-1
 905 1271 l 1,21,-1
 905 815 l 1,22,-1
 840 750 l 1,23,-1
 775 815 l 1,18,-1
EndSplineSet
EndChar

StartChar: uni041E
Encoding: 1054 1054 161
Width: 1028
Flags: W
LayerCount: 2
Fore
SplineSet
123 815 m 1,0,-1
 123 1271 l 1,1,-1
 188 1336 l 1,2,-1
 253 1271 l 1,3,-1
 253 815 l 1,4,-1
 188 750 l 1,5,-1
 123 815 l 1,0,-1
221 1369 m 1,6,-1
 286 1434 l 1,7,-1
 742 1434 l 1,8,-1
 807 1369 l 1,9,-1
 742 1304 l 1,10,-1
 286 1304 l 1,11,-1
 221 1369 l 1,6,-1
775 163 m 1,12,-1
 775 619 l 1,13,-1
 840 684 l 1,14,-1
 905 619 l 1,15,-1
 905 163 l 1,16,-1
 840 98 l 1,17,-1
 775 163 l 1,12,-1
775 815 m 1,18,-1
 775 1271 l 1,19,-1
 840 1336 l 1,20,-1
 905 1271 l 1,21,-1
 905 815 l 1,22,-1
 840 750 l 1,23,-1
 775 815 l 1,18,-1
EndSplineSet
EndChar

StartChar: uni041F
Encoding: 1055 1055 162
Width: 1028
Flags: W
LayerCount: 2
Fore
SplineSet
123 815 m 1,0,-1
 123 1271 l 1,1,-1
 188 1336 l 1,2,-1
 253 1271 l 1,3,-1
 253 815 l 1,4,-1
 188 750 l 1,5,-1
 123 815 l 1,0,-1
221 65 m 1,6,-1
 286 131 l 1,7,-1
 742 131 l 1,8,-1
 807 65 l 1,9,-1
 742 0 l 1,10,-1
 286 0 l 1,11,-1
 221 65 l 1,6,-1
221 1369 m 1,12,-1
 286 1434 l 1,13,-1
 742 1434 l 1,14,-1
 807 1369 l 1,15,-1
 742 1304 l 1,16,-1
 286 1304 l 1,17,-1
 221 1369 l 1,12,-1
775 163 m 1,18,-1
 775 619 l 1,19,-1
 840 684 l 1,20,-1
 905 619 l 1,21,-1
 905 163 l 1,22,-1
 840 98 l 1,23,-1
 775 163 l 1,18,-1
775 815 m 1,24,-1
 775 1271 l 1,25,-1
 840 1336 l 1,26,-1
 905 1271 l 1,27,-1
 905 815 l 1,28,-1
 840 750 l 1,29,-1
 775 815 l 1,24,-1
EndSplineSet
EndChar

StartChar: uni0420
Encoding: 1056 1056 163
Width: 1028
Flags: W
LayerCount: 2
Fore
SplineSet
221 717 m 1,0,-1
 286 782 l 1,1,-1
 742 782 l 1,2,-1
 807 717 l 1,3,-1
 742 652 l 1,4,-1
 286 652 l 1,5,-1
 221 717 l 1,0,-1
EndSplineSet
EndChar

StartChar: uni0421
Encoding: 1057 1057 164
Width: 1028
Flags: W
LayerCount: 2
Fore
SplineSet
221 65 m 1,0,-1
 286 131 l 1,1,-1
 742 131 l 1,2,-1
 807 65 l 1,3,-1
 742 0 l 1,4,-1
 286 0 l 1,5,-1
 221 65 l 1,0,-1
221 717 m 1,6,-1
 286 782 l 1,7,-1
 742 782 l 1,8,-1
 807 717 l 1,9,-1
 742 652 l 1,10,-1
 286 652 l 1,11,-1
 221 717 l 1,6,-1
EndSplineSet
EndChar

StartChar: uni0422
Encoding: 1058 1058 165
Width: 1028
Flags: W
LayerCount: 2
Fore
SplineSet
221 717 m 1,0,-1
 286 782 l 1,1,-1
 742 782 l 1,2,-1
 807 717 l 1,3,-1
 742 652 l 1,4,-1
 286 652 l 1,5,-1
 221 717 l 1,0,-1
775 163 m 1,6,-1
 775 619 l 1,7,-1
 840 684 l 1,8,-1
 905 619 l 1,9,-1
 905 163 l 1,10,-1
 840 98 l 1,11,-1
 775 163 l 1,6,-1
EndSplineSet
EndChar

StartChar: uni0423
Encoding: 1059 1059 166
Width: 1028
Flags: W
LayerCount: 2
Fore
SplineSet
221 65 m 1,0,-1
 286 131 l 1,1,-1
 742 131 l 1,2,-1
 807 65 l 1,3,-1
 742 0 l 1,4,-1
 286 0 l 1,5,-1
 221 65 l 1,0,-1
221 717 m 1,6,-1
 286 782 l 1,7,-1
 742 782 l 1,8,-1
 807 717 l 1,9,-1
 742 652 l 1,10,-1
 286 652 l 1,11,-1
 221 717 l 1,6,-1
775 163 m 1,12,-1
 775 619 l 1,13,-1
 840 684 l 1,14,-1
 905 619 l 1,15,-1
 905 163 l 1,16,-1
 840 98 l 1,17,-1
 775 163 l 1,12,-1
EndSplineSet
EndChar

StartChar: uni0424
Encoding: 1060 1060 167
Width: 1028
Flags: W
LayerCount: 2
Fore
SplineSet
221 717 m 1,0,-1
 286 782 l 1,1,-1
 742 782 l 1,2,-1
 807 717 l 1,3,-1
 742 652 l 1,4,-1
 286 652 l 1,5,-1
 221 717 l 1,0,-1
775 815 m 1,6,-1
 775 1271 l 1,7,-1
 840 1336 l 1,8,-1
 905 1271 l 1,9,-1
 905 815 l 1,10,-1
 840 750 l 1,11,-1
 775 815 l 1,6,-1
EndSplineSet
EndChar

StartChar: uni0425
Encoding: 1061 1061 168
Width: 1028
Flags: W
LayerCount: 2
Fore
SplineSet
221 65 m 1,0,-1
 286 131 l 1,1,-1
 742 131 l 1,2,-1
 807 65 l 1,3,-1
 742 0 l 1,4,-1
 286 0 l 1,5,-1
 221 65 l 1,0,-1
221 717 m 1,6,-1
 286 782 l 1,7,-1
 742 782 l 1,8,-1
 807 717 l 1,9,-1
 742 652 l 1,10,-1
 286 652 l 1,11,-1
 221 717 l 1,6,-1
775 815 m 1,12,-1
 775 1271 l 1,13,-1
 840 1336 l 1,14,-1
 905 1271 l 1,15,-1
 905 815 l 1,16,-1
 840 750 l 1,17,-1
 775 815 l 1,12,-1
EndSplineSet
EndChar

StartChar: uni0426
Encoding: 1062 1062 169
Width: 1028
Flags: W
LayerCount: 2
Fore
SplineSet
221 717 m 1,0,-1
 286 782 l 1,1,-1
 742 782 l 1,2,-1
 807 717 l 1,3,-1
 742 652 l 1,4,-1
 286 652 l 1,5,-1
 221 717 l 1,0,-1
775 163 m 1,6,-1
 775 619 l 1,7,-1
 840 684 l 1,8,-1
 905 619 l 1,9,-1
 905 163 l 1,10,-1
 840 98 l 1,11,-1
 775 163 l 1,6,-1
775 815 m 1,12,-1
 775 1271 l 1,13,-1
 840 1336 l 1,14,-1
 905 1271 l 1,15,-1
 905 815 l 1,16,-1
 840 750 l 1,17,-1
 775 815 l 1,12,-1
EndSplineSet
EndChar

StartChar: uni0427
Encoding: 1063 1063 170
Width: 1028
Flags: W
LayerCount: 2
Fore
SplineSet
221 65 m 1,0,-1
 286 131 l 1,1,-1
 742 131 l 1,2,-1
 807 65 l 1,3,-1
 742 0 l 1,4,-1
 286 0 l 1,5,-1
 221 65 l 1,0,-1
221 717 m 1,6,-1
 286 782 l 1,7,-1
 742 782 l 1,8,-1
 807 717 l 1,9,-1
 742 652 l 1,10,-1
 286 652 l 1,11,-1
 221 717 l 1,6,-1
775 163 m 1,12,-1
 775 619 l 1,13,-1
 840 684 l 1,14,-1
 905 619 l 1,15,-1
 905 163 l 1,16,-1
 840 98 l 1,17,-1
 775 163 l 1,12,-1
775 815 m 1,18,-1
 775 1271 l 1,19,-1
 840 1336 l 1,20,-1
 905 1271 l 1,21,-1
 905 815 l 1,22,-1
 840 750 l 1,23,-1
 775 815 l 1,18,-1
EndSplineSet
EndChar

StartChar: uni0428
Encoding: 1064 1064 171
Width: 1028
Flags: W
LayerCount: 2
Fore
SplineSet
221 717 m 1,0,-1
 286 782 l 1,1,-1
 742 782 l 1,2,-1
 807 717 l 1,3,-1
 742 652 l 1,4,-1
 286 652 l 1,5,-1
 221 717 l 1,0,-1
221 1369 m 1,6,-1
 286 1434 l 1,7,-1
 742 1434 l 1,8,-1
 807 1369 l 1,9,-1
 742 1304 l 1,10,-1
 286 1304 l 1,11,-1
 221 1369 l 1,6,-1
EndSplineSet
EndChar

StartChar: uni0429
Encoding: 1065 1065 172
Width: 1028
Flags: W
LayerCount: 2
Fore
SplineSet
221 65 m 1,0,-1
 286 131 l 1,1,-1
 742 131 l 1,2,-1
 807 65 l 1,3,-1
 742 0 l 1,4,-1
 286 0 l 1,5,-1
 221 65 l 1,0,-1
221 717 m 1,6,-1
 286 782 l 1,7,-1
 742 782 l 1,8,-1
 807 717 l 1,9,-1
 742 652 l 1,10,-1
 286 652 l 1,11,-1
 221 717 l 1,6,-1
221 1369 m 1,12,-1
 286 1434 l 1,13,-1
 742 1434 l 1,14,-1
 807 1369 l 1,15,-1
 742 1304 l 1,16,-1
 286 1304 l 1,17,-1
 221 1369 l 1,12,-1
EndSplineSet
EndChar

StartChar: uni042A
Encoding: 1066 1066 173
Width: 1028
Flags: W
LayerCount: 2
Fore
SplineSet
221 717 m 1,0,-1
 286 782 l 1,1,-1
 742 782 l 1,2,-1
 807 717 l 1,3,-1
 742 652 l 1,4,-1
 286 652 l 1,5,-1
 221 717 l 1,0,-1
221 1369 m 1,6,-1
 286 1434 l 1,7,-1
 742 1434 l 1,8,-1
 807 1369 l 1,9,-1
 742 1304 l 1,10,-1
 286 1304 l 1,11,-1
 221 1369 l 1,6,-1
775 163 m 1,12,-1
 775 619 l 1,13,-1
 840 684 l 1,14,-1
 905 619 l 1,15,-1
 905 163 l 1,16,-1
 840 98 l 1,17,-1
 775 163 l 1,12,-1
EndSplineSet
EndChar

StartChar: uni042B
Encoding: 1067 1067 174
Width: 1028
Flags: W
LayerCount: 2
Fore
SplineSet
221 65 m 1,0,-1
 286 131 l 1,1,-1
 742 131 l 1,2,-1
 807 65 l 1,3,-1
 742 0 l 1,4,-1
 286 0 l 1,5,-1
 221 65 l 1,0,-1
221 717 m 1,6,-1
 286 782 l 1,7,-1
 742 782 l 1,8,-1
 807 717 l 1,9,-1
 742 652 l 1,10,-1
 286 652 l 1,11,-1
 221 717 l 1,6,-1
221 1369 m 1,12,-1
 286 1434 l 1,13,-1
 742 1434 l 1,14,-1
 807 1369 l 1,15,-1
 742 1304 l 1,16,-1
 286 1304 l 1,17,-1
 221 1369 l 1,12,-1
775 163 m 1,18,-1
 775 619 l 1,19,-1
 840 684 l 1,20,-1
 905 619 l 1,21,-1
 905 163 l 1,22,-1
 840 98 l 1,23,-1
 775 163 l 1,18,-1
EndSplineSet
EndChar

StartChar: uni042C
Encoding: 1068 1068 175
Width: 1028
Flags: W
LayerCount: 2
Fore
SplineSet
221 717 m 1,0,-1
 286 782 l 1,1,-1
 742 782 l 1,2,-1
 807 717 l 1,3,-1
 742 652 l 1,4,-1
 286 652 l 1,5,-1
 221 717 l 1,0,-1
221 1369 m 1,6,-1
 286 1434 l 1,7,-1
 742 1434 l 1,8,-1
 807 1369 l 1,9,-1
 742 1304 l 1,10,-1
 286 1304 l 1,11,-1
 221 1369 l 1,6,-1
775 815 m 1,12,-1
 775 1271 l 1,13,-1
 840 1336 l 1,14,-1
 905 1271 l 1,15,-1
 905 815 l 1,16,-1
 840 750 l 1,17,-1
 775 815 l 1,12,-1
EndSplineSet
EndChar

StartChar: uni042D
Encoding: 1069 1069 176
Width: 1028
Flags: W
LayerCount: 2
Fore
SplineSet
221 65 m 1,0,-1
 286 131 l 1,1,-1
 742 131 l 1,2,-1
 807 65 l 1,3,-1
 742 0 l 1,4,-1
 286 0 l 1,5,-1
 221 65 l 1,0,-1
221 717 m 1,6,-1
 286 782 l 1,7,-1
 742 782 l 1,8,-1
 807 717 l 1,9,-1
 742 652 l 1,10,-1
 286 652 l 1,11,-1
 221 717 l 1,6,-1
221 1369 m 1,12,-1
 286 1434 l 1,13,-1
 742 1434 l 1,14,-1
 807 1369 l 1,15,-1
 742 1304 l 1,16,-1
 286 1304 l 1,17,-1
 221 1369 l 1,12,-1
775 815 m 1,18,-1
 775 1271 l 1,19,-1
 840 1336 l 1,20,-1
 905 1271 l 1,21,-1
 905 815 l 1,22,-1
 840 750 l 1,23,-1
 775 815 l 1,18,-1
EndSplineSet
EndChar

StartChar: uni042E
Encoding: 1070 1070 177
Width: 1028
Flags: W
LayerCount: 2
Fore
SplineSet
221 717 m 1,0,-1
 286 782 l 1,1,-1
 742 782 l 1,2,-1
 807 717 l 1,3,-1
 742 652 l 1,4,-1
 286 652 l 1,5,-1
 221 717 l 1,0,-1
221 1369 m 1,6,-1
 286 1434 l 1,7,-1
 742 1434 l 1,8,-1
 807 1369 l 1,9,-1
 742 1304 l 1,10,-1
 286 1304 l 1,11,-1
 221 1369 l 1,6,-1
775 163 m 1,12,-1
 775 619 l 1,13,-1
 840 684 l 1,14,-1
 905 619 l 1,15,-1
 905 163 l 1,16,-1
 840 98 l 1,17,-1
 775 163 l 1,12,-1
775 815 m 1,18,-1
 775 1271 l 1,19,-1
 840 1336 l 1,20,-1
 905 1271 l 1,21,-1
 905 815 l 1,22,-1
 840 750 l 1,23,-1
 775 815 l 1,18,-1
EndSplineSet
EndChar

StartChar: uni042F
Encoding: 1071 1071 178
Width: 1028
Flags: W
LayerCount: 2
Fore
SplineSet
221 65 m 1,0,-1
 286 131 l 1,1,-1
 742 131 l 1,2,-1
 807 65 l 1,3,-1
 742 0 l 1,4,-1
 286 0 l 1,5,-1
 221 65 l 1,0,-1
221 717 m 1,6,-1
 286 782 l 1,7,-1
 742 782 l 1,8,-1
 807 717 l 1,9,-1
 742 652 l 1,10,-1
 286 652 l 1,11,-1
 221 717 l 1,6,-1
221 1369 m 1,12,-1
 286 1434 l 1,13,-1
 742 1434 l 1,14,-1
 807 1369 l 1,15,-1
 742 1304 l 1,16,-1
 286 1304 l 1,17,-1
 221 1369 l 1,12,-1
775 163 m 1,18,-1
 775 619 l 1,19,-1
 840 684 l 1,20,-1
 905 619 l 1,21,-1
 905 163 l 1,22,-1
 840 98 l 1,23,-1
 775 163 l 1,18,-1
775 815 m 1,24,-1
 775 1271 l 1,25,-1
 840 1336 l 1,26,-1
 905 1271 l 1,27,-1
 905 815 l 1,28,-1
 840 750 l 1,29,-1
 775 815 l 1,24,-1
EndSplineSet
EndChar

StartChar: uni0430
Encoding: 1072 1072 179
Width: 1028
Flags: W
LayerCount: 2
Fore
SplineSet
123 815 m 1,0,-1
 123 1271 l 1,1,-1
 188 1336 l 1,2,-1
 253 1271 l 1,3,-1
 253 815 l 1,4,-1
 188 750 l 1,5,-1
 123 815 l 1,0,-1
221 717 m 1,6,-1
 286 782 l 1,7,-1
 742 782 l 1,8,-1
 807 717 l 1,9,-1
 742 652 l 1,10,-1
 286 652 l 1,11,-1
 221 717 l 1,6,-1
EndSplineSet
EndChar

StartChar: uni0431
Encoding: 1073 1073 180
Width: 1028
Flags: W
LayerCount: 2
Fore
SplineSet
123 815 m 1,0,-1
 123 1271 l 1,1,-1
 188 1336 l 1,2,-1
 253 1271 l 1,3,-1
 253 815 l 1,4,-1
 188 750 l 1,5,-1
 123 815 l 1,0,-1
221 65 m 1,6,-1
 286 131 l 1,7,-1
 742 131 l 1,8,-1
 807 65 l 1,9,-1
 742 0 l 1,10,-1
 286 0 l 1,11,-1
 221 65 l 1,6,-1
221 717 m 1,12,-1
 286 782 l 1,13,-1
 742 782 l 1,14,-1
 807 717 l 1,15,-1
 742 652 l 1,16,-1
 286 652 l 1,17,-1
 221 717 l 1,12,-1
EndSplineSet
EndChar

StartChar: uni0432
Encoding: 1074 1074 181
Width: 1028
Flags: W
LayerCount: 2
Fore
SplineSet
123 815 m 1,0,-1
 123 1271 l 1,1,-1
 188 1336 l 1,2,-1
 253 1271 l 1,3,-1
 253 815 l 1,4,-1
 188 750 l 1,5,-1
 123 815 l 1,0,-1
221 717 m 1,6,-1
 286 782 l 1,7,-1
 742 782 l 1,8,-1
 807 717 l 1,9,-1
 742 652 l 1,10,-1
 286 652 l 1,11,-1
 221 717 l 1,6,-1
775 163 m 1,12,-1
 775 619 l 1,13,-1
 840 684 l 1,14,-1
 905 619 l 1,15,-1
 905 163 l 1,16,-1
 840 98 l 1,17,-1
 775 163 l 1,12,-1
EndSplineSet
EndChar

StartChar: uni0433
Encoding: 1075 1075 182
Width: 1028
Flags: W
LayerCount: 2
Fore
SplineSet
123 815 m 1,0,-1
 123 1271 l 1,1,-1
 188 1336 l 1,2,-1
 253 1271 l 1,3,-1
 253 815 l 1,4,-1
 188 750 l 1,5,-1
 123 815 l 1,0,-1
221 65 m 1,6,-1
 286 131 l 1,7,-1
 742 131 l 1,8,-1
 807 65 l 1,9,-1
 742 0 l 1,10,-1
 286 0 l 1,11,-1
 221 65 l 1,6,-1
221 717 m 1,12,-1
 286 782 l 1,13,-1
 742 782 l 1,14,-1
 807 717 l 1,15,-1
 742 652 l 1,16,-1
 286 652 l 1,17,-1
 221 717 l 1,12,-1
775 163 m 1,18,-1
 775 619 l 1,19,-1
 840 684 l 1,20,-1
 905 619 l 1,21,-1
 905 163 l 1,22,-1
 840 98 l 1,23,-1
 775 163 l 1,18,-1
EndSplineSet
EndChar

StartChar: uni0434
Encoding: 1076 1076 183
Width: 1028
Flags: W
LayerCount: 2
Fore
SplineSet
123 815 m 1,0,-1
 123 1271 l 1,1,-1
 188 1336 l 1,2,-1
 253 1271 l 1,3,-1
 253 815 l 1,4,-1
 188 750 l 1,5,-1
 123 815 l 1,0,-1
221 717 m 1,6,-1
 286 782 l 1,7,-1
 742 782 l 1,8,-1
 807 717 l 1,9,-1
 742 652 l 1,10,-1
 286 652 l 1,11,-1
 221 717 l 1,6,-1
775 815 m 1,12,-1
 775 1271 l 1,13,-1
 840 1336 l 1,14,-1
 905 1271 l 1,15,-1
 905 815 l 1,16,-1
 840 750 l 1,17,-1
 775 815 l 1,12,-1
EndSplineSet
EndChar

StartChar: uni0435
Encoding: 1077 1077 184
Width: 1028
Flags: W
LayerCount: 2
Fore
SplineSet
123 815 m 1,0,-1
 123 1271 l 1,1,-1
 188 1336 l 1,2,-1
 253 1271 l 1,3,-1
 253 815 l 1,4,-1
 188 750 l 1,5,-1
 123 815 l 1,0,-1
221 65 m 1,6,-1
 286 131 l 1,7,-1
 742 131 l 1,8,-1
 807 65 l 1,9,-1
 742 0 l 1,10,-1
 286 0 l 1,11,-1
 221 65 l 1,6,-1
221 717 m 1,12,-1
 286 782 l 1,13,-1
 742 782 l 1,14,-1
 807 717 l 1,15,-1
 742 652 l 1,16,-1
 286 652 l 1,17,-1
 221 717 l 1,12,-1
775 815 m 1,18,-1
 775 1271 l 1,19,-1
 840 1336 l 1,20,-1
 905 1271 l 1,21,-1
 905 815 l 1,22,-1
 840 750 l 1,23,-1
 775 815 l 1,18,-1
EndSplineSet
EndChar

StartChar: uni0436
Encoding: 1078 1078 185
Width: 1028
Flags: W
LayerCount: 2
Fore
SplineSet
123 815 m 1,0,-1
 123 1271 l 1,1,-1
 188 1336 l 1,2,-1
 253 1271 l 1,3,-1
 253 815 l 1,4,-1
 188 750 l 1,5,-1
 123 815 l 1,0,-1
221 717 m 1,6,-1
 286 782 l 1,7,-1
 742 782 l 1,8,-1
 807 717 l 1,9,-1
 742 652 l 1,10,-1
 286 652 l 1,11,-1
 221 717 l 1,6,-1
775 163 m 1,12,-1
 775 619 l 1,13,-1
 840 684 l 1,14,-1
 905 619 l 1,15,-1
 905 163 l 1,16,-1
 840 98 l 1,17,-1
 775 163 l 1,12,-1
775 815 m 1,18,-1
 775 1271 l 1,19,-1
 840 1336 l 1,20,-1
 905 1271 l 1,21,-1
 905 815 l 1,22,-1
 840 750 l 1,23,-1
 775 815 l 1,18,-1
EndSplineSet
EndChar

StartChar: uni0437
Encoding: 1079 1079 186
Width: 1028
Flags: W
LayerCount: 2
Fore
SplineSet
123 815 m 1,0,-1
 123 1271 l 1,1,-1
 188 1336 l 1,2,-1
 253 1271 l 1,3,-1
 253 815 l 1,4,-1
 188 750 l 1,5,-1
 123 815 l 1,0,-1
221 65 m 1,6,-1
 286 131 l 1,7,-1
 742 131 l 1,8,-1
 807 65 l 1,9,-1
 742 0 l 1,10,-1
 286 0 l 1,11,-1
 221 65 l 1,6,-1
221 717 m 1,12,-1
 286 782 l 1,13,-1
 742 782 l 1,14,-1
 807 717 l 1,15,-1
 742 652 l 1,16,-1
 286 652 l 1,17,-1
 221 717 l 1,12,-1
775 163 m 1,18,-1
 775 619 l 1,19,-1
 840 684 l 1,20,-1
 905 619 l 1,21,-1
 905 163 l 1,22,-1
 840 98 l 1,23,-1
 775 163 l 1,18,-1
775 815 m 1,24,-1
 775 1271 l 1,25,-1
 840 1336 l 1,26,-1
 905 1271 l 1,27,-1
 905 815 l 1,28,-1
 840 750 l 1,29,-1
 775 815 l 1,24,-1
EndSplineSet
EndChar

StartChar: uni0438
Encoding: 1080 1080 187
Width: 1028
Flags: W
LayerCount: 2
Fore
SplineSet
123 815 m 1,0,-1
 123 1271 l 1,1,-1
 188 1336 l 1,2,-1
 253 1271 l 1,3,-1
 253 815 l 1,4,-1
 188 750 l 1,5,-1
 123 815 l 1,0,-1
221 717 m 1,6,-1
 286 782 l 1,7,-1
 742 782 l 1,8,-1
 807 717 l 1,9,-1
 742 652 l 1,10,-1
 286 652 l 1,11,-1
 221 717 l 1,6,-1
221 1369 m 1,12,-1
 286 1434 l 1,13,-1
 742 1434 l 1,14,-1
 807 1369 l 1,15,-1
 742 1304 l 1,16,-1
 286 1304 l 1,17,-1
 221 1369 l 1,12,-1
EndSplineSet
EndChar

StartChar: uni0439
Encoding: 1081 1081 188
Width: 1028
Flags: W
LayerCount: 2
Fore
SplineSet
123 815 m 1,0,-1
 123 1271 l 1,1,-1
 188 1336 l 1,2,-1
 253 1271 l 1,3,-1
 253 815 l 1,4,-1
 188 750 l 1,5,-1
 123 815 l 1,0,-1
221 65 m 1,6,-1
 286 131 l 1,7,-1
 742 131 l 1,8,-1
 807 65 l 1,9,-1
 742 0 l 1,10,-1
 286 0 l 1,11,-1
 221 65 l 1,6,-1
221 717 m 1,12,-1
 286 782 l 1,13,-1
 742 782 l 1,14,-1
 807 717 l 1,15,-1
 742 652 l 1,16,-1
 286 652 l 1,17,-1
 221 717 l 1,12,-1
221 1369 m 1,18,-1
 286 1434 l 1,19,-1
 742 1434 l 1,20,-1
 807 1369 l 1,21,-1
 742 1304 l 1,22,-1
 286 1304 l 1,23,-1
 221 1369 l 1,18,-1
EndSplineSet
EndChar

StartChar: uni043A
Encoding: 1082 1082 189
Width: 1028
Flags: W
LayerCount: 2
Fore
SplineSet
123 815 m 1,0,-1
 123 1271 l 1,1,-1
 188 1336 l 1,2,-1
 253 1271 l 1,3,-1
 253 815 l 1,4,-1
 188 750 l 1,5,-1
 123 815 l 1,0,-1
221 717 m 1,6,-1
 286 782 l 1,7,-1
 742 782 l 1,8,-1
 807 717 l 1,9,-1
 742 652 l 1,10,-1
 286 652 l 1,11,-1
 221 717 l 1,6,-1
221 1369 m 1,12,-1
 286 1434 l 1,13,-1
 742 1434 l 1,14,-1
 807 1369 l 1,15,-1
 742 1304 l 1,16,-1
 286 1304 l 1,17,-1
 221 1369 l 1,12,-1
775 163 m 1,18,-1
 775 619 l 1,19,-1
 840 684 l 1,20,-1
 905 619 l 1,21,-1
 905 163 l 1,22,-1
 840 98 l 1,23,-1
 775 163 l 1,18,-1
EndSplineSet
EndChar

StartChar: uni043B
Encoding: 1083 1083 190
Width: 1028
Flags: W
LayerCount: 2
Fore
SplineSet
123 815 m 1,0,-1
 123 1271 l 1,1,-1
 188 1336 l 1,2,-1
 253 1271 l 1,3,-1
 253 815 l 1,4,-1
 188 750 l 1,5,-1
 123 815 l 1,0,-1
221 65 m 1,6,-1
 286 131 l 1,7,-1
 742 131 l 1,8,-1
 807 65 l 1,9,-1
 742 0 l 1,10,-1
 286 0 l 1,11,-1
 221 65 l 1,6,-1
221 717 m 1,12,-1
 286 782 l 1,13,-1
 742 782 l 1,14,-1
 807 717 l 1,15,-1
 742 652 l 1,16,-1
 286 652 l 1,17,-1
 221 717 l 1,12,-1
221 1369 m 1,18,-1
 286 1434 l 1,19,-1
 742 1434 l 1,20,-1
 807 1369 l 1,21,-1
 742 1304 l 1,22,-1
 286 1304 l 1,23,-1
 221 1369 l 1,18,-1
775 163 m 1,24,-1
 775 619 l 1,25,-1
 840 684 l 1,26,-1
 905 619 l 1,27,-1
 905 163 l 1,28,-1
 840 98 l 1,29,-1
 775 163 l 1,24,-1
EndSplineSet
EndChar

StartChar: uni043C
Encoding: 1084 1084 191
Width: 1028
Flags: W
LayerCount: 2
Fore
SplineSet
123 815 m 1,0,-1
 123 1271 l 1,1,-1
 188 1336 l 1,2,-1
 253 1271 l 1,3,-1
 253 815 l 1,4,-1
 188 750 l 1,5,-1
 123 815 l 1,0,-1
221 717 m 1,6,-1
 286 782 l 1,7,-1
 742 782 l 1,8,-1
 807 717 l 1,9,-1
 742 652 l 1,10,-1
 286 652 l 1,11,-1
 221 717 l 1,6,-1
221 1369 m 1,12,-1
 286 1434 l 1,13,-1
 742 1434 l 1,14,-1
 807 1369 l 1,15,-1
 742 1304 l 1,16,-1
 286 1304 l 1,17,-1
 221 1369 l 1,12,-1
775 815 m 1,18,-1
 775 1271 l 1,19,-1
 840 1336 l 1,20,-1
 905 1271 l 1,21,-1
 905 815 l 1,22,-1
 840 750 l 1,23,-1
 775 815 l 1,18,-1
EndSplineSet
EndChar

StartChar: uni043D
Encoding: 1085 1085 192
Width: 1028
Flags: W
LayerCount: 2
Fore
SplineSet
123 815 m 1,0,-1
 123 1271 l 1,1,-1
 188 1336 l 1,2,-1
 253 1271 l 1,3,-1
 253 815 l 1,4,-1
 188 750 l 1,5,-1
 123 815 l 1,0,-1
221 65 m 1,6,-1
 286 131 l 1,7,-1
 742 131 l 1,8,-1
 807 65 l 1,9,-1
 742 0 l 1,10,-1
 286 0 l 1,11,-1
 221 65 l 1,6,-1
221 717 m 1,12,-1
 286 782 l 1,13,-1
 742 782 l 1,14,-1
 807 717 l 1,15,-1
 742 652 l 1,16,-1
 286 652 l 1,17,-1
 221 717 l 1,12,-1
221 1369 m 1,18,-1
 286 1434 l 1,19,-1
 742 1434 l 1,20,-1
 807 1369 l 1,21,-1
 742 1304 l 1,22,-1
 286 1304 l 1,23,-1
 221 1369 l 1,18,-1
775 815 m 1,24,-1
 775 1271 l 1,25,-1
 840 1336 l 1,26,-1
 905 1271 l 1,27,-1
 905 815 l 1,28,-1
 840 750 l 1,29,-1
 775 815 l 1,24,-1
EndSplineSet
EndChar

StartChar: uni043E
Encoding: 1086 1086 193
Width: 1028
Flags: W
LayerCount: 2
Fore
SplineSet
123 815 m 1,0,-1
 123 1271 l 1,1,-1
 188 1336 l 1,2,-1
 253 1271 l 1,3,-1
 253 815 l 1,4,-1
 188 750 l 1,5,-1
 123 815 l 1,0,-1
221 717 m 1,6,-1
 286 782 l 1,7,-1
 742 782 l 1,8,-1
 807 717 l 1,9,-1
 742 652 l 1,10,-1
 286 652 l 1,11,-1
 221 717 l 1,6,-1
221 1369 m 1,12,-1
 286 1434 l 1,13,-1
 742 1434 l 1,14,-1
 807 1369 l 1,15,-1
 742 1304 l 1,16,-1
 286 1304 l 1,17,-1
 221 1369 l 1,12,-1
775 163 m 1,18,-1
 775 619 l 1,19,-1
 840 684 l 1,20,-1
 905 619 l 1,21,-1
 905 163 l 1,22,-1
 840 98 l 1,23,-1
 775 163 l 1,18,-1
775 815 m 1,24,-1
 775 1271 l 1,25,-1
 840 1336 l 1,26,-1
 905 1271 l 1,27,-1
 905 815 l 1,28,-1
 840 750 l 1,29,-1
 775 815 l 1,24,-1
EndSplineSet
EndChar

StartChar: uni043F
Encoding: 1087 1087 194
Width: 1028
Flags: W
LayerCount: 2
Fore
SplineSet
123 815 m 1,0,-1
 123 1271 l 1,1,-1
 188 1336 l 1,2,-1
 253 1271 l 1,3,-1
 253 815 l 1,4,-1
 188 750 l 1,5,-1
 123 815 l 1,0,-1
221 65 m 1,6,-1
 286 131 l 1,7,-1
 742 131 l 1,8,-1
 807 65 l 1,9,-1
 742 0 l 1,10,-1
 286 0 l 1,11,-1
 221 65 l 1,6,-1
221 717 m 1,12,-1
 286 782 l 1,13,-1
 742 782 l 1,14,-1
 807 717 l 1,15,-1
 742 652 l 1,16,-1
 286 652 l 1,17,-1
 221 717 l 1,12,-1
221 1369 m 1,18,-1
 286 1434 l 1,19,-1
 742 1434 l 1,20,-1
 807 1369 l 1,21,-1
 742 1304 l 1,22,-1
 286 1304 l 1,23,-1
 221 1369 l 1,18,-1
775 163 m 1,24,-1
 775 619 l 1,25,-1
 840 684 l 1,26,-1
 905 619 l 1,27,-1
 905 163 l 1,28,-1
 840 98 l 1,29,-1
 775 163 l 1,24,-1
775 815 m 1,30,-1
 775 1271 l 1,31,-1
 840 1336 l 1,32,-1
 905 1271 l 1,33,-1
 905 815 l 1,34,-1
 840 750 l 1,35,-1
 775 815 l 1,30,-1
EndSplineSet
EndChar

StartChar: uni0440
Encoding: 1088 1088 195
Width: 1028
Flags: W
LayerCount: 2
Fore
SplineSet
123 163 m 1,0,-1
 123 619 l 1,1,-1
 188 684 l 1,2,-1
 253 619 l 1,3,-1
 253 163 l 1,4,-1
 188 98 l 1,5,-1
 123 163 l 1,0,-1
EndSplineSet
EndChar

StartChar: uni0441
Encoding: 1089 1089 196
Width: 1028
Flags: W
LayerCount: 2
Fore
SplineSet
123 163 m 1,0,-1
 123 619 l 1,1,-1
 188 684 l 1,2,-1
 253 619 l 1,3,-1
 253 163 l 1,4,-1
 188 98 l 1,5,-1
 123 163 l 1,0,-1
221 65 m 1,6,-1
 286 131 l 1,7,-1
 742 131 l 1,8,-1
 807 65 l 1,9,-1
 742 0 l 1,10,-1
 286 0 l 1,11,-1
 221 65 l 1,6,-1
EndSplineSet
EndChar

StartChar: uni0442
Encoding: 1090 1090 197
Width: 1028
Flags: W
LayerCount: 2
Fore
SplineSet
123 163 m 1,0,-1
 123 619 l 1,1,-1
 188 684 l 1,2,-1
 253 619 l 1,3,-1
 253 163 l 1,4,-1
 188 98 l 1,5,-1
 123 163 l 1,0,-1
775 163 m 1,6,-1
 775 619 l 1,7,-1
 840 684 l 1,8,-1
 905 619 l 1,9,-1
 905 163 l 1,10,-1
 840 98 l 1,11,-1
 775 163 l 1,6,-1
EndSplineSet
EndChar

StartChar: uni0443
Encoding: 1091 1091 198
Width: 1028
Flags: W
LayerCount: 2
Fore
SplineSet
123 163 m 1,0,-1
 123 619 l 1,1,-1
 188 684 l 1,2,-1
 253 619 l 1,3,-1
 253 163 l 1,4,-1
 188 98 l 1,5,-1
 123 163 l 1,0,-1
221 65 m 1,6,-1
 286 131 l 1,7,-1
 742 131 l 1,8,-1
 807 65 l 1,9,-1
 742 0 l 1,10,-1
 286 0 l 1,11,-1
 221 65 l 1,6,-1
775 163 m 1,12,-1
 775 619 l 1,13,-1
 840 684 l 1,14,-1
 905 619 l 1,15,-1
 905 163 l 1,16,-1
 840 98 l 1,17,-1
 775 163 l 1,12,-1
EndSplineSet
EndChar

StartChar: uni0444
Encoding: 1092 1092 199
Width: 1028
Flags: W
LayerCount: 2
Fore
SplineSet
123 163 m 1,0,-1
 123 619 l 1,1,-1
 188 684 l 1,2,-1
 253 619 l 1,3,-1
 253 163 l 1,4,-1
 188 98 l 1,5,-1
 123 163 l 1,0,-1
775 815 m 1,6,-1
 775 1271 l 1,7,-1
 840 1336 l 1,8,-1
 905 1271 l 1,9,-1
 905 815 l 1,10,-1
 840 750 l 1,11,-1
 775 815 l 1,6,-1
EndSplineSet
EndChar

StartChar: uni0445
Encoding: 1093 1093 200
Width: 1028
Flags: W
LayerCount: 2
Fore
SplineSet
123 163 m 1,0,-1
 123 619 l 1,1,-1
 188 684 l 1,2,-1
 253 619 l 1,3,-1
 253 163 l 1,4,-1
 188 98 l 1,5,-1
 123 163 l 1,0,-1
221 65 m 1,6,-1
 286 131 l 1,7,-1
 742 131 l 1,8,-1
 807 65 l 1,9,-1
 742 0 l 1,10,-1
 286 0 l 1,11,-1
 221 65 l 1,6,-1
775 815 m 1,12,-1
 775 1271 l 1,13,-1
 840 1336 l 1,14,-1
 905 1271 l 1,15,-1
 905 815 l 1,16,-1
 840 750 l 1,17,-1
 775 815 l 1,12,-1
EndSplineSet
EndChar

StartChar: uni0446
Encoding: 1094 1094 201
Width: 1028
Flags: W
LayerCount: 2
Fore
SplineSet
123 163 m 1,0,-1
 123 619 l 1,1,-1
 188 684 l 1,2,-1
 253 619 l 1,3,-1
 253 163 l 1,4,-1
 188 98 l 1,5,-1
 123 163 l 1,0,-1
775 163 m 1,6,-1
 775 619 l 1,7,-1
 840 684 l 1,8,-1
 905 619 l 1,9,-1
 905 163 l 1,10,-1
 840 98 l 1,11,-1
 775 163 l 1,6,-1
775 815 m 1,12,-1
 775 1271 l 1,13,-1
 840 1336 l 1,14,-1
 905 1271 l 1,15,-1
 905 815 l 1,16,-1
 840 750 l 1,17,-1
 775 815 l 1,12,-1
EndSplineSet
EndChar

StartChar: uni0447
Encoding: 1095 1095 202
Width: 1028
Flags: W
LayerCount: 2
Fore
SplineSet
123 163 m 1,0,-1
 123 619 l 1,1,-1
 188 684 l 1,2,-1
 253 619 l 1,3,-1
 253 163 l 1,4,-1
 188 98 l 1,5,-1
 123 163 l 1,0,-1
221 65 m 1,6,-1
 286 131 l 1,7,-1
 742 131 l 1,8,-1
 807 65 l 1,9,-1
 742 0 l 1,10,-1
 286 0 l 1,11,-1
 221 65 l 1,6,-1
775 163 m 1,12,-1
 775 619 l 1,13,-1
 840 684 l 1,14,-1
 905 619 l 1,15,-1
 905 163 l 1,16,-1
 840 98 l 1,17,-1
 775 163 l 1,12,-1
775 815 m 1,18,-1
 775 1271 l 1,19,-1
 840 1336 l 1,20,-1
 905 1271 l 1,21,-1
 905 815 l 1,22,-1
 840 750 l 1,23,-1
 775 815 l 1,18,-1
EndSplineSet
EndChar

StartChar: uni0448
Encoding: 1096 1096 203
Width: 1028
Flags: W
LayerCount: 2
Fore
SplineSet
123 163 m 1,0,-1
 123 619 l 1,1,-1
 188 684 l 1,2,-1
 253 619 l 1,3,-1
 253 163 l 1,4,-1
 188 98 l 1,5,-1
 123 163 l 1,0,-1
221 1369 m 1,6,-1
 286 1434 l 1,7,-1
 742 1434 l 1,8,-1
 807 1369 l 1,9,-1
 742 1304 l 1,10,-1
 286 1304 l 1,11,-1
 221 1369 l 1,6,-1
EndSplineSet
EndChar

StartChar: uni0449
Encoding: 1097 1097 204
Width: 1028
Flags: W
LayerCount: 2
Fore
SplineSet
123 163 m 1,0,-1
 123 619 l 1,1,-1
 188 684 l 1,2,-1
 253 619 l 1,3,-1
 253 163 l 1,4,-1
 188 98 l 1,5,-1
 123 163 l 1,0,-1
221 65 m 1,6,-1
 286 131 l 1,7,-1
 742 131 l 1,8,-1
 807 65 l 1,9,-1
 742 0 l 1,10,-1
 286 0 l 1,11,-1
 221 65 l 1,6,-1
221 1369 m 1,12,-1
 286 1434 l 1,13,-1
 742 1434 l 1,14,-1
 807 1369 l 1,15,-1
 742 1304 l 1,16,-1
 286 1304 l 1,17,-1
 221 1369 l 1,12,-1
EndSplineSet
EndChar

StartChar: uni044A
Encoding: 1098 1098 205
Width: 1028
Flags: W
LayerCount: 2
Fore
SplineSet
123 163 m 1,0,-1
 123 619 l 1,1,-1
 188 684 l 1,2,-1
 253 619 l 1,3,-1
 253 163 l 1,4,-1
 188 98 l 1,5,-1
 123 163 l 1,0,-1
221 1369 m 1,6,-1
 286 1434 l 1,7,-1
 742 1434 l 1,8,-1
 807 1369 l 1,9,-1
 742 1304 l 1,10,-1
 286 1304 l 1,11,-1
 221 1369 l 1,6,-1
775 163 m 1,12,-1
 775 619 l 1,13,-1
 840 684 l 1,14,-1
 905 619 l 1,15,-1
 905 163 l 1,16,-1
 840 98 l 1,17,-1
 775 163 l 1,12,-1
EndSplineSet
EndChar

StartChar: uni044B
Encoding: 1099 1099 206
Width: 1028
Flags: W
LayerCount: 2
Fore
SplineSet
123 163 m 1,0,-1
 123 619 l 1,1,-1
 188 684 l 1,2,-1
 253 619 l 1,3,-1
 253 163 l 1,4,-1
 188 98 l 1,5,-1
 123 163 l 1,0,-1
221 65 m 1,6,-1
 286 131 l 1,7,-1
 742 131 l 1,8,-1
 807 65 l 1,9,-1
 742 0 l 1,10,-1
 286 0 l 1,11,-1
 221 65 l 1,6,-1
221 1369 m 1,12,-1
 286 1434 l 1,13,-1
 742 1434 l 1,14,-1
 807 1369 l 1,15,-1
 742 1304 l 1,16,-1
 286 1304 l 1,17,-1
 221 1369 l 1,12,-1
775 163 m 1,18,-1
 775 619 l 1,19,-1
 840 684 l 1,20,-1
 905 619 l 1,21,-1
 905 163 l 1,22,-1
 840 98 l 1,23,-1
 775 163 l 1,18,-1
EndSplineSet
EndChar

StartChar: uni044C
Encoding: 1100 1100 207
Width: 1028
Flags: W
LayerCount: 2
Fore
SplineSet
123 163 m 1,0,-1
 123 619 l 1,1,-1
 188 684 l 1,2,-1
 253 619 l 1,3,-1
 253 163 l 1,4,-1
 188 98 l 1,5,-1
 123 163 l 1,0,-1
221 1369 m 1,6,-1
 286 1434 l 1,7,-1
 742 1434 l 1,8,-1
 807 1369 l 1,9,-1
 742 1304 l 1,10,-1
 286 1304 l 1,11,-1
 221 1369 l 1,6,-1
775 815 m 1,12,-1
 775 1271 l 1,13,-1
 840 1336 l 1,14,-1
 905 1271 l 1,15,-1
 905 815 l 1,16,-1
 840 750 l 1,17,-1
 775 815 l 1,12,-1
EndSplineSet
EndChar

StartChar: uni044D
Encoding: 1101 1101 208
Width: 1028
Flags: W
LayerCount: 2
Fore
SplineSet
123 163 m 1,0,-1
 123 619 l 1,1,-1
 188 684 l 1,2,-1
 253 619 l 1,3,-1
 253 163 l 1,4,-1
 188 98 l 1,5,-1
 123 163 l 1,0,-1
221 65 m 1,6,-1
 286 131 l 1,7,-1
 742 131 l 1,8,-1
 807 65 l 1,9,-1
 742 0 l 1,10,-1
 286 0 l 1,11,-1
 221 65 l 1,6,-1
221 1369 m 1,12,-1
 286 1434 l 1,13,-1
 742 1434 l 1,14,-1
 807 1369 l 1,15,-1
 742 1304 l 1,16,-1
 286 1304 l 1,17,-1
 221 1369 l 1,12,-1
775 815 m 1,18,-1
 775 1271 l 1,19,-1
 840 1336 l 1,20,-1
 905 1271 l 1,21,-1
 905 815 l 1,22,-1
 840 750 l 1,23,-1
 775 815 l 1,18,-1
EndSplineSet
EndChar

StartChar: uni044E
Encoding: 1102 1102 209
Width: 1028
Flags: W
LayerCount: 2
Fore
SplineSet
123 163 m 1,0,-1
 123 619 l 1,1,-1
 188 684 l 1,2,-1
 253 619 l 1,3,-1
 253 163 l 1,4,-1
 188 98 l 1,5,-1
 123 163 l 1,0,-1
221 1369 m 1,6,-1
 286 1434 l 1,7,-1
 742 1434 l 1,8,-1
 807 1369 l 1,9,-1
 742 1304 l 1,10,-1
 286 1304 l 1,11,-1
 221 1369 l 1,6,-1
775 163 m 1,12,-1
 775 619 l 1,13,-1
 840 684 l 1,14,-1
 905 619 l 1,15,-1
 905 163 l 1,16,-1
 840 98 l 1,17,-1
 775 163 l 1,12,-1
775 815 m 1,18,-1
 775 1271 l 1,19,-1
 840 1336 l 1,20,-1
 905 1271 l 1,21,-1
 905 815 l 1,22,-1
 840 750 l 1,23,-1
 775 815 l 1,18,-1
EndSplineSet
EndChar

StartChar: uni044F
Encoding: 1103 1103 210
Width: 1028
Flags: W
LayerCount: 2
Fore
SplineSet
123 163 m 1,0,-1
 123 619 l 1,1,-1
 188 684 l 1,2,-1
 253 619 l 1,3,-1
 253 163 l 1,4,-1
 188 98 l 1,5,-1
 123 163 l 1,0,-1
221 65 m 1,6,-1
 286 131 l 1,7,-1
 742 131 l 1,8,-1
 807 65 l 1,9,-1
 742 0 l 1,10,-1
 286 0 l 1,11,-1
 221 65 l 1,6,-1
221 1369 m 1,12,-1
 286 1434 l 1,13,-1
 742 1434 l 1,14,-1
 807 1369 l 1,15,-1
 742 1304 l 1,16,-1
 286 1304 l 1,17,-1
 221 1369 l 1,12,-1
775 163 m 1,18,-1
 775 619 l 1,19,-1
 840 684 l 1,20,-1
 905 619 l 1,21,-1
 905 163 l 1,22,-1
 840 98 l 1,23,-1
 775 163 l 1,18,-1
775 815 m 1,24,-1
 775 1271 l 1,25,-1
 840 1336 l 1,26,-1
 905 1271 l 1,27,-1
 905 815 l 1,28,-1
 840 750 l 1,29,-1
 775 815 l 1,24,-1
EndSplineSet
EndChar

StartChar: uni0450
Encoding: 1104 1104 211
Width: 1028
Flags: W
LayerCount: 2
Fore
SplineSet
123 163 m 1,0,-1
 123 619 l 1,1,-1
 188 684 l 1,2,-1
 253 619 l 1,3,-1
 253 163 l 1,4,-1
 188 98 l 1,5,-1
 123 163 l 1,0,-1
123 815 m 1,6,-1
 123 1271 l 1,7,-1
 188 1336 l 1,8,-1
 253 1271 l 1,9,-1
 253 815 l 1,10,-1
 188 750 l 1,11,-1
 123 815 l 1,6,-1
EndSplineSet
EndChar

StartChar: uni0451
Encoding: 1105 1105 212
Width: 1028
Flags: W
LayerCount: 2
Fore
SplineSet
123 163 m 1,0,-1
 123 619 l 1,1,-1
 188 684 l 1,2,-1
 253 619 l 1,3,-1
 253 163 l 1,4,-1
 188 98 l 1,5,-1
 123 163 l 1,0,-1
123 815 m 1,6,-1
 123 1271 l 1,7,-1
 188 1336 l 1,8,-1
 253 1271 l 1,9,-1
 253 815 l 1,10,-1
 188 750 l 1,11,-1
 123 815 l 1,6,-1
221 65 m 1,12,-1
 286 131 l 1,13,-1
 742 131 l 1,14,-1
 807 65 l 1,15,-1
 742 0 l 1,16,-1
 286 0 l 1,17,-1
 221 65 l 1,12,-1
EndSplineSet
EndChar

StartChar: uni0452
Encoding: 1106 1106 213
Width: 1028
Flags: W
LayerCount: 2
Fore
SplineSet
123 163 m 1,0,-1
 123 619 l 1,1,-1
 188 684 l 1,2,-1
 253 619 l 1,3,-1
 253 163 l 1,4,-1
 188 98 l 1,5,-1
 123 163 l 1,0,-1
123 815 m 1,6,-1
 123 1271 l 1,7,-1
 188 1336 l 1,8,-1
 253 1271 l 1,9,-1
 253 815 l 1,10,-1
 188 750 l 1,11,-1
 123 815 l 1,6,-1
775 163 m 1,12,-1
 775 619 l 1,13,-1
 840 684 l 1,14,-1
 905 619 l 1,15,-1
 905 163 l 1,16,-1
 840 98 l 1,17,-1
 775 163 l 1,12,-1
EndSplineSet
EndChar

StartChar: uni0453
Encoding: 1107 1107 214
Width: 1028
Flags: W
LayerCount: 2
Fore
SplineSet
123 163 m 1,0,-1
 123 619 l 1,1,-1
 188 684 l 1,2,-1
 253 619 l 1,3,-1
 253 163 l 1,4,-1
 188 98 l 1,5,-1
 123 163 l 1,0,-1
123 815 m 1,6,-1
 123 1271 l 1,7,-1
 188 1336 l 1,8,-1
 253 1271 l 1,9,-1
 253 815 l 1,10,-1
 188 750 l 1,11,-1
 123 815 l 1,6,-1
221 65 m 1,12,-1
 286 131 l 1,13,-1
 742 131 l 1,14,-1
 807 65 l 1,15,-1
 742 0 l 1,16,-1
 286 0 l 1,17,-1
 221 65 l 1,12,-1
775 163 m 1,18,-1
 775 619 l 1,19,-1
 840 684 l 1,20,-1
 905 619 l 1,21,-1
 905 163 l 1,22,-1
 840 98 l 1,23,-1
 775 163 l 1,18,-1
EndSplineSet
EndChar

StartChar: uni0454
Encoding: 1108 1108 215
Width: 1028
Flags: W
LayerCount: 2
Fore
SplineSet
123 163 m 1,0,-1
 123 619 l 1,1,-1
 188 684 l 1,2,-1
 253 619 l 1,3,-1
 253 163 l 1,4,-1
 188 98 l 1,5,-1
 123 163 l 1,0,-1
123 815 m 1,6,-1
 123 1271 l 1,7,-1
 188 1336 l 1,8,-1
 253 1271 l 1,9,-1
 253 815 l 1,10,-1
 188 750 l 1,11,-1
 123 815 l 1,6,-1
775 815 m 1,12,-1
 775 1271 l 1,13,-1
 840 1336 l 1,14,-1
 905 1271 l 1,15,-1
 905 815 l 1,16,-1
 840 750 l 1,17,-1
 775 815 l 1,12,-1
EndSplineSet
EndChar

StartChar: uni0455
Encoding: 1109 1109 216
Width: 1028
Flags: W
LayerCount: 2
Fore
SplineSet
123 163 m 1,0,-1
 123 619 l 1,1,-1
 188 684 l 1,2,-1
 253 619 l 1,3,-1
 253 163 l 1,4,-1
 188 98 l 1,5,-1
 123 163 l 1,0,-1
123 815 m 1,6,-1
 123 1271 l 1,7,-1
 188 1336 l 1,8,-1
 253 1271 l 1,9,-1
 253 815 l 1,10,-1
 188 750 l 1,11,-1
 123 815 l 1,6,-1
221 65 m 1,12,-1
 286 131 l 1,13,-1
 742 131 l 1,14,-1
 807 65 l 1,15,-1
 742 0 l 1,16,-1
 286 0 l 1,17,-1
 221 65 l 1,12,-1
775 815 m 1,18,-1
 775 1271 l 1,19,-1
 840 1336 l 1,20,-1
 905 1271 l 1,21,-1
 905 815 l 1,22,-1
 840 750 l 1,23,-1
 775 815 l 1,18,-1
EndSplineSet
EndChar

StartChar: uni0456
Encoding: 1110 1110 217
Width: 1028
Flags: W
LayerCount: 2
Fore
SplineSet
123 163 m 1,0,-1
 123 619 l 1,1,-1
 188 684 l 1,2,-1
 253 619 l 1,3,-1
 253 163 l 1,4,-1
 188 98 l 1,5,-1
 123 163 l 1,0,-1
123 815 m 1,6,-1
 123 1271 l 1,7,-1
 188 1336 l 1,8,-1
 253 1271 l 1,9,-1
 253 815 l 1,10,-1
 188 750 l 1,11,-1
 123 815 l 1,6,-1
775 163 m 1,12,-1
 775 619 l 1,13,-1
 840 684 l 1,14,-1
 905 619 l 1,15,-1
 905 163 l 1,16,-1
 840 98 l 1,17,-1
 775 163 l 1,12,-1
775 815 m 1,18,-1
 775 1271 l 1,19,-1
 840 1336 l 1,20,-1
 905 1271 l 1,21,-1
 905 815 l 1,22,-1
 840 750 l 1,23,-1
 775 815 l 1,18,-1
EndSplineSet
EndChar

StartChar: uni0457
Encoding: 1111 1111 218
Width: 1028
Flags: W
LayerCount: 2
Fore
SplineSet
123 163 m 1,0,-1
 123 619 l 1,1,-1
 188 684 l 1,2,-1
 253 619 l 1,3,-1
 253 163 l 1,4,-1
 188 98 l 1,5,-1
 123 163 l 1,0,-1
123 815 m 1,6,-1
 123 1271 l 1,7,-1
 188 1336 l 1,8,-1
 253 1271 l 1,9,-1
 253 815 l 1,10,-1
 188 750 l 1,11,-1
 123 815 l 1,6,-1
221 65 m 1,12,-1
 286 131 l 1,13,-1
 742 131 l 1,14,-1
 807 65 l 1,15,-1
 742 0 l 1,16,-1
 286 0 l 1,17,-1
 221 65 l 1,12,-1
775 163 m 1,18,-1
 775 619 l 1,19,-1
 840 684 l 1,20,-1
 905 619 l 1,21,-1
 905 163 l 1,22,-1
 840 98 l 1,23,-1
 775 163 l 1,18,-1
775 815 m 1,24,-1
 775 1271 l 1,25,-1
 840 1336 l 1,26,-1
 905 1271 l 1,27,-1
 905 815 l 1,28,-1
 840 750 l 1,29,-1
 775 815 l 1,24,-1
EndSplineSet
EndChar

StartChar: uni0458
Encoding: 1112 1112 219
Width: 1028
Flags: W
LayerCount: 2
Fore
SplineSet
123 163 m 1,0,-1
 123 619 l 1,1,-1
 188 684 l 1,2,-1
 253 619 l 1,3,-1
 253 163 l 1,4,-1
 188 98 l 1,5,-1
 123 163 l 1,0,-1
123 815 m 1,6,-1
 123 1271 l 1,7,-1
 188 1336 l 1,8,-1
 253 1271 l 1,9,-1
 253 815 l 1,10,-1
 188 750 l 1,11,-1
 123 815 l 1,6,-1
221 1369 m 1,12,-1
 286 1434 l 1,13,-1
 742 1434 l 1,14,-1
 807 1369 l 1,15,-1
 742 1304 l 1,16,-1
 286 1304 l 1,17,-1
 221 1369 l 1,12,-1
EndSplineSet
EndChar

StartChar: uni0459
Encoding: 1113 1113 220
Width: 1028
Flags: W
LayerCount: 2
Fore
SplineSet
123 163 m 1,0,-1
 123 619 l 1,1,-1
 188 684 l 1,2,-1
 253 619 l 1,3,-1
 253 163 l 1,4,-1
 188 98 l 1,5,-1
 123 163 l 1,0,-1
123 815 m 1,6,-1
 123 1271 l 1,7,-1
 188 1336 l 1,8,-1
 253 1271 l 1,9,-1
 253 815 l 1,10,-1
 188 750 l 1,11,-1
 123 815 l 1,6,-1
221 65 m 1,12,-1
 286 131 l 1,13,-1
 742 131 l 1,14,-1
 807 65 l 1,15,-1
 742 0 l 1,16,-1
 286 0 l 1,17,-1
 221 65 l 1,12,-1
221 1369 m 1,18,-1
 286 1434 l 1,19,-1
 742 1434 l 1,20,-1
 807 1369 l 1,21,-1
 742 1304 l 1,22,-1
 286 1304 l 1,23,-1
 221 1369 l 1,18,-1
EndSplineSet
EndChar

StartChar: uni045A
Encoding: 1114 1114 221
Width: 1028
Flags: W
LayerCount: 2
Fore
SplineSet
123 163 m 1,0,-1
 123 619 l 1,1,-1
 188 684 l 1,2,-1
 253 619 l 1,3,-1
 253 163 l 1,4,-1
 188 98 l 1,5,-1
 123 163 l 1,0,-1
123 815 m 1,6,-1
 123 1271 l 1,7,-1
 188 1336 l 1,8,-1
 253 1271 l 1,9,-1
 253 815 l 1,10,-1
 188 750 l 1,11,-1
 123 815 l 1,6,-1
221 1369 m 1,12,-1
 286 1434 l 1,13,-1
 742 1434 l 1,14,-1
 807 1369 l 1,15,-1
 742 1304 l 1,16,-1
 286 1304 l 1,17,-1
 221 1369 l 1,12,-1
775 163 m 1,18,-1
 775 619 l 1,19,-1
 840 684 l 1,20,-1
 905 619 l 1,21,-1
 905 163 l 1,22,-1
 840 98 l 1,23,-1
 775 163 l 1,18,-1
EndSplineSet
EndChar

StartChar: uni045B
Encoding: 1115 1115 222
Width: 1028
Flags: W
LayerCount: 2
Fore
SplineSet
123 163 m 1,0,-1
 123 619 l 1,1,-1
 188 684 l 1,2,-1
 253 619 l 1,3,-1
 253 163 l 1,4,-1
 188 98 l 1,5,-1
 123 163 l 1,0,-1
123 815 m 1,6,-1
 123 1271 l 1,7,-1
 188 1336 l 1,8,-1
 253 1271 l 1,9,-1
 253 815 l 1,10,-1
 188 750 l 1,11,-1
 123 815 l 1,6,-1
221 65 m 1,12,-1
 286 131 l 1,13,-1
 742 131 l 1,14,-1
 807 65 l 1,15,-1
 742 0 l 1,16,-1
 286 0 l 1,17,-1
 221 65 l 1,12,-1
221 1369 m 1,18,-1
 286 1434 l 1,19,-1
 742 1434 l 1,20,-1
 807 1369 l 1,21,-1
 742 1304 l 1,22,-1
 286 1304 l 1,23,-1
 221 1369 l 1,18,-1
775 163 m 1,24,-1
 775 619 l 1,25,-1
 840 684 l 1,26,-1
 905 619 l 1,27,-1
 905 163 l 1,28,-1
 840 98 l 1,29,-1
 775 163 l 1,24,-1
EndSplineSet
EndChar

StartChar: uni045C
Encoding: 1116 1116 223
Width: 1028
Flags: W
LayerCount: 2
Fore
SplineSet
123 163 m 1,0,-1
 123 619 l 1,1,-1
 188 684 l 1,2,-1
 253 619 l 1,3,-1
 253 163 l 1,4,-1
 188 98 l 1,5,-1
 123 163 l 1,0,-1
123 815 m 1,6,-1
 123 1271 l 1,7,-1
 188 1336 l 1,8,-1
 253 1271 l 1,9,-1
 253 815 l 1,10,-1
 188 750 l 1,11,-1
 123 815 l 1,6,-1
221 1369 m 1,12,-1
 286 1434 l 1,13,-1
 742 1434 l 1,14,-1
 807 1369 l 1,15,-1
 742 1304 l 1,16,-1
 286 1304 l 1,17,-1
 221 1369 l 1,12,-1
775 815 m 1,18,-1
 775 1271 l 1,19,-1
 840 1336 l 1,20,-1
 905 1271 l 1,21,-1
 905 815 l 1,22,-1
 840 750 l 1,23,-1
 775 815 l 1,18,-1
EndSplineSet
EndChar

StartChar: uni045D
Encoding: 1117 1117 224
Width: 1028
Flags: W
LayerCount: 2
Fore
SplineSet
123 163 m 1,0,-1
 123 619 l 1,1,-1
 188 684 l 1,2,-1
 253 619 l 1,3,-1
 253 163 l 1,4,-1
 188 98 l 1,5,-1
 123 163 l 1,0,-1
123 815 m 1,6,-1
 123 1271 l 1,7,-1
 188 1336 l 1,8,-1
 253 1271 l 1,9,-1
 253 815 l 1,10,-1
 188 750 l 1,11,-1
 123 815 l 1,6,-1
221 65 m 1,12,-1
 286 131 l 1,13,-1
 742 131 l 1,14,-1
 807 65 l 1,15,-1
 742 0 l 1,16,-1
 286 0 l 1,17,-1
 221 65 l 1,12,-1
221 1369 m 1,18,-1
 286 1434 l 1,19,-1
 742 1434 l 1,20,-1
 807 1369 l 1,21,-1
 742 1304 l 1,22,-1
 286 1304 l 1,23,-1
 221 1369 l 1,18,-1
775 815 m 1,24,-1
 775 1271 l 1,25,-1
 840 1336 l 1,26,-1
 905 1271 l 1,27,-1
 905 815 l 1,28,-1
 840 750 l 1,29,-1
 775 815 l 1,24,-1
EndSplineSet
EndChar

StartChar: uni045E
Encoding: 1118 1118 225
Width: 1028
Flags: W
LayerCount: 2
Fore
SplineSet
123 163 m 1,0,-1
 123 619 l 1,1,-1
 188 684 l 1,2,-1
 253 619 l 1,3,-1
 253 163 l 1,4,-1
 188 98 l 1,5,-1
 123 163 l 1,0,-1
123 815 m 1,6,-1
 123 1271 l 1,7,-1
 188 1336 l 1,8,-1
 253 1271 l 1,9,-1
 253 815 l 1,10,-1
 188 750 l 1,11,-1
 123 815 l 1,6,-1
221 1369 m 1,12,-1
 286 1434 l 1,13,-1
 742 1434 l 1,14,-1
 807 1369 l 1,15,-1
 742 1304 l 1,16,-1
 286 1304 l 1,17,-1
 221 1369 l 1,12,-1
775 163 m 1,18,-1
 775 619 l 1,19,-1
 840 684 l 1,20,-1
 905 619 l 1,21,-1
 905 163 l 1,22,-1
 840 98 l 1,23,-1
 775 163 l 1,18,-1
775 815 m 1,24,-1
 775 1271 l 1,25,-1
 840 1336 l 1,26,-1
 905 1271 l 1,27,-1
 905 815 l 1,28,-1
 840 750 l 1,29,-1
 775 815 l 1,24,-1
EndSplineSet
EndChar

StartChar: uni045F
Encoding: 1119 1119 226
Width: 1028
Flags: W
LayerCount: 2
Fore
SplineSet
123 163 m 1,0,-1
 123 619 l 1,1,-1
 188 684 l 1,2,-1
 253 619 l 1,3,-1
 253 163 l 1,4,-1
 188 98 l 1,5,-1
 123 163 l 1,0,-1
123 815 m 1,6,-1
 123 1271 l 1,7,-1
 188 1336 l 1,8,-1
 253 1271 l 1,9,-1
 253 815 l 1,10,-1
 188 750 l 1,11,-1
 123 815 l 1,6,-1
221 65 m 1,12,-1
 286 131 l 1,13,-1
 742 131 l 1,14,-1
 807 65 l 1,15,-1
 742 0 l 1,16,-1
 286 0 l 1,17,-1
 221 65 l 1,12,-1
221 1369 m 1,18,-1
 286 1434 l 1,19,-1
 742 1434 l 1,20,-1
 807 1369 l 1,21,-1
 742 1304 l 1,22,-1
 286 1304 l 1,23,-1
 221 1369 l 1,18,-1
775 163 m 1,24,-1
 775 619 l 1,25,-1
 840 684 l 1,26,-1
 905 619 l 1,27,-1
 905 163 l 1,28,-1
 840 98 l 1,29,-1
 775 163 l 1,24,-1
775 815 m 1,30,-1
 775 1271 l 1,31,-1
 840 1336 l 1,32,-1
 905 1271 l 1,33,-1
 905 815 l 1,34,-1
 840 750 l 1,35,-1
 775 815 l 1,30,-1
EndSplineSet
EndChar

StartChar: uni0460
Encoding: 1120 1120 227
Width: 1028
Flags: W
LayerCount: 2
Fore
SplineSet
123 163 m 1,0,-1
 123 619 l 1,1,-1
 188 684 l 1,2,-1
 253 619 l 1,3,-1
 253 163 l 1,4,-1
 188 98 l 1,5,-1
 123 163 l 1,0,-1
221 717 m 1,6,-1
 286 782 l 1,7,-1
 742 782 l 1,8,-1
 807 717 l 1,9,-1
 742 652 l 1,10,-1
 286 652 l 1,11,-1
 221 717 l 1,6,-1
EndSplineSet
EndChar

StartChar: uni0461
Encoding: 1121 1121 228
Width: 1028
Flags: W
LayerCount: 2
Fore
SplineSet
123 163 m 1,0,-1
 123 619 l 1,1,-1
 188 684 l 1,2,-1
 253 619 l 1,3,-1
 253 163 l 1,4,-1
 188 98 l 1,5,-1
 123 163 l 1,0,-1
221 65 m 1,6,-1
 286 131 l 1,7,-1
 742 131 l 1,8,-1
 807 65 l 1,9,-1
 742 0 l 1,10,-1
 286 0 l 1,11,-1
 221 65 l 1,6,-1
221 717 m 1,12,-1
 286 782 l 1,13,-1
 742 782 l 1,14,-1
 807 717 l 1,15,-1
 742 652 l 1,16,-1
 286 652 l 1,17,-1
 221 717 l 1,12,-1
EndSplineSet
EndChar

StartChar: uni0462
Encoding: 1122 1122 229
Width: 1028
Flags: W
LayerCount: 2
Fore
SplineSet
123 163 m 1,0,-1
 123 619 l 1,1,-1
 188 684 l 1,2,-1
 253 619 l 1,3,-1
 253 163 l 1,4,-1
 188 98 l 1,5,-1
 123 163 l 1,0,-1
221 717 m 1,6,-1
 286 782 l 1,7,-1
 742 782 l 1,8,-1
 807 717 l 1,9,-1
 742 652 l 1,10,-1
 286 652 l 1,11,-1
 221 717 l 1,6,-1
775 163 m 1,12,-1
 775 619 l 1,13,-1
 840 684 l 1,14,-1
 905 619 l 1,15,-1
 905 163 l 1,16,-1
 840 98 l 1,17,-1
 775 163 l 1,12,-1
EndSplineSet
EndChar

StartChar: uni0463
Encoding: 1123 1123 230
Width: 1028
Flags: W
LayerCount: 2
Fore
SplineSet
123 163 m 1,0,-1
 123 619 l 1,1,-1
 188 684 l 1,2,-1
 253 619 l 1,3,-1
 253 163 l 1,4,-1
 188 98 l 1,5,-1
 123 163 l 1,0,-1
221 65 m 1,6,-1
 286 131 l 1,7,-1
 742 131 l 1,8,-1
 807 65 l 1,9,-1
 742 0 l 1,10,-1
 286 0 l 1,11,-1
 221 65 l 1,6,-1
221 717 m 1,12,-1
 286 782 l 1,13,-1
 742 782 l 1,14,-1
 807 717 l 1,15,-1
 742 652 l 1,16,-1
 286 652 l 1,17,-1
 221 717 l 1,12,-1
775 163 m 1,18,-1
 775 619 l 1,19,-1
 840 684 l 1,20,-1
 905 619 l 1,21,-1
 905 163 l 1,22,-1
 840 98 l 1,23,-1
 775 163 l 1,18,-1
EndSplineSet
EndChar

StartChar: uni0464
Encoding: 1124 1124 231
Width: 1028
Flags: W
LayerCount: 2
Fore
SplineSet
123 163 m 1,0,-1
 123 619 l 1,1,-1
 188 684 l 1,2,-1
 253 619 l 1,3,-1
 253 163 l 1,4,-1
 188 98 l 1,5,-1
 123 163 l 1,0,-1
221 717 m 1,6,-1
 286 782 l 1,7,-1
 742 782 l 1,8,-1
 807 717 l 1,9,-1
 742 652 l 1,10,-1
 286 652 l 1,11,-1
 221 717 l 1,6,-1
775 815 m 1,12,-1
 775 1271 l 1,13,-1
 840 1336 l 1,14,-1
 905 1271 l 1,15,-1
 905 815 l 1,16,-1
 840 750 l 1,17,-1
 775 815 l 1,12,-1
EndSplineSet
EndChar

StartChar: uni0465
Encoding: 1125 1125 232
Width: 1028
Flags: W
LayerCount: 2
Fore
SplineSet
123 163 m 1,0,-1
 123 619 l 1,1,-1
 188 684 l 1,2,-1
 253 619 l 1,3,-1
 253 163 l 1,4,-1
 188 98 l 1,5,-1
 123 163 l 1,0,-1
221 65 m 1,6,-1
 286 131 l 1,7,-1
 742 131 l 1,8,-1
 807 65 l 1,9,-1
 742 0 l 1,10,-1
 286 0 l 1,11,-1
 221 65 l 1,6,-1
221 717 m 1,12,-1
 286 782 l 1,13,-1
 742 782 l 1,14,-1
 807 717 l 1,15,-1
 742 652 l 1,16,-1
 286 652 l 1,17,-1
 221 717 l 1,12,-1
775 815 m 1,18,-1
 775 1271 l 1,19,-1
 840 1336 l 1,20,-1
 905 1271 l 1,21,-1
 905 815 l 1,22,-1
 840 750 l 1,23,-1
 775 815 l 1,18,-1
EndSplineSet
EndChar

StartChar: uni0466
Encoding: 1126 1126 233
Width: 1028
Flags: W
LayerCount: 2
Fore
SplineSet
123 163 m 1,0,-1
 123 619 l 1,1,-1
 188 684 l 1,2,-1
 253 619 l 1,3,-1
 253 163 l 1,4,-1
 188 98 l 1,5,-1
 123 163 l 1,0,-1
221 717 m 1,6,-1
 286 782 l 1,7,-1
 742 782 l 1,8,-1
 807 717 l 1,9,-1
 742 652 l 1,10,-1
 286 652 l 1,11,-1
 221 717 l 1,6,-1
775 163 m 1,12,-1
 775 619 l 1,13,-1
 840 684 l 1,14,-1
 905 619 l 1,15,-1
 905 163 l 1,16,-1
 840 98 l 1,17,-1
 775 163 l 1,12,-1
775 815 m 1,18,-1
 775 1271 l 1,19,-1
 840 1336 l 1,20,-1
 905 1271 l 1,21,-1
 905 815 l 1,22,-1
 840 750 l 1,23,-1
 775 815 l 1,18,-1
EndSplineSet
EndChar

StartChar: uni0467
Encoding: 1127 1127 234
Width: 1028
Flags: W
LayerCount: 2
Fore
SplineSet
123 163 m 1,0,-1
 123 619 l 1,1,-1
 188 684 l 1,2,-1
 253 619 l 1,3,-1
 253 163 l 1,4,-1
 188 98 l 1,5,-1
 123 163 l 1,0,-1
221 65 m 1,6,-1
 286 131 l 1,7,-1
 742 131 l 1,8,-1
 807 65 l 1,9,-1
 742 0 l 1,10,-1
 286 0 l 1,11,-1
 221 65 l 1,6,-1
221 717 m 1,12,-1
 286 782 l 1,13,-1
 742 782 l 1,14,-1
 807 717 l 1,15,-1
 742 652 l 1,16,-1
 286 652 l 1,17,-1
 221 717 l 1,12,-1
775 163 m 1,18,-1
 775 619 l 1,19,-1
 840 684 l 1,20,-1
 905 619 l 1,21,-1
 905 163 l 1,22,-1
 840 98 l 1,23,-1
 775 163 l 1,18,-1
775 815 m 1,24,-1
 775 1271 l 1,25,-1
 840 1336 l 1,26,-1
 905 1271 l 1,27,-1
 905 815 l 1,28,-1
 840 750 l 1,29,-1
 775 815 l 1,24,-1
EndSplineSet
EndChar

StartChar: uni0468
Encoding: 1128 1128 235
Width: 1028
Flags: W
LayerCount: 2
Fore
SplineSet
123 163 m 1,0,-1
 123 619 l 1,1,-1
 188 684 l 1,2,-1
 253 619 l 1,3,-1
 253 163 l 1,4,-1
 188 98 l 1,5,-1
 123 163 l 1,0,-1
221 717 m 1,6,-1
 286 782 l 1,7,-1
 742 782 l 1,8,-1
 807 717 l 1,9,-1
 742 652 l 1,10,-1
 286 652 l 1,11,-1
 221 717 l 1,6,-1
221 1369 m 1,12,-1
 286 1434 l 1,13,-1
 742 1434 l 1,14,-1
 807 1369 l 1,15,-1
 742 1304 l 1,16,-1
 286 1304 l 1,17,-1
 221 1369 l 1,12,-1
EndSplineSet
EndChar

StartChar: uni0469
Encoding: 1129 1129 236
Width: 1028
Flags: W
LayerCount: 2
Fore
SplineSet
123 163 m 1,0,-1
 123 619 l 1,1,-1
 188 684 l 1,2,-1
 253 619 l 1,3,-1
 253 163 l 1,4,-1
 188 98 l 1,5,-1
 123 163 l 1,0,-1
221 65 m 1,6,-1
 286 131 l 1,7,-1
 742 131 l 1,8,-1
 807 65 l 1,9,-1
 742 0 l 1,10,-1
 286 0 l 1,11,-1
 221 65 l 1,6,-1
221 717 m 1,12,-1
 286 782 l 1,13,-1
 742 782 l 1,14,-1
 807 717 l 1,15,-1
 742 652 l 1,16,-1
 286 652 l 1,17,-1
 221 717 l 1,12,-1
221 1369 m 1,18,-1
 286 1434 l 1,19,-1
 742 1434 l 1,20,-1
 807 1369 l 1,21,-1
 742 1304 l 1,22,-1
 286 1304 l 1,23,-1
 221 1369 l 1,18,-1
EndSplineSet
EndChar

StartChar: uni046A
Encoding: 1130 1130 237
Width: 1028
Flags: W
LayerCount: 2
Fore
SplineSet
123 163 m 1,0,-1
 123 619 l 1,1,-1
 188 684 l 1,2,-1
 253 619 l 1,3,-1
 253 163 l 1,4,-1
 188 98 l 1,5,-1
 123 163 l 1,0,-1
221 717 m 1,6,-1
 286 782 l 1,7,-1
 742 782 l 1,8,-1
 807 717 l 1,9,-1
 742 652 l 1,10,-1
 286 652 l 1,11,-1
 221 717 l 1,6,-1
221 1369 m 1,12,-1
 286 1434 l 1,13,-1
 742 1434 l 1,14,-1
 807 1369 l 1,15,-1
 742 1304 l 1,16,-1
 286 1304 l 1,17,-1
 221 1369 l 1,12,-1
775 163 m 1,18,-1
 775 619 l 1,19,-1
 840 684 l 1,20,-1
 905 619 l 1,21,-1
 905 163 l 1,22,-1
 840 98 l 1,23,-1
 775 163 l 1,18,-1
EndSplineSet
EndChar

StartChar: uni046B
Encoding: 1131 1131 238
Width: 1028
Flags: W
LayerCount: 2
Fore
SplineSet
123 163 m 1,0,-1
 123 619 l 1,1,-1
 188 684 l 1,2,-1
 253 619 l 1,3,-1
 253 163 l 1,4,-1
 188 98 l 1,5,-1
 123 163 l 1,0,-1
221 65 m 1,6,-1
 286 131 l 1,7,-1
 742 131 l 1,8,-1
 807 65 l 1,9,-1
 742 0 l 1,10,-1
 286 0 l 1,11,-1
 221 65 l 1,6,-1
221 717 m 1,12,-1
 286 782 l 1,13,-1
 742 782 l 1,14,-1
 807 717 l 1,15,-1
 742 652 l 1,16,-1
 286 652 l 1,17,-1
 221 717 l 1,12,-1
221 1369 m 1,18,-1
 286 1434 l 1,19,-1
 742 1434 l 1,20,-1
 807 1369 l 1,21,-1
 742 1304 l 1,22,-1
 286 1304 l 1,23,-1
 221 1369 l 1,18,-1
775 163 m 1,24,-1
 775 619 l 1,25,-1
 840 684 l 1,26,-1
 905 619 l 1,27,-1
 905 163 l 1,28,-1
 840 98 l 1,29,-1
 775 163 l 1,24,-1
EndSplineSet
EndChar

StartChar: uni046C
Encoding: 1132 1132 239
Width: 1028
Flags: W
LayerCount: 2
Fore
SplineSet
123 163 m 1,0,-1
 123 619 l 1,1,-1
 188 684 l 1,2,-1
 253 619 l 1,3,-1
 253 163 l 1,4,-1
 188 98 l 1,5,-1
 123 163 l 1,0,-1
221 717 m 1,6,-1
 286 782 l 1,7,-1
 742 782 l 1,8,-1
 807 717 l 1,9,-1
 742 652 l 1,10,-1
 286 652 l 1,11,-1
 221 717 l 1,6,-1
221 1369 m 1,12,-1
 286 1434 l 1,13,-1
 742 1434 l 1,14,-1
 807 1369 l 1,15,-1
 742 1304 l 1,16,-1
 286 1304 l 1,17,-1
 221 1369 l 1,12,-1
775 815 m 1,18,-1
 775 1271 l 1,19,-1
 840 1336 l 1,20,-1
 905 1271 l 1,21,-1
 905 815 l 1,22,-1
 840 750 l 1,23,-1
 775 815 l 1,18,-1
EndSplineSet
EndChar

StartChar: uni046D
Encoding: 1133 1133 240
Width: 1028
Flags: W
LayerCount: 2
Fore
SplineSet
123 163 m 1,0,-1
 123 619 l 1,1,-1
 188 684 l 1,2,-1
 253 619 l 1,3,-1
 253 163 l 1,4,-1
 188 98 l 1,5,-1
 123 163 l 1,0,-1
221 65 m 1,6,-1
 286 131 l 1,7,-1
 742 131 l 1,8,-1
 807 65 l 1,9,-1
 742 0 l 1,10,-1
 286 0 l 1,11,-1
 221 65 l 1,6,-1
221 717 m 1,12,-1
 286 782 l 1,13,-1
 742 782 l 1,14,-1
 807 717 l 1,15,-1
 742 652 l 1,16,-1
 286 652 l 1,17,-1
 221 717 l 1,12,-1
221 1369 m 1,18,-1
 286 1434 l 1,19,-1
 742 1434 l 1,20,-1
 807 1369 l 1,21,-1
 742 1304 l 1,22,-1
 286 1304 l 1,23,-1
 221 1369 l 1,18,-1
775 815 m 1,24,-1
 775 1271 l 1,25,-1
 840 1336 l 1,26,-1
 905 1271 l 1,27,-1
 905 815 l 1,28,-1
 840 750 l 1,29,-1
 775 815 l 1,24,-1
EndSplineSet
EndChar

StartChar: uni046E
Encoding: 1134 1134 241
Width: 1028
Flags: W
LayerCount: 2
Fore
SplineSet
123 163 m 1,0,-1
 123 619 l 1,1,-1
 188 684 l 1,2,-1
 253 619 l 1,3,-1
 253 163 l 1,4,-1
 188 98 l 1,5,-1
 123 163 l 1,0,-1
221 717 m 1,6,-1
 286 782 l 1,7,-1
 742 782 l 1,8,-1
 807 717 l 1,9,-1
 742 652 l 1,10,-1
 286 652 l 1,11,-1
 221 717 l 1,6,-1
221 1369 m 1,12,-1
 286 1434 l 1,13,-1
 742 1434 l 1,14,-1
 807 1369 l 1,15,-1
 742 1304 l 1,16,-1
 286 1304 l 1,17,-1
 221 1369 l 1,12,-1
775 163 m 1,18,-1
 775 619 l 1,19,-1
 840 684 l 1,20,-1
 905 619 l 1,21,-1
 905 163 l 1,22,-1
 840 98 l 1,23,-1
 775 163 l 1,18,-1
775 815 m 1,24,-1
 775 1271 l 1,25,-1
 840 1336 l 1,26,-1
 905 1271 l 1,27,-1
 905 815 l 1,28,-1
 840 750 l 1,29,-1
 775 815 l 1,24,-1
EndSplineSet
EndChar

StartChar: uni046F
Encoding: 1135 1135 242
Width: 1028
Flags: W
LayerCount: 2
Fore
SplineSet
123 163 m 1,0,-1
 123 619 l 1,1,-1
 188 684 l 1,2,-1
 253 619 l 1,3,-1
 253 163 l 1,4,-1
 188 98 l 1,5,-1
 123 163 l 1,0,-1
221 65 m 1,6,-1
 286 131 l 1,7,-1
 742 131 l 1,8,-1
 807 65 l 1,9,-1
 742 0 l 1,10,-1
 286 0 l 1,11,-1
 221 65 l 1,6,-1
221 717 m 1,12,-1
 286 782 l 1,13,-1
 742 782 l 1,14,-1
 807 717 l 1,15,-1
 742 652 l 1,16,-1
 286 652 l 1,17,-1
 221 717 l 1,12,-1
221 1369 m 1,18,-1
 286 1434 l 1,19,-1
 742 1434 l 1,20,-1
 807 1369 l 1,21,-1
 742 1304 l 1,22,-1
 286 1304 l 1,23,-1
 221 1369 l 1,18,-1
775 163 m 1,24,-1
 775 619 l 1,25,-1
 840 684 l 1,26,-1
 905 619 l 1,27,-1
 905 163 l 1,28,-1
 840 98 l 1,29,-1
 775 163 l 1,24,-1
775 815 m 1,30,-1
 775 1271 l 1,31,-1
 840 1336 l 1,32,-1
 905 1271 l 1,33,-1
 905 815 l 1,34,-1
 840 750 l 1,35,-1
 775 815 l 1,30,-1
EndSplineSet
EndChar

StartChar: uni0470
Encoding: 1136 1136 243
Width: 1028
Flags: W
LayerCount: 2
Fore
SplineSet
123 163 m 1,0,-1
 123 619 l 1,1,-1
 188 684 l 1,2,-1
 253 619 l 1,3,-1
 253 163 l 1,4,-1
 188 98 l 1,5,-1
 123 163 l 1,0,-1
123 815 m 1,6,-1
 123 1271 l 1,7,-1
 188 1336 l 1,8,-1
 253 1271 l 1,9,-1
 253 815 l 1,10,-1
 188 750 l 1,11,-1
 123 815 l 1,6,-1
221 717 m 1,12,-1
 286 782 l 1,13,-1
 742 782 l 1,14,-1
 807 717 l 1,15,-1
 742 652 l 1,16,-1
 286 652 l 1,17,-1
 221 717 l 1,12,-1
EndSplineSet
EndChar

StartChar: uni0471
Encoding: 1137 1137 244
Width: 1028
Flags: W
LayerCount: 2
Fore
SplineSet
123 163 m 1,0,-1
 123 619 l 1,1,-1
 188 684 l 1,2,-1
 253 619 l 1,3,-1
 253 163 l 1,4,-1
 188 98 l 1,5,-1
 123 163 l 1,0,-1
123 815 m 1,6,-1
 123 1271 l 1,7,-1
 188 1336 l 1,8,-1
 253 1271 l 1,9,-1
 253 815 l 1,10,-1
 188 750 l 1,11,-1
 123 815 l 1,6,-1
221 65 m 1,12,-1
 286 131 l 1,13,-1
 742 131 l 1,14,-1
 807 65 l 1,15,-1
 742 0 l 1,16,-1
 286 0 l 1,17,-1
 221 65 l 1,12,-1
221 717 m 1,18,-1
 286 782 l 1,19,-1
 742 782 l 1,20,-1
 807 717 l 1,21,-1
 742 652 l 1,22,-1
 286 652 l 1,23,-1
 221 717 l 1,18,-1
EndSplineSet
EndChar

StartChar: uni0472
Encoding: 1138 1138 245
Width: 1028
Flags: W
LayerCount: 2
Fore
SplineSet
123 163 m 1,0,-1
 123 619 l 1,1,-1
 188 684 l 1,2,-1
 253 619 l 1,3,-1
 253 163 l 1,4,-1
 188 98 l 1,5,-1
 123 163 l 1,0,-1
123 815 m 1,6,-1
 123 1271 l 1,7,-1
 188 1336 l 1,8,-1
 253 1271 l 1,9,-1
 253 815 l 1,10,-1
 188 750 l 1,11,-1
 123 815 l 1,6,-1
221 717 m 1,12,-1
 286 782 l 1,13,-1
 742 782 l 1,14,-1
 807 717 l 1,15,-1
 742 652 l 1,16,-1
 286 652 l 1,17,-1
 221 717 l 1,12,-1
775 163 m 1,18,-1
 775 619 l 1,19,-1
 840 684 l 1,20,-1
 905 619 l 1,21,-1
 905 163 l 1,22,-1
 840 98 l 1,23,-1
 775 163 l 1,18,-1
EndSplineSet
EndChar

StartChar: uni0473
Encoding: 1139 1139 246
Width: 1028
Flags: W
LayerCount: 2
Fore
SplineSet
123 163 m 1,0,-1
 123 619 l 1,1,-1
 188 684 l 1,2,-1
 253 619 l 1,3,-1
 253 163 l 1,4,-1
 188 98 l 1,5,-1
 123 163 l 1,0,-1
123 815 m 1,6,-1
 123 1271 l 1,7,-1
 188 1336 l 1,8,-1
 253 1271 l 1,9,-1
 253 815 l 1,10,-1
 188 750 l 1,11,-1
 123 815 l 1,6,-1
221 65 m 1,12,-1
 286 131 l 1,13,-1
 742 131 l 1,14,-1
 807 65 l 1,15,-1
 742 0 l 1,16,-1
 286 0 l 1,17,-1
 221 65 l 1,12,-1
221 717 m 1,18,-1
 286 782 l 1,19,-1
 742 782 l 1,20,-1
 807 717 l 1,21,-1
 742 652 l 1,22,-1
 286 652 l 1,23,-1
 221 717 l 1,18,-1
775 163 m 1,24,-1
 775 619 l 1,25,-1
 840 684 l 1,26,-1
 905 619 l 1,27,-1
 905 163 l 1,28,-1
 840 98 l 1,29,-1
 775 163 l 1,24,-1
EndSplineSet
EndChar

StartChar: uni0474
Encoding: 1140 1140 247
Width: 1028
Flags: W
LayerCount: 2
Fore
SplineSet
123 163 m 1,0,-1
 123 619 l 1,1,-1
 188 684 l 1,2,-1
 253 619 l 1,3,-1
 253 163 l 1,4,-1
 188 98 l 1,5,-1
 123 163 l 1,0,-1
123 815 m 1,6,-1
 123 1271 l 1,7,-1
 188 1336 l 1,8,-1
 253 1271 l 1,9,-1
 253 815 l 1,10,-1
 188 750 l 1,11,-1
 123 815 l 1,6,-1
221 717 m 1,12,-1
 286 782 l 1,13,-1
 742 782 l 1,14,-1
 807 717 l 1,15,-1
 742 652 l 1,16,-1
 286 652 l 1,17,-1
 221 717 l 1,12,-1
775 815 m 1,18,-1
 775 1271 l 1,19,-1
 840 1336 l 1,20,-1
 905 1271 l 1,21,-1
 905 815 l 1,22,-1
 840 750 l 1,23,-1
 775 815 l 1,18,-1
EndSplineSet
EndChar

StartChar: uni0475
Encoding: 1141 1141 248
Width: 1028
Flags: W
LayerCount: 2
Fore
SplineSet
123 163 m 1,0,-1
 123 619 l 1,1,-1
 188 684 l 1,2,-1
 253 619 l 1,3,-1
 253 163 l 1,4,-1
 188 98 l 1,5,-1
 123 163 l 1,0,-1
123 815 m 1,6,-1
 123 1271 l 1,7,-1
 188 1336 l 1,8,-1
 253 1271 l 1,9,-1
 253 815 l 1,10,-1
 188 750 l 1,11,-1
 123 815 l 1,6,-1
221 65 m 1,12,-1
 286 131 l 1,13,-1
 742 131 l 1,14,-1
 807 65 l 1,15,-1
 742 0 l 1,16,-1
 286 0 l 1,17,-1
 221 65 l 1,12,-1
221 717 m 1,18,-1
 286 782 l 1,19,-1
 742 782 l 1,20,-1
 807 717 l 1,21,-1
 742 652 l 1,22,-1
 286 652 l 1,23,-1
 221 717 l 1,18,-1
775 815 m 1,24,-1
 775 1271 l 1,25,-1
 840 1336 l 1,26,-1
 905 1271 l 1,27,-1
 905 815 l 1,28,-1
 840 750 l 1,29,-1
 775 815 l 1,24,-1
EndSplineSet
EndChar

StartChar: uni0476
Encoding: 1142 1142 249
Width: 1028
Flags: W
LayerCount: 2
Fore
SplineSet
123 163 m 1,0,-1
 123 619 l 1,1,-1
 188 684 l 1,2,-1
 253 619 l 1,3,-1
 253 163 l 1,4,-1
 188 98 l 1,5,-1
 123 163 l 1,0,-1
123 815 m 1,6,-1
 123 1271 l 1,7,-1
 188 1336 l 1,8,-1
 253 1271 l 1,9,-1
 253 815 l 1,10,-1
 188 750 l 1,11,-1
 123 815 l 1,6,-1
221 717 m 1,12,-1
 286 782 l 1,13,-1
 742 782 l 1,14,-1
 807 717 l 1,15,-1
 742 652 l 1,16,-1
 286 652 l 1,17,-1
 221 717 l 1,12,-1
775 163 m 1,18,-1
 775 619 l 1,19,-1
 840 684 l 1,20,-1
 905 619 l 1,21,-1
 905 163 l 1,22,-1
 840 98 l 1,23,-1
 775 163 l 1,18,-1
775 815 m 1,24,-1
 775 1271 l 1,25,-1
 840 1336 l 1,26,-1
 905 1271 l 1,27,-1
 905 815 l 1,28,-1
 840 750 l 1,29,-1
 775 815 l 1,24,-1
EndSplineSet
EndChar

StartChar: uni0477
Encoding: 1143 1143 250
Width: 1028
Flags: W
LayerCount: 2
Fore
SplineSet
123 163 m 1,0,-1
 123 619 l 1,1,-1
 188 684 l 1,2,-1
 253 619 l 1,3,-1
 253 163 l 1,4,-1
 188 98 l 1,5,-1
 123 163 l 1,0,-1
123 815 m 1,6,-1
 123 1271 l 1,7,-1
 188 1336 l 1,8,-1
 253 1271 l 1,9,-1
 253 815 l 1,10,-1
 188 750 l 1,11,-1
 123 815 l 1,6,-1
221 65 m 1,12,-1
 286 131 l 1,13,-1
 742 131 l 1,14,-1
 807 65 l 1,15,-1
 742 0 l 1,16,-1
 286 0 l 1,17,-1
 221 65 l 1,12,-1
221 717 m 1,18,-1
 286 782 l 1,19,-1
 742 782 l 1,20,-1
 807 717 l 1,21,-1
 742 652 l 1,22,-1
 286 652 l 1,23,-1
 221 717 l 1,18,-1
775 163 m 1,24,-1
 775 619 l 1,25,-1
 840 684 l 1,26,-1
 905 619 l 1,27,-1
 905 163 l 1,28,-1
 840 98 l 1,29,-1
 775 163 l 1,24,-1
775 815 m 1,30,-1
 775 1271 l 1,31,-1
 840 1336 l 1,32,-1
 905 1271 l 1,33,-1
 905 815 l 1,34,-1
 840 750 l 1,35,-1
 775 815 l 1,30,-1
EndSplineSet
EndChar

StartChar: uni0478
Encoding: 1144 1144 251
Width: 1028
Flags: W
LayerCount: 2
Fore
SplineSet
123 163 m 1,0,-1
 123 619 l 1,1,-1
 188 684 l 1,2,-1
 253 619 l 1,3,-1
 253 163 l 1,4,-1
 188 98 l 1,5,-1
 123 163 l 1,0,-1
123 815 m 1,6,-1
 123 1271 l 1,7,-1
 188 1336 l 1,8,-1
 253 1271 l 1,9,-1
 253 815 l 1,10,-1
 188 750 l 1,11,-1
 123 815 l 1,6,-1
221 717 m 1,12,-1
 286 782 l 1,13,-1
 742 782 l 1,14,-1
 807 717 l 1,15,-1
 742 652 l 1,16,-1
 286 652 l 1,17,-1
 221 717 l 1,12,-1
221 1369 m 1,18,-1
 286 1434 l 1,19,-1
 742 1434 l 1,20,-1
 807 1369 l 1,21,-1
 742 1304 l 1,22,-1
 286 1304 l 1,23,-1
 221 1369 l 1,18,-1
EndSplineSet
EndChar

StartChar: uni0479
Encoding: 1145 1145 252
Width: 1028
Flags: W
LayerCount: 2
Fore
SplineSet
123 163 m 1,0,-1
 123 619 l 1,1,-1
 188 684 l 1,2,-1
 253 619 l 1,3,-1
 253 163 l 1,4,-1
 188 98 l 1,5,-1
 123 163 l 1,0,-1
123 815 m 1,6,-1
 123 1271 l 1,7,-1
 188 1336 l 1,8,-1
 253 1271 l 1,9,-1
 253 815 l 1,10,-1
 188 750 l 1,11,-1
 123 815 l 1,6,-1
221 65 m 1,12,-1
 286 131 l 1,13,-1
 742 131 l 1,14,-1
 807 65 l 1,15,-1
 742 0 l 1,16,-1
 286 0 l 1,17,-1
 221 65 l 1,12,-1
221 717 m 1,18,-1
 286 782 l 1,19,-1
 742 782 l 1,20,-1
 807 717 l 1,21,-1
 742 652 l 1,22,-1
 286 652 l 1,23,-1
 221 717 l 1,18,-1
221 1369 m 1,24,-1
 286 1434 l 1,25,-1
 742 1434 l 1,26,-1
 807 1369 l 1,27,-1
 742 1304 l 1,28,-1
 286 1304 l 1,29,-1
 221 1369 l 1,24,-1
EndSplineSet
EndChar

StartChar: uni047A
Encoding: 1146 1146 253
Width: 1028
Flags: W
LayerCount: 2
Fore
SplineSet
123 163 m 1,0,-1
 123 619 l 1,1,-1
 188 684 l 1,2,-1
 253 619 l 1,3,-1
 253 163 l 1,4,-1
 188 98 l 1,5,-1
 123 163 l 1,0,-1
123 815 m 1,6,-1
 123 1271 l 1,7,-1
 188 1336 l 1,8,-1
 253 1271 l 1,9,-1
 253 815 l 1,10,-1
 188 750 l 1,11,-1
 123 815 l 1,6,-1
221 717 m 1,12,-1
 286 782 l 1,13,-1
 742 782 l 1,14,-1
 807 717 l 1,15,-1
 742 652 l 1,16,-1
 286 652 l 1,17,-1
 221 717 l 1,12,-1
221 1369 m 1,18,-1
 286 1434 l 1,19,-1
 742 1434 l 1,20,-1
 807 1369 l 1,21,-1
 742 1304 l 1,22,-1
 286 1304 l 1,23,-1
 221 1369 l 1,18,-1
775 163 m 1,24,-1
 775 619 l 1,25,-1
 840 684 l 1,26,-1
 905 619 l 1,27,-1
 905 163 l 1,28,-1
 840 98 l 1,29,-1
 775 163 l 1,24,-1
EndSplineSet
EndChar

StartChar: uni047B
Encoding: 1147 1147 254
Width: 1028
Flags: W
LayerCount: 2
Fore
SplineSet
123 163 m 1,0,-1
 123 619 l 1,1,-1
 188 684 l 1,2,-1
 253 619 l 1,3,-1
 253 163 l 1,4,-1
 188 98 l 1,5,-1
 123 163 l 1,0,-1
123 815 m 1,6,-1
 123 1271 l 1,7,-1
 188 1336 l 1,8,-1
 253 1271 l 1,9,-1
 253 815 l 1,10,-1
 188 750 l 1,11,-1
 123 815 l 1,6,-1
221 65 m 1,12,-1
 286 131 l 1,13,-1
 742 131 l 1,14,-1
 807 65 l 1,15,-1
 742 0 l 1,16,-1
 286 0 l 1,17,-1
 221 65 l 1,12,-1
221 717 m 1,18,-1
 286 782 l 1,19,-1
 742 782 l 1,20,-1
 807 717 l 1,21,-1
 742 652 l 1,22,-1
 286 652 l 1,23,-1
 221 717 l 1,18,-1
221 1369 m 1,24,-1
 286 1434 l 1,25,-1
 742 1434 l 1,26,-1
 807 1369 l 1,27,-1
 742 1304 l 1,28,-1
 286 1304 l 1,29,-1
 221 1369 l 1,24,-1
775 163 m 1,30,-1
 775 619 l 1,31,-1
 840 684 l 1,32,-1
 905 619 l 1,33,-1
 905 163 l 1,34,-1
 840 98 l 1,35,-1
 775 163 l 1,30,-1
EndSplineSet
EndChar

StartChar: uni047C
Encoding: 1148 1148 255
Width: 1028
Flags: W
LayerCount: 2
Fore
SplineSet
123 163 m 1,0,-1
 123 619 l 1,1,-1
 188 684 l 1,2,-1
 253 619 l 1,3,-1
 253 163 l 1,4,-1
 188 98 l 1,5,-1
 123 163 l 1,0,-1
123 815 m 1,6,-1
 123 1271 l 1,7,-1
 188 1336 l 1,8,-1
 253 1271 l 1,9,-1
 253 815 l 1,10,-1
 188 750 l 1,11,-1
 123 815 l 1,6,-1
221 717 m 1,12,-1
 286 782 l 1,13,-1
 742 782 l 1,14,-1
 807 717 l 1,15,-1
 742 652 l 1,16,-1
 286 652 l 1,17,-1
 221 717 l 1,12,-1
221 1369 m 1,18,-1
 286 1434 l 1,19,-1
 742 1434 l 1,20,-1
 807 1369 l 1,21,-1
 742 1304 l 1,22,-1
 286 1304 l 1,23,-1
 221 1369 l 1,18,-1
775 815 m 1,24,-1
 775 1271 l 1,25,-1
 840 1336 l 1,26,-1
 905 1271 l 1,27,-1
 905 815 l 1,28,-1
 840 750 l 1,29,-1
 775 815 l 1,24,-1
EndSplineSet
EndChar

StartChar: uni047D
Encoding: 1149 1149 256
Width: 1028
Flags: W
LayerCount: 2
Fore
SplineSet
123 163 m 1,0,-1
 123 619 l 1,1,-1
 188 684 l 1,2,-1
 253 619 l 1,3,-1
 253 163 l 1,4,-1
 188 98 l 1,5,-1
 123 163 l 1,0,-1
123 815 m 1,6,-1
 123 1271 l 1,7,-1
 188 1336 l 1,8,-1
 253 1271 l 1,9,-1
 253 815 l 1,10,-1
 188 750 l 1,11,-1
 123 815 l 1,6,-1
221 65 m 1,12,-1
 286 131 l 1,13,-1
 742 131 l 1,14,-1
 807 65 l 1,15,-1
 742 0 l 1,16,-1
 286 0 l 1,17,-1
 221 65 l 1,12,-1
221 717 m 1,18,-1
 286 782 l 1,19,-1
 742 782 l 1,20,-1
 807 717 l 1,21,-1
 742 652 l 1,22,-1
 286 652 l 1,23,-1
 221 717 l 1,18,-1
221 1369 m 1,24,-1
 286 1434 l 1,25,-1
 742 1434 l 1,26,-1
 807 1369 l 1,27,-1
 742 1304 l 1,28,-1
 286 1304 l 1,29,-1
 221 1369 l 1,24,-1
775 815 m 1,30,-1
 775 1271 l 1,31,-1
 840 1336 l 1,32,-1
 905 1271 l 1,33,-1
 905 815 l 1,34,-1
 840 750 l 1,35,-1
 775 815 l 1,30,-1
EndSplineSet
EndChar

StartChar: uni047E
Encoding: 1150 1150 257
Width: 1028
Flags: W
LayerCount: 2
Fore
SplineSet
123 163 m 1,0,-1
 123 619 l 1,1,-1
 188 684 l 1,2,-1
 253 619 l 1,3,-1
 253 163 l 1,4,-1
 188 98 l 1,5,-1
 123 163 l 1,0,-1
123 815 m 1,6,-1
 123 1271 l 1,7,-1
 188 1336 l 1,8,-1
 253 1271 l 1,9,-1
 253 815 l 1,10,-1
 188 750 l 1,11,-1
 123 815 l 1,6,-1
221 717 m 1,12,-1
 286 782 l 1,13,-1
 742 782 l 1,14,-1
 807 717 l 1,15,-1
 742 652 l 1,16,-1
 286 652 l 1,17,-1
 221 717 l 1,12,-1
221 1369 m 1,18,-1
 286 1434 l 1,19,-1
 742 1434 l 1,20,-1
 807 1369 l 1,21,-1
 742 1304 l 1,22,-1
 286 1304 l 1,23,-1
 221 1369 l 1,18,-1
775 163 m 1,24,-1
 775 619 l 1,25,-1
 840 684 l 1,26,-1
 905 619 l 1,27,-1
 905 163 l 1,28,-1
 840 98 l 1,29,-1
 775 163 l 1,24,-1
775 815 m 1,30,-1
 775 1271 l 1,31,-1
 840 1336 l 1,32,-1
 905 1271 l 1,33,-1
 905 815 l 1,34,-1
 840 750 l 1,35,-1
 775 815 l 1,30,-1
EndSplineSet
EndChar

StartChar: uni047F
Encoding: 1151 1151 258
Width: 1028
Flags: W
LayerCount: 2
Fore
SplineSet
123 163 m 1,0,-1
 123 619 l 1,1,-1
 188 684 l 1,2,-1
 253 619 l 1,3,-1
 253 163 l 1,4,-1
 188 98 l 1,5,-1
 123 163 l 1,0,-1
123 815 m 1,6,-1
 123 1271 l 1,7,-1
 188 1336 l 1,8,-1
 253 1271 l 1,9,-1
 253 815 l 1,10,-1
 188 750 l 1,11,-1
 123 815 l 1,6,-1
221 65 m 1,12,-1
 286 131 l 1,13,-1
 742 131 l 1,14,-1
 807 65 l 1,15,-1
 742 0 l 1,16,-1
 286 0 l 1,17,-1
 221 65 l 1,12,-1
221 717 m 1,18,-1
 286 782 l 1,19,-1
 742 782 l 1,20,-1
 807 717 l 1,21,-1
 742 652 l 1,22,-1
 286 652 l 1,23,-1
 221 717 l 1,18,-1
221 1369 m 1,24,-1
 286 1434 l 1,25,-1
 742 1434 l 1,26,-1
 807 1369 l 1,27,-1
 742 1304 l 1,28,-1
 286 1304 l 1,29,-1
 221 1369 l 1,24,-1
775 163 m 1,30,-1
 775 619 l 1,31,-1
 840 684 l 1,32,-1
 905 619 l 1,33,-1
 905 163 l 1,34,-1
 840 98 l 1,35,-1
 775 163 l 1,30,-1
775 815 m 1,36,-1
 775 1271 l 1,37,-1
 840 1336 l 1,38,-1
 905 1271 l 1,39,-1
 905 815 l 1,40,-1
 840 750 l 1,41,-1
 775 815 l 1,36,-1
EndSplineSet
EndChar

StartChar: uni0480
Encoding: 1152 1152 259
Width: 1028
Flags: W
LayerCount: 2
Fore
SplineSet
431.192382812 987.342773438 m 132,-1,1
 406.243164062 1012.81933594 406.243164062 1012.81933594 406.114257812 1051.34667969 c 4,2,3
 406.243164062 1089.81933594 406.243164062 1089.81933594 438.907226562 1121.375 c 4,4,5
 471.243164062 1152.81933594 471.243164062 1152.81933594 518 1153 c 4,6,7
 564.243164062 1152.81933594 564.243164062 1152.81933594 590.33984375 1125.13964844 c 4,8,9
 616.243164062 1096.81933594 616.243164062 1096.81933594 616.3828125 1059.62988281 c 4,10,11
 616.243164062 1021.81933594 616.243164062 1021.81933594 584.552734375 991.861328125 c 4,12,13
 552.243164062 961.819335938 552.243164062 961.819335938 504.497070312 961.7421875 c 4,14,0
 456.243164062 961.819335938 456.243164062 961.819335938 431.192382812 987.342773438 c 132,-1,1
437.192382812 330.342773438 m 4,15,16
 412 356 412 356 412.114257812 394.346679688 c 4,17,18
 412 433 412 433 444.907226562 464.375 c 4,19,20
 477 496 477 496 524 496 c 4,21,22
 570 496 570 496 596.33984375 468.139648438 c 4,23,24
 622 440 622 440 622.3828125 402.629882812 c 4,25,26
 622 365 622 365 590.552734375 334.861328125 c 4,27,28
 558 305 558 305 510.497070312 304.7421875 c 4,29,30
 462 305 462 305 437.192382812 330.342773438 c 4,15,16
EndSplineSet
EndChar

StartChar: uni0481
Encoding: 1153 1153 260
Width: 1028
Flags: W
LayerCount: 2
Fore
SplineSet
431.192382812 987.342773438 m 132,-1,1
 406.243164062 1012.81933594 406.243164062 1012.81933594 406.114257812 1051.34667969 c 4,2,3
 406.243164062 1089.81933594 406.243164062 1089.81933594 438.907226562 1121.375 c 4,4,5
 471.243164062 1152.81933594 471.243164062 1152.81933594 518 1153 c 4,6,7
 564.243164062 1152.81933594 564.243164062 1152.81933594 590.33984375 1125.13964844 c 4,8,9
 616.243164062 1096.81933594 616.243164062 1096.81933594 616.3828125 1059.62988281 c 4,10,11
 616.243164062 1021.81933594 616.243164062 1021.81933594 584.552734375 991.861328125 c 4,12,13
 552.243164062 961.819335938 552.243164062 961.819335938 504.497070312 961.7421875 c 4,14,0
 456.243164062 961.819335938 456.243164062 961.819335938 431.192382812 987.342773438 c 132,-1,1
437.192382812 330.342773438 m 4,15,16
 412 356 412 356 412.114257812 394.346679688 c 4,17,18
 412 433 412 433 444.907226562 464.375 c 4,19,20
 477 496 477 496 524 496 c 4,21,22
 570 496 570 496 596.33984375 468.139648438 c 4,23,24
 622 440 622 440 622.3828125 402.629882812 c 4,25,26
 622 365 622 365 590.552734375 334.861328125 c 4,27,28
 558 305 558 305 510.497070312 304.7421875 c 4,29,30
 462 305 462 305 437.192382812 330.342773438 c 4,15,16
221 65 m 1,31,-1
 286 131 l 1,32,-1
 742 131 l 1,33,-1
 807 65 l 1,34,-1
 742 0 l 1,35,-1
 286 0 l 1,36,-1
 221 65 l 1,31,-1
EndSplineSet
EndChar

StartChar: uni0482
Encoding: 1154 1154 261
Width: 1028
Flags: W
LayerCount: 2
Fore
SplineSet
431.192382812 987.342773438 m 132,-1,1
 406.243164062 1012.81933594 406.243164062 1012.81933594 406.114257812 1051.34667969 c 4,2,3
 406.243164062 1089.81933594 406.243164062 1089.81933594 438.907226562 1121.375 c 4,4,5
 471.243164062 1152.81933594 471.243164062 1152.81933594 518 1153 c 4,6,7
 564.243164062 1152.81933594 564.243164062 1152.81933594 590.33984375 1125.13964844 c 4,8,9
 616.243164062 1096.81933594 616.243164062 1096.81933594 616.3828125 1059.62988281 c 4,10,11
 616.243164062 1021.81933594 616.243164062 1021.81933594 584.552734375 991.861328125 c 4,12,13
 552.243164062 961.819335938 552.243164062 961.819335938 504.497070312 961.7421875 c 4,14,0
 456.243164062 961.819335938 456.243164062 961.819335938 431.192382812 987.342773438 c 132,-1,1
437.192382812 330.342773438 m 4,15,16
 412 356 412 356 412.114257812 394.346679688 c 4,17,18
 412 433 412 433 444.907226562 464.375 c 4,19,20
 477 496 477 496 524 496 c 4,21,22
 570 496 570 496 596.33984375 468.139648438 c 4,23,24
 622 440 622 440 622.3828125 402.629882812 c 4,25,26
 622 365 622 365 590.552734375 334.861328125 c 4,27,28
 558 305 558 305 510.497070312 304.7421875 c 4,29,30
 462 305 462 305 437.192382812 330.342773438 c 4,15,16
775 163 m 1,31,-1
 775 619 l 1,32,-1
 840 684 l 1,33,-1
 905 619 l 1,34,-1
 905 163 l 1,35,-1
 840 98 l 1,36,-1
 775 163 l 1,31,-1
EndSplineSet
EndChar

StartChar: uni0483
Encoding: 1155 1155 262
Width: 1028
Flags: W
LayerCount: 2
Fore
SplineSet
431.192382812 987.342773438 m 132,-1,1
 406.243164062 1012.81933594 406.243164062 1012.81933594 406.114257812 1051.34667969 c 4,2,3
 406.243164062 1089.81933594 406.243164062 1089.81933594 438.907226562 1121.375 c 4,4,5
 471.243164062 1152.81933594 471.243164062 1152.81933594 518 1153 c 4,6,7
 564.243164062 1152.81933594 564.243164062 1152.81933594 590.33984375 1125.13964844 c 4,8,9
 616.243164062 1096.81933594 616.243164062 1096.81933594 616.3828125 1059.62988281 c 4,10,11
 616.243164062 1021.81933594 616.243164062 1021.81933594 584.552734375 991.861328125 c 4,12,13
 552.243164062 961.819335938 552.243164062 961.819335938 504.497070312 961.7421875 c 4,14,0
 456.243164062 961.819335938 456.243164062 961.819335938 431.192382812 987.342773438 c 132,-1,1
437.192382812 330.342773438 m 4,15,16
 412 356 412 356 412.114257812 394.346679688 c 4,17,18
 412 433 412 433 444.907226562 464.375 c 4,19,20
 477 496 477 496 524 496 c 4,21,22
 570 496 570 496 596.33984375 468.139648438 c 4,23,24
 622 440 622 440 622.3828125 402.629882812 c 4,25,26
 622 365 622 365 590.552734375 334.861328125 c 4,27,28
 558 305 558 305 510.497070312 304.7421875 c 4,29,30
 462 305 462 305 437.192382812 330.342773438 c 4,15,16
221 65 m 1,31,-1
 286 131 l 1,32,-1
 742 131 l 1,33,-1
 807 65 l 1,34,-1
 742 0 l 1,35,-1
 286 0 l 1,36,-1
 221 65 l 1,31,-1
775 163 m 1,37,-1
 775 619 l 1,38,-1
 840 684 l 1,39,-1
 905 619 l 1,40,-1
 905 163 l 1,41,-1
 840 98 l 1,42,-1
 775 163 l 1,37,-1
EndSplineSet
EndChar

StartChar: uni0484
Encoding: 1156 1156 263
Width: 1028
Flags: W
LayerCount: 2
Fore
SplineSet
431.192382812 987.342773438 m 132,-1,1
 406.243164062 1012.81933594 406.243164062 1012.81933594 406.114257812 1051.34667969 c 4,2,3
 406.243164062 1089.81933594 406.243164062 1089.81933594 438.907226562 1121.375 c 4,4,5
 471.243164062 1152.81933594 471.243164062 1152.81933594 518 1153 c 4,6,7
 564.243164062 1152.81933594 564.243164062 1152.81933594 590.33984375 1125.13964844 c 4,8,9
 616.243164062 1096.81933594 616.243164062 1096.81933594 616.3828125 1059.62988281 c 4,10,11
 616.243164062 1021.81933594 616.243164062 1021.81933594 584.552734375 991.861328125 c 4,12,13
 552.243164062 961.819335938 552.243164062 961.819335938 504.497070312 961.7421875 c 4,14,0
 456.243164062 961.819335938 456.243164062 961.819335938 431.192382812 987.342773438 c 132,-1,1
437.192382812 330.342773438 m 4,15,16
 412 356 412 356 412.114257812 394.346679688 c 4,17,18
 412 433 412 433 444.907226562 464.375 c 4,19,20
 477 496 477 496 524 496 c 4,21,22
 570 496 570 496 596.33984375 468.139648438 c 4,23,24
 622 440 622 440 622.3828125 402.629882812 c 4,25,26
 622 365 622 365 590.552734375 334.861328125 c 4,27,28
 558 305 558 305 510.497070312 304.7421875 c 4,29,30
 462 305 462 305 437.192382812 330.342773438 c 4,15,16
775 815 m 1,31,-1
 775 1271 l 1,32,-1
 840 1336 l 1,33,-1
 905 1271 l 1,34,-1
 905 815 l 1,35,-1
 840 750 l 1,36,-1
 775 815 l 1,31,-1
EndSplineSet
EndChar

StartChar: uni0485
Encoding: 1157 1157 264
Width: 1028
Flags: W
LayerCount: 2
Fore
SplineSet
431.192382812 987.342773438 m 132,-1,1
 406.243164062 1012.81933594 406.243164062 1012.81933594 406.114257812 1051.34667969 c 4,2,3
 406.243164062 1089.81933594 406.243164062 1089.81933594 438.907226562 1121.375 c 4,4,5
 471.243164062 1152.81933594 471.243164062 1152.81933594 518 1153 c 4,6,7
 564.243164062 1152.81933594 564.243164062 1152.81933594 590.33984375 1125.13964844 c 4,8,9
 616.243164062 1096.81933594 616.243164062 1096.81933594 616.3828125 1059.62988281 c 4,10,11
 616.243164062 1021.81933594 616.243164062 1021.81933594 584.552734375 991.861328125 c 4,12,13
 552.243164062 961.819335938 552.243164062 961.819335938 504.497070312 961.7421875 c 4,14,0
 456.243164062 961.819335938 456.243164062 961.819335938 431.192382812 987.342773438 c 132,-1,1
437.192382812 330.342773438 m 4,15,16
 412 356 412 356 412.114257812 394.346679688 c 4,17,18
 412 433 412 433 444.907226562 464.375 c 4,19,20
 477 496 477 496 524 496 c 4,21,22
 570 496 570 496 596.33984375 468.139648438 c 4,23,24
 622 440 622 440 622.3828125 402.629882812 c 4,25,26
 622 365 622 365 590.552734375 334.861328125 c 4,27,28
 558 305 558 305 510.497070312 304.7421875 c 4,29,30
 462 305 462 305 437.192382812 330.342773438 c 4,15,16
221 65 m 1,31,-1
 286 131 l 1,32,-1
 742 131 l 1,33,-1
 807 65 l 1,34,-1
 742 0 l 1,35,-1
 286 0 l 1,36,-1
 221 65 l 1,31,-1
775 815 m 1,37,-1
 775 1271 l 1,38,-1
 840 1336 l 1,39,-1
 905 1271 l 1,40,-1
 905 815 l 1,41,-1
 840 750 l 1,42,-1
 775 815 l 1,37,-1
EndSplineSet
EndChar

StartChar: uni0486
Encoding: 1158 1158 265
Width: 1028
Flags: W
LayerCount: 2
Fore
SplineSet
431.192382812 987.342773438 m 132,-1,1
 406.243164062 1012.81933594 406.243164062 1012.81933594 406.114257812 1051.34667969 c 4,2,3
 406.243164062 1089.81933594 406.243164062 1089.81933594 438.907226562 1121.375 c 4,4,5
 471.243164062 1152.81933594 471.243164062 1152.81933594 518 1153 c 4,6,7
 564.243164062 1152.81933594 564.243164062 1152.81933594 590.33984375 1125.13964844 c 4,8,9
 616.243164062 1096.81933594 616.243164062 1096.81933594 616.3828125 1059.62988281 c 4,10,11
 616.243164062 1021.81933594 616.243164062 1021.81933594 584.552734375 991.861328125 c 4,12,13
 552.243164062 961.819335938 552.243164062 961.819335938 504.497070312 961.7421875 c 4,14,0
 456.243164062 961.819335938 456.243164062 961.819335938 431.192382812 987.342773438 c 132,-1,1
437.192382812 330.342773438 m 4,15,16
 412 356 412 356 412.114257812 394.346679688 c 4,17,18
 412 433 412 433 444.907226562 464.375 c 4,19,20
 477 496 477 496 524 496 c 4,21,22
 570 496 570 496 596.33984375 468.139648438 c 4,23,24
 622 440 622 440 622.3828125 402.629882812 c 4,25,26
 622 365 622 365 590.552734375 334.861328125 c 4,27,28
 558 305 558 305 510.497070312 304.7421875 c 4,29,30
 462 305 462 305 437.192382812 330.342773438 c 4,15,16
775 163 m 1,31,-1
 775 619 l 1,32,-1
 840 684 l 1,33,-1
 905 619 l 1,34,-1
 905 163 l 1,35,-1
 840 98 l 1,36,-1
 775 163 l 1,31,-1
775 815 m 1,37,-1
 775 1271 l 1,38,-1
 840 1336 l 1,39,-1
 905 1271 l 1,40,-1
 905 815 l 1,41,-1
 840 750 l 1,42,-1
 775 815 l 1,37,-1
EndSplineSet
EndChar

StartChar: uni0487
Encoding: 1159 1159 266
Width: 1028
Flags: W
LayerCount: 2
Fore
SplineSet
431.192382812 987.342773438 m 132,-1,1
 406.243164062 1012.81933594 406.243164062 1012.81933594 406.114257812 1051.34667969 c 4,2,3
 406.243164062 1089.81933594 406.243164062 1089.81933594 438.907226562 1121.375 c 4,4,5
 471.243164062 1152.81933594 471.243164062 1152.81933594 518 1153 c 4,6,7
 564.243164062 1152.81933594 564.243164062 1152.81933594 590.33984375 1125.13964844 c 4,8,9
 616.243164062 1096.81933594 616.243164062 1096.81933594 616.3828125 1059.62988281 c 4,10,11
 616.243164062 1021.81933594 616.243164062 1021.81933594 584.552734375 991.861328125 c 4,12,13
 552.243164062 961.819335938 552.243164062 961.819335938 504.497070312 961.7421875 c 4,14,0
 456.243164062 961.819335938 456.243164062 961.819335938 431.192382812 987.342773438 c 132,-1,1
437.192382812 330.342773438 m 4,15,16
 412 356 412 356 412.114257812 394.346679688 c 4,17,18
 412 433 412 433 444.907226562 464.375 c 4,19,20
 477 496 477 496 524 496 c 4,21,22
 570 496 570 496 596.33984375 468.139648438 c 4,23,24
 622 440 622 440 622.3828125 402.629882812 c 4,25,26
 622 365 622 365 590.552734375 334.861328125 c 4,27,28
 558 305 558 305 510.497070312 304.7421875 c 4,29,30
 462 305 462 305 437.192382812 330.342773438 c 4,15,16
221 65 m 1,31,-1
 286 131 l 1,32,-1
 742 131 l 1,33,-1
 807 65 l 1,34,-1
 742 0 l 1,35,-1
 286 0 l 1,36,-1
 221 65 l 1,31,-1
775 163 m 1,37,-1
 775 619 l 1,38,-1
 840 684 l 1,39,-1
 905 619 l 1,40,-1
 905 163 l 1,41,-1
 840 98 l 1,42,-1
 775 163 l 1,37,-1
775 815 m 1,43,-1
 775 1271 l 1,44,-1
 840 1336 l 1,45,-1
 905 1271 l 1,46,-1
 905 815 l 1,47,-1
 840 750 l 1,48,-1
 775 815 l 1,43,-1
EndSplineSet
EndChar

StartChar: uni0488
Encoding: 1160 1160 267
Width: 1028
Flags: W
LayerCount: 2
Fore
SplineSet
431.192382812 987.342773438 m 132,-1,1
 406.243164062 1012.81933594 406.243164062 1012.81933594 406.114257812 1051.34667969 c 4,2,3
 406.243164062 1089.81933594 406.243164062 1089.81933594 438.907226562 1121.375 c 4,4,5
 471.243164062 1152.81933594 471.243164062 1152.81933594 518 1153 c 4,6,7
 564.243164062 1152.81933594 564.243164062 1152.81933594 590.33984375 1125.13964844 c 4,8,9
 616.243164062 1096.81933594 616.243164062 1096.81933594 616.3828125 1059.62988281 c 4,10,11
 616.243164062 1021.81933594 616.243164062 1021.81933594 584.552734375 991.861328125 c 4,12,13
 552.243164062 961.819335938 552.243164062 961.819335938 504.497070312 961.7421875 c 4,14,0
 456.243164062 961.819335938 456.243164062 961.819335938 431.192382812 987.342773438 c 132,-1,1
437.192382812 330.342773438 m 4,15,16
 412 356 412 356 412.114257812 394.346679688 c 4,17,18
 412 433 412 433 444.907226562 464.375 c 4,19,20
 477 496 477 496 524 496 c 4,21,22
 570 496 570 496 596.33984375 468.139648438 c 4,23,24
 622 440 622 440 622.3828125 402.629882812 c 4,25,26
 622 365 622 365 590.552734375 334.861328125 c 4,27,28
 558 305 558 305 510.497070312 304.7421875 c 4,29,30
 462 305 462 305 437.192382812 330.342773438 c 4,15,16
221 1369 m 1,31,-1
 286 1434 l 1,32,-1
 742 1434 l 1,33,-1
 807 1369 l 1,34,-1
 742 1304 l 1,35,-1
 286 1304 l 1,36,-1
 221 1369 l 1,31,-1
EndSplineSet
EndChar

StartChar: uni0489
Encoding: 1161 1161 268
Width: 1028
Flags: W
LayerCount: 2
Fore
SplineSet
431.192382812 987.342773438 m 132,-1,1
 406.243164062 1012.81933594 406.243164062 1012.81933594 406.114257812 1051.34667969 c 4,2,3
 406.243164062 1089.81933594 406.243164062 1089.81933594 438.907226562 1121.375 c 4,4,5
 471.243164062 1152.81933594 471.243164062 1152.81933594 518 1153 c 4,6,7
 564.243164062 1152.81933594 564.243164062 1152.81933594 590.33984375 1125.13964844 c 4,8,9
 616.243164062 1096.81933594 616.243164062 1096.81933594 616.3828125 1059.62988281 c 4,10,11
 616.243164062 1021.81933594 616.243164062 1021.81933594 584.552734375 991.861328125 c 4,12,13
 552.243164062 961.819335938 552.243164062 961.819335938 504.497070312 961.7421875 c 4,14,0
 456.243164062 961.819335938 456.243164062 961.819335938 431.192382812 987.342773438 c 132,-1,1
437.192382812 330.342773438 m 4,15,16
 412 356 412 356 412.114257812 394.346679688 c 4,17,18
 412 433 412 433 444.907226562 464.375 c 4,19,20
 477 496 477 496 524 496 c 4,21,22
 570 496 570 496 596.33984375 468.139648438 c 4,23,24
 622 440 622 440 622.3828125 402.629882812 c 4,25,26
 622 365 622 365 590.552734375 334.861328125 c 4,27,28
 558 305 558 305 510.497070312 304.7421875 c 4,29,30
 462 305 462 305 437.192382812 330.342773438 c 4,15,16
221 65 m 1,31,-1
 286 131 l 1,32,-1
 742 131 l 1,33,-1
 807 65 l 1,34,-1
 742 0 l 1,35,-1
 286 0 l 1,36,-1
 221 65 l 1,31,-1
221 1369 m 1,37,-1
 286 1434 l 1,38,-1
 742 1434 l 1,39,-1
 807 1369 l 1,40,-1
 742 1304 l 1,41,-1
 286 1304 l 1,42,-1
 221 1369 l 1,37,-1
EndSplineSet
EndChar

